<svg width="784" height="805" viewBox="0 0 784 805" fill="none" xmlns="http://www.w3.org/2000/svg">
<path d="M380.66 9.99998C380.66 4.47713 385.139 -0.012977 390.66 0.124256C461.387 1.88223 530.466 22.2631 590.889 59.2907C654.158 98.0616 705.472 153.573 739.159 219.689C772.847 285.804 787.595 359.947 781.773 433.921C775.951 507.895 749.786 578.819 706.171 638.85C662.555 698.881 603.189 745.682 534.634 774.079C466.08 802.475 391.008 811.36 317.719 799.752C244.429 788.144 175.777 756.495 119.353 708.305C65.4659 662.281 24.736 602.881 1.20835 536.159C-0.62829 530.951 2.25803 525.303 7.51057 523.597L141.554 480.043C146.806 478.337 152.428 481.22 154.351 486.398C168.65 524.902 192.56 559.177 223.876 585.924C257.731 614.839 298.922 633.828 342.895 640.793C386.869 647.757 431.912 642.426 473.045 625.388C514.177 608.351 549.797 580.27 575.967 544.251C602.136 508.232 617.835 465.678 621.328 421.294C624.821 376.909 615.972 332.423 595.76 292.754C575.547 253.085 544.759 219.778 506.798 196.516C471.683 174.997 431.696 162.849 390.658 161.148C385.14 160.92 380.66 156.464 380.66 150.941V9.99998Z" fill="url(#paint0_linear)"/>
<defs>
<linearGradient id="paint0_linear" x1="685" y1="307" x2="404.061" y2="804.706" gradientUnits="userSpaceOnUse">
<stop stop-color="#05DB6B" stop-opacity="0"/>
<stop offset="0.516147" stop-color="#05DB6B" stop-opacity="0.15"/>
<stop offset="1" stop-color="#05DB6B" stop-opacity="0"/>
</linearGradient>
</defs>
</svg>
