<svg width="18" height="19" viewBox="0 0 18 19" fill="none" xmlns="http://www.w3.org/2000/svg">
<path d="M17.4853 2.59019C17.2205 2.31098 16.7909 2.3105 16.5261 2.58901L8.38764 11.1332L5.45132 7.7762C5.1976 7.48629 4.76862 7.46749 4.49275 7.73453C4.21709 8.00161 4.19944 8.45338 4.45316 8.74355L7.86775 12.6471C7.9928 12.7901 8.16781 12.8732 8.35234 12.8772C8.3573 12.8775 8.36208 12.8775 8.36683 12.8775C8.54616 12.8775 8.71867 12.8025 8.84576 12.6692L17.484 3.60014C17.7494 3.32167 17.7499 2.86941 17.4853 2.59019Z" fill="#052C1E"/>
<path d="M17.3216 8.75959C16.9469 8.75959 16.6432 9.07925 16.6432 9.47371C16.6432 13.9102 13.2146 17.5192 9 17.5192C4.78561 17.5192 1.35679 13.9102 1.35679 9.47371C1.35679 5.0375 4.78561 1.4282 9 1.4282C9.3747 1.4282 9.67841 1.10853 9.67841 0.714118C9.67841 0.319664 9.3747 0 9 0C4.03734 0 0 4.24985 0 9.47371C0 14.6973 4.03734 18.9474 9 18.9474C13.9624 18.9474 18 14.6973 18 9.47371C18 9.07929 17.6963 8.75959 17.3216 8.75959Z" fill="#052C1E"/>
</svg>
