<svg width="390" height="90" viewBox="0 0 390 90" fill="none" xmlns="http://www.w3.org/2000/svg">
<g filter="url(#filter0_d)">
<rect x="5" y="5" width="380" height="80" rx="3" fill="#F9F9F9"/>
</g>
<path d="M289.237 58.5273C289.101 58.5046 288.952 58.4932 288.793 58.4932C288.201 58.4932 287.799 58.7454 287.587 59.25V63H286.684V57.7168H287.562L287.577 58.3271C287.873 57.8551 288.293 57.6191 288.837 57.6191C289.013 57.6191 289.146 57.6419 289.237 57.6875V58.5273Z" fill="#555555"/>
<path d="M292.167 63.0977C291.451 63.0977 290.868 62.8633 290.419 62.3945C289.97 61.9225 289.745 61.2926 289.745 60.5049V60.3389C289.745 59.8148 289.844 59.3477 290.043 58.9375C290.245 58.5241 290.525 58.2018 290.883 57.9707C291.244 57.7363 291.635 57.6191 292.055 57.6191C292.742 57.6191 293.275 57.8454 293.656 58.2979C294.037 58.7503 294.228 59.3981 294.228 60.2412V60.6172H290.648C290.661 61.138 290.813 61.5596 291.103 61.8818C291.396 62.2008 291.767 62.3604 292.216 62.3604C292.535 62.3604 292.805 62.2952 293.026 62.165C293.248 62.0348 293.441 61.8623 293.607 61.6475L294.159 62.0771C293.716 62.7575 293.052 63.0977 292.167 63.0977ZM292.055 58.3613C291.69 58.3613 291.384 58.4948 291.137 58.7617C290.889 59.0254 290.736 59.3965 290.678 59.875H293.324V59.8066C293.298 59.3477 293.174 58.9928 292.953 58.7422C292.732 58.4883 292.432 58.3613 292.055 58.3613Z" fill="#555555"/>
<path d="M300.648 60.7441C300.561 61.4961 300.282 62.0771 299.813 62.4873C299.348 62.8942 298.728 63.0977 297.953 63.0977C297.113 63.0977 296.439 62.7965 295.932 62.1943C295.427 61.5921 295.175 60.7865 295.175 59.7773V59.0938C295.175 58.4329 295.292 57.8519 295.526 57.3506C295.764 56.8493 296.099 56.4652 296.532 56.1982C296.965 55.9281 297.466 55.793 298.036 55.793C298.791 55.793 299.397 56.0046 299.853 56.4277C300.308 56.8477 300.574 57.4303 300.648 58.1758H299.706C299.625 57.6094 299.447 57.1992 299.174 56.9453C298.904 56.6914 298.524 56.5645 298.036 56.5645C297.437 56.5645 296.967 56.7858 296.625 57.2285C296.286 57.6712 296.117 58.3011 296.117 59.1182V59.8066C296.117 60.5781 296.278 61.1917 296.601 61.6475C296.923 62.1032 297.374 62.3311 297.953 62.3311C298.474 62.3311 298.873 62.2139 299.149 61.9795C299.429 61.7419 299.615 61.3301 299.706 60.7441H300.648Z" fill="#555555"/>
<path d="M305.858 61.1445H302.88L302.211 63H301.244L303.959 55.8906H304.779L307.499 63H306.537L305.858 61.1445ZM303.163 60.373H305.58L304.369 57.0479L303.163 60.373Z" fill="#555555"/>
<path d="M309.394 60.2168V63H308.456V55.8906H311.078C311.856 55.8906 312.465 56.0892 312.904 56.4863C313.347 56.8835 313.568 57.4092 313.568 58.0635C313.568 58.7536 313.352 59.2858 312.919 59.6602C312.489 60.0312 311.872 60.2168 311.068 60.2168H309.394ZM309.394 59.4502H311.078C311.579 59.4502 311.964 59.333 312.23 59.0986C312.497 58.861 312.631 58.5192 312.631 58.0732C312.631 57.6501 312.497 57.3115 312.23 57.0576C311.964 56.8037 311.597 56.6719 311.132 56.6621H309.394V59.4502Z" fill="#555555"/>
<path d="M319.677 56.6621H317.392V63H316.459V56.6621H314.179V55.8906H319.677V56.6621Z" fill="#555555"/>
<path d="M325.824 60.7441C325.736 61.4961 325.458 62.0771 324.989 62.4873C324.524 62.8942 323.904 63.0977 323.129 63.0977C322.289 63.0977 321.615 62.7965 321.107 62.1943C320.603 61.5921 320.351 60.7865 320.351 59.7773V59.0938C320.351 58.4329 320.468 57.8519 320.702 57.3506C320.94 56.8493 321.275 56.4652 321.708 56.1982C322.141 55.9281 322.642 55.793 323.212 55.793C323.967 55.793 324.573 56.0046 325.028 56.4277C325.484 56.8477 325.749 57.4303 325.824 58.1758H324.882C324.8 57.6094 324.623 57.1992 324.35 56.9453C324.079 56.6914 323.7 56.5645 323.212 56.5645C322.613 56.5645 322.143 56.7858 321.801 57.2285C321.462 57.6712 321.293 58.3011 321.293 59.1182V59.8066C321.293 60.5781 321.454 61.1917 321.776 61.6475C322.099 62.1032 322.549 62.3311 323.129 62.3311C323.65 62.3311 324.049 62.2139 324.325 61.9795C324.605 61.7419 324.791 61.3301 324.882 60.7441H325.824Z" fill="#555555"/>
<path d="M332.572 63H331.63V59.7139H328.046V63H327.108V55.8906H328.046V58.9473H331.63V55.8906H332.572V63Z" fill="#555555"/>
<path d="M338.251 61.1445H335.272L334.604 63H333.637L336.352 55.8906H337.172L339.892 63H338.93L338.251 61.1445ZM335.556 60.373H337.973L336.762 57.0479L335.556 60.373Z" fill="#555555"/>
<path d="M285.75 71.5391V73.7656H285V68.0781H287.098C287.72 68.0781 288.207 68.237 288.559 68.5547C288.913 68.8724 289.09 69.293 289.09 69.8164C289.09 70.3685 288.917 70.7943 288.57 71.0938C288.227 71.3906 287.733 71.5391 287.09 71.5391H285.75ZM285.75 70.9258H287.098C287.499 70.9258 287.806 70.832 288.02 70.6445C288.233 70.4544 288.34 70.181 288.34 69.8242C288.34 69.4857 288.233 69.2148 288.02 69.0117C287.806 68.8086 287.513 68.7031 287.141 68.6953H285.75V70.9258Z" fill="#555555"/>
<path d="M291.977 70.1875C291.867 70.1693 291.749 70.1602 291.621 70.1602C291.147 70.1602 290.826 70.362 290.656 70.7656V73.7656H289.934V69.5391H290.637L290.648 70.0273C290.885 69.6497 291.221 69.4609 291.656 69.4609C291.797 69.4609 291.904 69.4792 291.977 69.5156V70.1875Z" fill="#555555"/>
<path d="M293.43 73.7656H292.707V69.5391H293.43V73.7656ZM292.648 68.418C292.648 68.3008 292.684 68.2018 292.754 68.1211C292.827 68.0404 292.934 68 293.074 68C293.215 68 293.322 68.0404 293.395 68.1211C293.467 68.2018 293.504 68.3008 293.504 68.418C293.504 68.5352 293.467 68.6328 293.395 68.7109C293.322 68.7891 293.215 68.8281 293.074 68.8281C292.934 68.8281 292.827 68.7891 292.754 68.7109C292.684 68.6328 292.648 68.5352 292.648 68.418Z" fill="#555555"/>
<path d="M295.984 72.7852L297.031 69.5391H297.77L296.254 73.7656H295.703L294.172 69.5391H294.91L295.984 72.7852Z" fill="#555555"/>
<path d="M301.012 73.7656C300.97 73.6823 300.936 73.5339 300.91 73.3203C300.574 73.6693 300.173 73.8438 299.707 73.8438C299.29 73.8438 298.948 73.7266 298.68 73.4922C298.414 73.2552 298.281 72.9557 298.281 72.5938C298.281 72.1536 298.448 71.8125 298.781 71.5703C299.117 71.3255 299.589 71.2031 300.195 71.2031H300.898V70.8711C300.898 70.6185 300.823 70.418 300.672 70.2695C300.521 70.1185 300.298 70.043 300.004 70.043C299.746 70.043 299.53 70.1081 299.355 70.2383C299.181 70.3685 299.094 70.526 299.094 70.7109H298.367C298.367 70.5 298.441 70.2969 298.59 70.1016C298.741 69.9036 298.944 69.7474 299.199 69.6328C299.457 69.5182 299.74 69.4609 300.047 69.4609C300.534 69.4609 300.915 69.5833 301.191 69.8281C301.467 70.0703 301.611 70.4049 301.621 70.832V72.7773C301.621 73.1654 301.671 73.474 301.77 73.7031V73.7656H301.012ZM299.812 73.2148C300.039 73.2148 300.254 73.1562 300.457 73.0391C300.66 72.9219 300.807 72.7695 300.898 72.582V71.7148H300.332C299.447 71.7148 299.004 71.974 299.004 72.4922C299.004 72.7188 299.079 72.8958 299.23 73.0234C299.382 73.151 299.576 73.2148 299.812 73.2148Z" fill="#555555"/>
<path d="M304.449 73.2539C304.707 73.2539 304.932 73.1758 305.125 73.0195C305.318 72.8633 305.424 72.668 305.445 72.4336H306.129C306.116 72.6758 306.033 72.9062 305.879 73.125C305.725 73.3438 305.52 73.5182 305.262 73.6484C305.007 73.7786 304.736 73.8438 304.449 73.8438C303.874 73.8438 303.415 73.6523 303.074 73.2695C302.736 72.8841 302.566 72.3581 302.566 71.6914V71.5703C302.566 71.1589 302.642 70.793 302.793 70.4727C302.944 70.1523 303.16 69.9036 303.441 69.7266C303.725 69.5495 304.06 69.4609 304.445 69.4609C304.919 69.4609 305.312 69.6029 305.625 69.8867C305.94 70.1706 306.108 70.5391 306.129 70.9922H305.445C305.424 70.7188 305.32 70.4948 305.133 70.3203C304.948 70.1432 304.719 70.0547 304.445 70.0547C304.078 70.0547 303.793 70.1875 303.59 70.4531C303.389 70.7161 303.289 71.0977 303.289 71.5977V71.7344C303.289 72.2214 303.389 72.5964 303.59 72.8594C303.79 73.1224 304.077 73.2539 304.449 73.2539Z" fill="#555555"/>
<path d="M308.324 72.707L309.309 69.5391H310.082L308.383 74.418C308.12 75.1211 307.702 75.4727 307.129 75.4727L306.992 75.4609L306.723 75.4102V74.8242L306.918 74.8398C307.163 74.8398 307.353 74.7904 307.488 74.6914C307.626 74.5924 307.74 74.4115 307.828 74.1484L307.988 73.7188L306.48 69.5391H307.27L308.324 72.707Z" fill="#555555"/>
<path d="M322.93 68.6953H321.102V73.7656H320.355V68.6953H318.531V68.0781H322.93V68.6953Z" fill="#555555"/>
<path d="M325.023 73.8438C324.451 73.8438 323.984 73.6562 323.625 73.2812C323.266 72.9036 323.086 72.3997 323.086 71.7695V71.6367C323.086 71.2174 323.165 70.8438 323.324 70.5156C323.486 70.1849 323.71 69.9271 323.996 69.7422C324.285 69.5547 324.598 69.4609 324.934 69.4609C325.483 69.4609 325.91 69.6419 326.215 70.0039C326.52 70.3659 326.672 70.8841 326.672 71.5586V71.8594H323.809C323.819 72.276 323.94 72.6133 324.172 72.8711C324.406 73.1263 324.703 73.2539 325.062 73.2539C325.318 73.2539 325.534 73.2018 325.711 73.0977C325.888 72.9935 326.043 72.8555 326.176 72.6836L326.617 73.0273C326.263 73.5716 325.732 73.8438 325.023 73.8438ZM324.934 70.0547C324.642 70.0547 324.397 70.1615 324.199 70.375C324.001 70.5859 323.879 70.8828 323.832 71.2656H325.949V71.2109C325.928 70.8438 325.829 70.5599 325.652 70.3594C325.475 70.1562 325.236 70.0547 324.934 70.0547Z" fill="#555555"/>
<path d="M329.555 70.1875C329.445 70.1693 329.327 70.1602 329.199 70.1602C328.725 70.1602 328.404 70.362 328.234 70.7656V73.7656H327.512V69.5391H328.215L328.227 70.0273C328.464 69.6497 328.799 69.4609 329.234 69.4609C329.375 69.4609 329.482 69.4792 329.555 69.5156V70.1875Z" fill="#555555"/>
<path d="M330.902 69.5391L330.922 70.0078C331.232 69.6432 331.65 69.4609 332.176 69.4609C332.767 69.4609 333.169 69.6875 333.383 70.1406C333.523 69.9375 333.706 69.7734 333.93 69.6484C334.156 69.5234 334.423 69.4609 334.73 69.4609C335.658 69.4609 336.129 69.9518 336.145 70.9336V73.7656H335.422V70.9766C335.422 70.6745 335.353 70.4492 335.215 70.3008C335.077 70.1497 334.845 70.0742 334.52 70.0742C334.251 70.0742 334.029 70.1549 333.852 70.3164C333.674 70.4753 333.572 70.6901 333.543 70.9609V73.7656H332.816V70.9961C332.816 70.3815 332.516 70.0742 331.914 70.0742C331.44 70.0742 331.116 70.276 330.941 70.6797V73.7656H330.219V69.5391H330.902Z" fill="#555555"/>
<path d="M339.699 72.6445C339.699 72.4492 339.625 72.2982 339.477 72.1914C339.331 72.082 339.074 71.9883 338.707 71.9102C338.342 71.832 338.052 71.7383 337.836 71.6289C337.622 71.5195 337.464 71.3893 337.359 71.2383C337.258 71.0872 337.207 70.9076 337.207 70.6992C337.207 70.3529 337.353 70.0599 337.645 69.8203C337.939 69.5807 338.314 69.4609 338.77 69.4609C339.249 69.4609 339.637 69.5846 339.934 69.832C340.233 70.0794 340.383 70.3958 340.383 70.7812H339.656C339.656 70.5833 339.572 70.4128 339.402 70.2695C339.236 70.1263 339.025 70.0547 338.77 70.0547C338.507 70.0547 338.301 70.112 338.152 70.2266C338.004 70.3411 337.93 70.4909 337.93 70.6758C337.93 70.8503 337.999 70.9818 338.137 71.0703C338.275 71.1589 338.523 71.2435 338.883 71.3242C339.245 71.4049 339.538 71.5013 339.762 71.6133C339.986 71.7253 340.151 71.8607 340.258 72.0195C340.367 72.1758 340.422 72.3672 340.422 72.5938C340.422 72.9714 340.271 73.2747 339.969 73.5039C339.667 73.7305 339.275 73.8438 338.793 73.8438C338.454 73.8438 338.155 73.7839 337.895 73.6641C337.634 73.5443 337.43 73.3776 337.281 73.1641C337.135 72.9479 337.062 72.7148 337.062 72.4648H337.785C337.798 72.707 337.895 72.8997 338.074 73.043C338.257 73.1836 338.496 73.2539 338.793 73.2539C339.066 73.2539 339.285 73.1992 339.449 73.0898C339.616 72.9779 339.699 72.8294 339.699 72.6445Z" fill="#555555"/>
<path d="M315.328 71.9648H313.277V71.1992H315.328V71.9648Z" fill="black"/>
<g filter="url(#filter1_d)">
<path d="M324.401 25.3378C324.266 25.1691 324.126 25.0031 323.983 24.84C321.688 22.234 318.522 20.554 315.077 20.1147C311.633 19.6754 308.146 20.507 305.271 22.4537L309.387 28.5341C310.783 27.589 312.476 27.1853 314.148 27.3985C315.821 27.6118 317.358 28.4275 318.472 29.6927C318.722 29.9763 318.946 30.2781 319.145 30.5947L315.501 34.2385H327.61V22.1292L324.401 25.3378Z" fill="#1C3AA9"/>
</g>
<g filter="url(#filter2_d)">
<path d="M313.238 20.0006H301.129L304.301 23.1724C301.931 25.0879 300.227 27.72 299.457 30.6903C298.585 34.0516 298.969 37.6152 300.536 40.7138L307.089 37.3996C306.328 35.8953 306.142 34.1651 306.565 32.5333C306.988 30.9014 307.991 29.4797 309.387 28.5346C309.442 28.4974 309.498 28.4609 309.554 28.4253L313.238 32.1099V20.0006Z" fill="#4285F4"/>
</g>
<g filter="url(#filter3_d)">
<path d="M299 34.3716H311.109L307.451 38.0302C308.227 39.2318 309.359 40.1693 310.698 40.705C312.263 41.3312 314.003 41.3652 315.592 40.8007C317.18 40.2363 318.509 39.112 319.328 37.6385L324.624 42.9213C322.954 45.1132 320.674 46.7873 318.05 47.7197C314.778 48.8824 311.195 48.8123 307.971 47.5225C305.703 46.6153 303.722 45.1482 302.202 43.2793L299 46.4809V34.3716Z" fill="#ABABAB"/>
</g>
<path d="M86.5635 50H85.251V40.0469H86.5635V50Z" fill="black"/>
<path d="M88.8604 42.8496L88.1426 42.3574C88.5664 41.765 88.7852 41.1406 88.7988 40.4844V39.5H90.0498V40.3887C90.0452 40.8444 89.9313 41.3001 89.708 41.7559C89.4893 42.207 89.2067 42.5716 88.8604 42.8496Z" fill="black"/>
<path d="M92.627 42.6035L92.6611 43.4238C93.2035 42.7858 93.9349 42.4668 94.8555 42.4668C95.89 42.4668 96.5941 42.8633 96.9678 43.6562C97.2139 43.3008 97.5329 43.0137 97.9248 42.7949C98.3213 42.5762 98.7884 42.4668 99.3262 42.4668C100.949 42.4668 101.773 43.3258 101.801 45.0439V50H100.536V45.1191C100.536 44.5905 100.415 44.1963 100.174 43.9365C99.9323 43.6722 99.5267 43.54 98.957 43.54C98.4876 43.54 98.098 43.6813 97.7881 43.9639C97.4782 44.2419 97.2982 44.6178 97.248 45.0918V50H95.9766V45.1533C95.9766 44.0778 95.4502 43.54 94.3975 43.54C93.568 43.54 93.0007 43.8932 92.6953 44.5996V50H91.4307V42.6035H92.627Z" fill="black"/>
<path d="M108.384 42.6035L108.425 43.5332C108.99 42.8223 109.728 42.4668 110.64 42.4668C112.203 42.4668 112.991 43.3486 113.005 45.1123V50H111.74V45.1055C111.736 44.5723 111.613 44.1781 111.371 43.9229C111.134 43.6676 110.763 43.54 110.257 43.54C109.847 43.54 109.487 43.6494 109.177 43.8682C108.867 44.0869 108.625 44.374 108.452 44.7295V50H107.188V42.6035H108.384Z" fill="black"/>
<path d="M114.577 46.2334C114.577 45.5088 114.718 44.8571 115.001 44.2783C115.288 43.6995 115.685 43.2529 116.19 42.9385C116.701 42.624 117.282 42.4668 117.934 42.4668C118.941 42.4668 119.754 42.8154 120.374 43.5127C120.998 44.21 121.311 45.1374 121.311 46.2949V46.3838C121.311 47.1038 121.172 47.751 120.894 48.3252C120.62 48.8949 120.226 49.3392 119.711 49.6582C119.201 49.9772 118.613 50.1367 117.947 50.1367C116.945 50.1367 116.131 49.7881 115.507 49.0908C114.887 48.3936 114.577 47.4707 114.577 46.3223V46.2334ZM115.849 46.3838C115.849 47.2041 116.038 47.8626 116.416 48.3594C116.799 48.8561 117.309 49.1045 117.947 49.1045C118.59 49.1045 119.1 48.8538 119.479 48.3525C119.857 47.8467 120.046 47.1403 120.046 46.2334C120.046 45.4222 119.852 44.766 119.465 44.2646C119.082 43.7588 118.572 43.5059 117.934 43.5059C117.309 43.5059 116.806 43.7542 116.423 44.251C116.04 44.7477 115.849 45.4587 115.849 46.3838Z" fill="black"/>
<path d="M124.612 40.8125V42.6035H125.993V43.5811H124.612V48.168C124.612 48.4642 124.674 48.6875 124.797 48.8379C124.92 48.9837 125.13 49.0566 125.426 49.0566C125.572 49.0566 125.772 49.0293 126.027 48.9746V50C125.695 50.0911 125.371 50.1367 125.057 50.1367C124.492 50.1367 124.065 49.9658 123.778 49.624C123.491 49.2822 123.348 48.7969 123.348 48.168V43.5811H122.001V42.6035H123.348V40.8125H124.612Z" fill="black"/>
<path d="M135.516 50C135.443 49.8542 135.383 49.5944 135.338 49.2207C134.75 49.8314 134.048 50.1367 133.232 50.1367C132.503 50.1367 131.904 49.9316 131.435 49.5215C130.97 49.1068 130.737 48.5827 130.737 47.9492C130.737 47.179 131.029 46.582 131.612 46.1582C132.2 45.7298 133.025 45.5156 134.087 45.5156H135.317V44.9346C135.317 44.4925 135.185 44.1416 134.921 43.8818C134.657 43.6175 134.267 43.4854 133.752 43.4854C133.301 43.4854 132.923 43.5993 132.617 43.8271C132.312 44.055 132.159 44.3307 132.159 44.6543H130.888C130.888 44.2852 131.018 43.9297 131.277 43.5879C131.542 43.2415 131.897 42.9681 132.344 42.7676C132.795 42.5671 133.289 42.4668 133.827 42.4668C134.679 42.4668 135.347 42.681 135.83 43.1094C136.313 43.5332 136.564 44.1188 136.582 44.8662V48.2705C136.582 48.9495 136.669 49.4896 136.842 49.8906V50H135.516ZM133.417 49.0361C133.813 49.0361 134.189 48.9336 134.545 48.7285C134.9 48.5234 135.158 48.2568 135.317 47.9287V46.4111H134.326C132.777 46.4111 132.002 46.8646 132.002 47.7715C132.002 48.168 132.134 48.4779 132.398 48.7012C132.663 48.9245 133.002 49.0361 133.417 49.0361Z" fill="black"/>
<path d="M145.612 43.7383C145.421 43.7064 145.214 43.6904 144.99 43.6904C144.161 43.6904 143.598 44.0436 143.302 44.75V50H142.037V42.6035H143.268L143.288 43.458C143.703 42.7972 144.291 42.4668 145.052 42.4668C145.298 42.4668 145.485 42.4987 145.612 42.5625V43.7383Z" fill="black"/>
<path d="M146.31 46.2334C146.31 45.5088 146.451 44.8571 146.733 44.2783C147.021 43.6995 147.417 43.2529 147.923 42.9385C148.433 42.624 149.014 42.4668 149.666 42.4668C150.673 42.4668 151.487 42.8154 152.106 43.5127C152.731 44.21 153.043 45.1374 153.043 46.2949V46.3838C153.043 47.1038 152.904 47.751 152.626 48.3252C152.353 48.8949 151.958 49.3392 151.443 49.6582C150.933 49.9772 150.345 50.1367 149.68 50.1367C148.677 50.1367 147.864 49.7881 147.239 49.0908C146.619 48.3936 146.31 47.4707 146.31 46.3223V46.2334ZM147.581 46.3838C147.581 47.2041 147.77 47.8626 148.148 48.3594C148.531 48.8561 149.042 49.1045 149.68 49.1045C150.322 49.1045 150.833 48.8538 151.211 48.3525C151.589 47.8467 151.778 47.1403 151.778 46.2334C151.778 45.4222 151.585 44.766 151.197 44.2646C150.814 43.7588 150.304 43.5059 149.666 43.5059C149.042 43.5059 148.538 43.7542 148.155 44.251C147.772 44.7477 147.581 45.4587 147.581 46.3838Z" fill="black"/>
<path d="M160.891 46.3838C160.891 47.514 160.631 48.4232 160.111 49.1113C159.592 49.7949 158.895 50.1367 158.02 50.1367C157.085 50.1367 156.363 49.8063 155.853 49.1455L155.791 50H154.629V39.5H155.894V43.417C156.404 42.7835 157.108 42.4668 158.006 42.4668C158.904 42.4668 159.608 42.8063 160.118 43.4854C160.633 44.1644 160.891 45.0941 160.891 46.2744V46.3838ZM159.626 46.2402C159.626 45.3789 159.46 44.7135 159.127 44.2441C158.794 43.7747 158.316 43.54 157.691 43.54C156.857 43.54 156.258 43.9274 155.894 44.7021V47.9014C156.281 48.6761 156.885 49.0635 157.705 49.0635C158.311 49.0635 158.783 48.8288 159.12 48.3594C159.457 47.89 159.626 47.1836 159.626 46.2402Z" fill="black"/>
<path d="M162.155 46.2334C162.155 45.5088 162.297 44.8571 162.579 44.2783C162.866 43.6995 163.263 43.2529 163.769 42.9385C164.279 42.624 164.86 42.4668 165.512 42.4668C166.519 42.4668 167.332 42.8154 167.952 43.5127C168.576 44.21 168.889 45.1374 168.889 46.2949V46.3838C168.889 47.1038 168.75 47.751 168.472 48.3252C168.198 48.8949 167.804 49.3392 167.289 49.6582C166.779 49.9772 166.191 50.1367 165.525 50.1367C164.523 50.1367 163.709 49.7881 163.085 49.0908C162.465 48.3936 162.155 47.4707 162.155 46.3223V46.2334ZM163.427 46.3838C163.427 47.2041 163.616 47.8626 163.994 48.3594C164.377 48.8561 164.887 49.1045 165.525 49.1045C166.168 49.1045 166.678 48.8538 167.057 48.3525C167.435 47.8467 167.624 47.1403 167.624 46.2334C167.624 45.4222 167.43 44.766 167.043 44.2646C166.66 43.7588 166.15 43.5059 165.512 43.5059C164.887 43.5059 164.384 43.7542 164.001 44.251C163.618 44.7477 163.427 45.4587 163.427 46.3838Z" fill="black"/>
<path d="M172.19 40.8125V42.6035H173.571V43.5811H172.19V48.168C172.19 48.4642 172.252 48.6875 172.375 48.8379C172.498 48.9837 172.708 49.0566 173.004 49.0566C173.15 49.0566 173.35 49.0293 173.605 48.9746V50C173.273 50.0911 172.949 50.1367 172.635 50.1367C172.07 50.1367 171.644 49.9658 171.356 49.624C171.069 49.2822 170.926 48.7969 170.926 48.168V43.5811H169.579V42.6035H170.926V40.8125H172.19Z" fill="black"/>
<path fill-rule="evenodd" clip-rule="evenodd" d="M69.9259 33H46.0741C46.0332 33 46 33.0332 46 33.0741V56.9259C46 56.9668 46.0332 57 46.0741 57H69.9259C69.9668 57 70 56.9668 70 56.9259V33.0741C70 33.0332 69.9668 33 69.9259 33ZM69.9259 31H46.0741C44.9286 31 44 31.9286 44 33.0741V56.9259C44 58.0714 44.9286 59 46.0741 59H69.9259C71.0714 59 72 58.0714 72 56.9259V33.0741C72 31.9286 71.0714 31 69.9259 31Z" fill="#C1C1C1"/>
<rect x="46" y="33" width="24" height="24" fill="white"/>
<defs>
<filter id="filter0_d" x="0" y="0" width="390" height="90" filterUnits="userSpaceOnUse" color-interpolation-filters="sRGB">
<feFlood flood-opacity="0" result="BackgroundImageFix"/>
<feColorMatrix in="SourceAlpha" type="matrix" values="0 0 0 0 0 0 0 0 0 0 0 0 0 0 0 0 0 0 127 0"/>
<feMorphology radius="1" operator="dilate" in="SourceAlpha" result="effect1_dropShadow"/>
<feOffset/>
<feGaussianBlur stdDeviation="2"/>
<feColorMatrix type="matrix" values="0 0 0 0 0.0352941 0 0 0 0 0.027451 0 0 0 0 0.145098 0 0 0 0.0454 0"/>
<feBlend mode="normal" in2="BackgroundImageFix" result="effect1_dropShadow"/>
<feBlend mode="normal" in="SourceGraphic" in2="effect1_dropShadow" result="shape"/>
</filter>
<filter id="filter1_d" x="304.271" y="19" width="24.3392" height="16.2385" filterUnits="userSpaceOnUse" color-interpolation-filters="sRGB">
<feFlood flood-opacity="0" result="BackgroundImageFix"/>
<feColorMatrix in="SourceAlpha" type="matrix" values="0 0 0 0 0 0 0 0 0 0 0 0 0 0 0 0 0 0 127 0"/>
<feOffset/>
<feGaussianBlur stdDeviation="0.5"/>
<feColorMatrix type="matrix" values="0 0 0 0 0 0 0 0 0 0 0 0 0 0 0 0 0 0 0.38 0"/>
<feBlend mode="normal" in2="BackgroundImageFix" result="effect1_dropShadow"/>
<feBlend mode="normal" in="SourceGraphic" in2="effect1_dropShadow" result="shape"/>
</filter>
<filter id="filter2_d" x="298" y="19.0006" width="16.2385" height="22.7132" filterUnits="userSpaceOnUse" color-interpolation-filters="sRGB">
<feFlood flood-opacity="0" result="BackgroundImageFix"/>
<feColorMatrix in="SourceAlpha" type="matrix" values="0 0 0 0 0 0 0 0 0 0 0 0 0 0 0 0 0 0 127 0"/>
<feOffset/>
<feGaussianBlur stdDeviation="0.5"/>
<feColorMatrix type="matrix" values="0 0 0 0 0 0 0 0 0 0 0 0 0 0 0 0 0 0 0.38 0"/>
<feBlend mode="normal" in2="BackgroundImageFix" result="effect1_dropShadow"/>
<feBlend mode="normal" in="SourceGraphic" in2="effect1_dropShadow" result="shape"/>
</filter>
<filter id="filter3_d" x="298" y="33.3716" width="27.6238" height="16.1719" filterUnits="userSpaceOnUse" color-interpolation-filters="sRGB">
<feFlood flood-opacity="0" result="BackgroundImageFix"/>
<feColorMatrix in="SourceAlpha" type="matrix" values="0 0 0 0 0 0 0 0 0 0 0 0 0 0 0 0 0 0 127 0"/>
<feOffset/>
<feGaussianBlur stdDeviation="0.5"/>
<feColorMatrix type="matrix" values="0 0 0 0 0 0 0 0 0 0 0 0 0 0 0 0 0 0 0.38 0"/>
<feBlend mode="normal" in2="BackgroundImageFix" result="effect1_dropShadow"/>
<feBlend mode="normal" in="SourceGraphic" in2="effect1_dropShadow" result="shape"/>
</filter>
</defs>
</svg>
