<svg width="24" height="26" viewBox="0 0 24 26" fill="none" xmlns="http://www.w3.org/2000/svg">
<path d="M23.0708 3.77064C22.7214 3.40223 22.1546 3.40159 21.8052 3.76907L11.067 15.0426L7.19269 10.6133C6.85792 10.2307 6.29191 10.2059 5.92792 10.5583C5.5642 10.9107 5.54091 11.5068 5.87569 11.8896L10.381 17.0401C10.546 17.2288 10.7769 17.3385 11.0204 17.3438C11.027 17.3441 11.0333 17.3441 11.0395 17.3441C11.2762 17.3441 11.5038 17.2451 11.6715 17.0693L23.0691 5.1032C23.4193 4.73577 23.4199 4.13905 23.0708 3.77064Z" fill="#06DB6B"/>
<path d="M22.8548 11.9108C22.3604 11.9108 21.9597 12.3326 21.9597 12.853C21.9597 18.7067 17.4359 23.4686 11.875 23.4686C6.31433 23.4686 1.7902 18.7067 1.7902 12.853C1.7902 6.99971 6.31433 2.23745 11.875 2.23745C12.3694 2.23745 12.7701 1.81567 12.7701 1.29526C12.7701 0.774805 12.3694 0.353027 11.875 0.353027C5.32704 0.353027 0 5.96045 0 12.853C0 19.7453 5.32704 25.353 11.875 25.353C18.4226 25.353 23.7499 19.7453 23.7499 12.853C23.7499 12.3326 23.3493 11.9108 22.8548 11.9108Z" fill="#06DB6B"/>
</svg>
