<svg width="381" height="378" viewBox="0 0 381 378" fill="none" xmlns="http://www.w3.org/2000/svg">
<ellipse opacity="0.67" cx="89.2442" cy="184.66" rx="62.2442" ry="60.8132" fill="url(#paint0_linear)"/>
<ellipse opacity="0.67" cx="158.671" cy="237.287" rx="44.8876" ry="43.8557" fill="url(#paint1_linear)"/>
<g opacity="0.67" filter="url(#filter0_d)">
<ellipse cx="190.391" cy="138.466" rx="91.5707" ry="89.4656" fill="url(#paint2_linear)"/>
</g>
<path d="M163.53 144.24C161.65 143.24 160.71 141.67 160.71 139.53C160.71 138.45 160.99 137.47 161.55 136.59C162.11 135.69 162.96 134.98 164.1 134.46C165.24 133.92 166.64 133.65 168.3 133.65C169.96 133.65 171.35 133.92 172.47 134.46C173.61 134.98 174.46 135.69 175.02 136.59C175.58 137.47 175.86 138.45 175.86 139.53C175.86 140.61 175.6 141.55 175.08 142.35C174.58 143.15 173.9 143.78 173.04 144.24C174.12 144.76 174.95 145.48 175.53 146.4C176.11 147.3 176.4 148.36 176.4 149.58C176.4 151 176.04 152.23 175.32 153.27C174.6 154.29 173.62 155.07 172.38 155.61C171.16 156.15 169.8 156.42 168.3 156.42C166.8 156.42 165.43 156.15 164.19 155.61C162.97 155.07 162 154.29 161.28 153.27C160.56 152.23 160.2 151 160.2 149.58C160.2 148.34 160.49 147.27 161.07 146.37C161.65 145.45 162.47 144.74 163.53 144.24ZM170.88 140.31C170.88 139.49 170.64 138.86 170.16 138.42C169.7 137.96 169.08 137.73 168.3 137.73C167.52 137.73 166.89 137.96 166.41 138.42C165.95 138.88 165.72 139.52 165.72 140.34C165.72 141.12 165.96 141.74 166.44 142.2C166.92 142.64 167.54 142.86 168.3 142.86C169.06 142.86 169.68 142.63 170.16 142.17C170.64 141.71 170.88 141.09 170.88 140.31ZM168.3 146.46C167.36 146.46 166.6 146.72 166.02 147.24C165.44 147.74 165.15 148.44 165.15 149.34C165.15 150.18 165.43 150.87 165.99 151.41C166.57 151.95 167.34 152.22 168.3 152.22C169.26 152.22 170.01 151.95 170.55 151.41C171.11 150.87 171.39 150.18 171.39 149.34C171.39 148.46 171.1 147.76 170.52 147.24C169.96 146.72 169.22 146.46 168.3 146.46ZM184.903 149.58C185.203 151.16 186.123 151.95 187.663 151.95C188.723 151.95 189.473 151.48 189.913 150.54C190.353 149.6 190.573 148.07 190.573 145.95C190.133 146.57 189.533 147.05 188.773 147.39C188.013 147.73 187.163 147.9 186.223 147.9C184.943 147.9 183.803 147.64 182.803 147.12C181.803 146.58 181.013 145.79 180.433 144.75C179.873 143.69 179.593 142.41 179.593 140.91C179.593 139.43 179.893 138.14 180.493 137.04C181.113 135.94 181.983 135.09 183.103 134.49C184.243 133.89 185.583 133.59 187.123 133.59C190.083 133.59 192.153 134.51 193.333 136.35C194.513 138.19 195.103 140.9 195.103 144.48C195.103 147.08 194.863 149.23 194.383 150.93C193.923 152.61 193.133 153.89 192.013 154.77C190.913 155.65 189.403 156.09 187.483 156.09C185.963 156.09 184.663 155.79 183.583 155.19C182.523 154.59 181.703 153.8 181.123 152.82C180.563 151.84 180.243 150.76 180.163 149.58H184.903ZM187.393 143.85C188.233 143.85 188.903 143.6 189.403 143.1C189.903 142.58 190.153 141.88 190.153 141C190.153 140.04 189.893 139.3 189.373 138.78C188.853 138.26 188.153 138 187.273 138C186.393 138 185.693 138.27 185.173 138.81C184.673 139.33 184.423 140.05 184.423 140.97C184.423 141.83 184.673 142.53 185.173 143.07C185.693 143.59 186.433 143.85 187.393 143.85ZM200.75 156.24C199.85 156.24 199.11 155.98 198.53 155.46C197.97 154.92 197.69 154.26 197.69 153.48C197.69 152.68 197.97 152.01 198.53 151.47C199.11 150.93 199.85 150.66 200.75 150.66C201.63 150.66 202.35 150.93 202.91 151.47C203.49 152.01 203.78 152.68 203.78 153.48C203.78 154.26 203.49 154.92 202.91 155.46C202.35 155.98 201.63 156.24 200.75 156.24ZM220.287 137.94L212.757 156H207.507L215.127 138.51H205.797V134.13H220.287V137.94Z" fill="white"/>
<path d="M78.223 192.26C78.6763 191.9 78.883 191.733 78.843 191.76C80.1497 190.68 81.1763 189.793 81.923 189.1C82.683 188.407 83.323 187.68 83.843 186.92C84.363 186.16 84.623 185.42 84.623 184.7C84.623 184.153 84.4963 183.727 84.243 183.42C83.9897 183.113 83.6097 182.96 83.103 182.96C82.5963 182.96 82.1963 183.153 81.903 183.54C81.623 183.913 81.483 184.447 81.483 185.14H78.183C78.2097 184.007 78.4497 183.06 78.903 182.3C79.3697 181.54 79.9763 180.98 80.723 180.62C81.483 180.26 82.323 180.08 83.243 180.08C84.8297 180.08 86.023 180.487 86.823 181.3C87.6363 182.113 88.043 183.173 88.043 184.48C88.043 185.907 87.5563 187.233 86.583 188.46C85.6097 189.673 84.3697 190.86 82.863 192.02H88.263V194.8H78.223V192.26ZM89.8888 184.52C89.9421 183.093 90.4088 181.993 91.2888 181.22C92.1688 180.447 93.3621 180.06 94.8688 180.06C95.8688 180.06 96.7221 180.233 97.4288 180.58C98.1488 180.927 98.6888 181.4 99.0488 182C99.4221 182.6 99.6088 183.273 99.6088 184.02C99.6088 184.9 99.3888 185.62 98.9488 186.18C98.5088 186.727 97.9954 187.1 97.4088 187.3V187.38C98.1688 187.633 98.7688 188.053 99.2088 188.64C99.6488 189.227 99.8688 189.98 99.8688 190.9C99.8688 191.727 99.6755 192.46 99.2888 193.1C98.9155 193.727 98.3621 194.22 97.6288 194.58C96.9088 194.94 96.0488 195.12 95.0488 195.12C93.4488 195.12 92.1688 194.727 91.2088 193.94C90.2621 193.153 89.7621 191.967 89.7088 190.38H93.0288C93.0421 190.967 93.2088 191.433 93.5288 191.78C93.8488 192.113 94.3154 192.28 94.9288 192.28C95.4488 192.28 95.8488 192.133 96.1288 191.84C96.4221 191.533 96.5688 191.133 96.5688 190.64C96.5688 190 96.3621 189.54 95.9488 189.26C95.5488 188.967 94.9021 188.82 94.0088 188.82H93.3688V186.04H94.0088C94.6888 186.04 95.2355 185.927 95.6488 185.7C96.0755 185.46 96.2888 185.04 96.2888 184.44C96.2888 183.96 96.1555 183.587 95.8888 183.32C95.6221 183.053 95.2555 182.92 94.7888 182.92C94.2821 182.92 93.9021 183.073 93.6488 183.38C93.4088 183.687 93.2688 184.067 93.2288 184.52H89.8888Z" fill="white"/>
<path d="M150.137 238.58V235.4H155.677V250H152.117V238.58H150.137ZM157.897 247.26C158.35 246.9 158.557 246.733 158.517 246.76C159.824 245.68 160.85 244.793 161.597 244.1C162.357 243.407 162.997 242.68 163.517 241.92C164.037 241.16 164.297 240.42 164.297 239.7C164.297 239.153 164.17 238.727 163.917 238.42C163.664 238.113 163.284 237.96 162.777 237.96C162.27 237.96 161.87 238.153 161.577 238.54C161.297 238.913 161.157 239.447 161.157 240.14H157.857C157.884 239.007 158.124 238.06 158.577 237.3C159.044 236.54 159.65 235.98 160.397 235.62C161.157 235.26 161.997 235.08 162.917 235.08C164.504 235.08 165.697 235.487 166.497 236.3C167.31 237.113 167.717 238.173 167.717 239.48C167.717 240.907 167.23 242.233 166.257 243.46C165.284 244.673 164.044 245.86 162.537 247.02H167.937V249.8H157.897V247.26Z" fill="white"/>
<defs>
<filter id="filter0_d" x="0.180511" y="0.80101" width="380.421" height="376.211" filterUnits="userSpaceOnUse" color-interpolation-filters="sRGB">
<feFlood flood-opacity="0" result="BackgroundImageFix"/>
<feColorMatrix in="SourceAlpha" type="matrix" values="0 0 0 0 0 0 0 0 0 0 0 0 0 0 0 0 0 0 127 0"/>
<feOffset dy="50.4408"/>
<feGaussianBlur stdDeviation="49.3199"/>
<feColorMatrix type="matrix" values="0 0 0 0 0.0196078 0 0 0 0 0.858824 0 0 0 0 0.419608 0 0 0 0.1 0"/>
<feBlend mode="normal" in2="BackgroundImageFix" result="effect1_dropShadow"/>
<feBlend mode="normal" in="SourceGraphic" in2="effect1_dropShadow" result="shape"/>
</filter>
<linearGradient id="paint0_linear" x1="27" y1="175.304" x2="174.829" y2="174.079" gradientUnits="userSpaceOnUse">
<stop stop-color="#5CFFA7" stop-opacity="0.3"/>
<stop offset="1" stop-color="#FFD17B"/>
</linearGradient>
<linearGradient id="paint1_linear" x1="176.027" y1="248.982" x2="136.127" y2="180.918" gradientUnits="userSpaceOnUse">
<stop stop-color="#E5E5E5"/>
<stop offset="1" stop-color="#FFDB80" stop-opacity="0.76"/>
</linearGradient>
<linearGradient id="paint2_linear" x1="190.391" y1="49" x2="190.391" y2="227.931" gradientUnits="userSpaceOnUse">
<stop stop-color="#05DB6B"/>
<stop offset="1" stop-color="#09A854"/>
</linearGradient>
</defs>
</svg>
