<svg width="18" height="13" viewBox="0 0 18 13" fill="none" xmlns="http://www.w3.org/2000/svg">
<path d="M16.3125 0H1.68751C0.75696 0 0 0.728924 0 1.62501V11.375C0 12.2711 0.75696 13 1.68751 13H16.3125C17.243 13 18 12.2711 18 11.375V1.62501C18 0.728924 17.243 0 16.3125 0ZM16.3125 1.08333C16.3889 1.08333 16.4616 1.0986 16.5281 1.12526L9 7.40824L1.47188 1.12526C1.53834 1.09863 1.61105 1.08333 1.68747 1.08333H16.3125ZM16.3125 11.9166H1.68751C1.37715 11.9166 1.125 11.6739 1.125 11.375V2.26981L8.6314 8.53441C8.73743 8.62273 8.86872 8.66665 9 8.66665C9.13128 8.66665 9.26256 8.62277 9.3686 8.53441L16.875 2.26981V11.375C16.875 11.6739 16.6228 11.9166 16.3125 11.9166Z" fill="#31443E"/>
</svg>
