<svg width="30" height="30" viewBox="0 0 30 30" fill="none" xmlns="http://www.w3.org/2000/svg">
<path fill-rule="evenodd" clip-rule="evenodd" d="M15 0C6.71573 0 0 6.71573 0 15C0 23.2843 6.71573 30 15 30C23.2843 30 30 23.2843 30 15C30 6.71573 23.2843 0 15 0ZM9 9.38503C9 8.50998 9.71005 7.79993 10.5851 7.79993C11.4596 7.79993 12.1697 8.50998 12.1702 9.38503C12.1702 10.2601 11.4601 10.985 10.5851 10.985C9.71005 10.985 9 10.2601 9 9.38503ZM22.2 20.9994V16.1583C22.2 13.79 21.6901 11.9656 18.9214 11.9656C17.5905 11.9656 16.6973 12.696 16.3326 13.3885H16.2941V12.1867H13.669V20.9994H16.4025V16.6357C16.4025 15.4867 16.6203 14.3757 18.0431 14.3757C19.445 14.3757 19.466 15.6869 19.466 16.7094V20.9999L22.2 20.9994ZM9.2178 12.1873H11.9546V20.9999H9.2178V12.1873Z" fill="#31443E"/>
</svg>
