<svg width="482" height="367" viewBox="0 0 482 367" fill="none" xmlns="http://www.w3.org/2000/svg">
<path d="M481.882 175.084C481.983 182.413 476.762 191.348 470.337 195.062L443.332 210.824L453.471 216.647V221.164L205.001 366.632L0 249.073V244.656L205.001 362.115L0 244.556L248.571 99.1875L258.108 104.609L260.016 103.504V13.3524L282.704 0L305.594 13.1514V50.1961L316.336 43.8714L339.225 57.0227V87.3414L344.847 90.6545L349.967 87.6428L372.857 100.794V106.817L478.369 167.655H478.469C480.577 168.86 481.882 171.47 481.882 175.084Z" fill="#ECF0F1"/>
<path d="M453.479 216.646L453.459 221.152L204.962 366.594L204.983 362.088L453.479 216.646Z" fill="#D4D6D6"/>
<path d="M204.983 362.088L204.962 366.594L0.0158691 249.113L0.03645 244.607L204.983 362.088Z" fill="#D4D6D6"/>
<path d="M453.496 216.642L204.995 362.085L0.0388184 244.602L248.54 99.1595L453.496 216.642Z" fill="#ECF0F1"/>
<path d="M14.964 244.534L248.579 107.805L438.572 216.71L204.955 353.44L14.964 244.534Z" fill="white"/>
<path d="M272.002 127.443L245.594 142.899L218.941 127.62L245.349 112.164L272.002 127.443Z" fill="#AEB3BE"/>
<path d="M374.447 244.671L370.691 246.869L232.334 167.56L236.091 165.361L374.447 244.671Z" fill="#AEB3BE"/>
<path d="M221.503 156.999L195.095 172.455L168.442 157.177L194.85 141.72L221.503 156.999Z" fill="#AEB3BE"/>
<path d="M363.11 251.306L359.376 253.492L221.02 174.182L224.754 171.996L363.11 251.306Z" fill="#AEB3BE"/>
<path d="M351.796 257.928L348.039 260.127L209.683 180.817L213.44 178.618L351.796 257.928Z" fill="#AEB3BE"/>
<path d="M171.004 186.555L144.597 202.011L117.944 186.733L144.351 171.277L171.004 186.555Z" fill="#AEB3BE"/>
<path d="M301.297 287.484L297.541 289.683L159.185 210.373L162.941 208.175L301.297 287.484Z" fill="#AEB3BE"/>
<path d="M312.612 280.862L308.878 283.048L170.522 203.738L174.255 201.553L312.612 280.862Z" fill="#AEB3BE"/>
<path d="M323.948 274.227L320.192 276.426L181.836 197.116L185.592 194.917L323.948 274.227Z" fill="#AEB3BE"/>
<path d="M402.295 228.372L398.538 230.571L260.182 151.261L263.938 149.062L402.295 228.372Z" fill="#AEB3BE"/>
<path d="M413.609 221.75L409.875 223.936L271.519 144.626L275.253 142.44L413.609 221.75Z" fill="#AEB3BE"/>
<path d="M424.946 215.115L421.189 217.313L282.833 138.004L286.59 135.805L424.946 215.115Z" fill="#AEB3BE"/>
<path d="M478.791 176.87C478.808 182.261 475.059 188.804 470.378 191.536L204.764 345.323L23.1608 240.651L288.774 86.8632C293.455 84.1314 297.205 77.5891 297.144 72.1978C297.136 69.5249 296.209 67.6428 294.673 66.7706L476.276 171.443C477.813 172.315 478.739 174.197 478.791 176.87Z" fill="#ECF0F1"/>
<path d="M37.5934 240.635L292.391 93.1108C297.098 90.3642 300.977 85.3183 302.952 79.8763L471.572 177.065C471.545 179.767 469.169 183.883 466.738 185.301L204.756 336.986L37.5934 240.635Z" fill="white"/>
<path d="M465.064 177.133L283.46 72.4608L281.544 70.7679L463.148 175.44L465.064 177.133Z" fill="#D4D6D6"/>
<path d="M478.5 167.668C476.392 166.447 473.456 166.631 470.219 168.482C467.637 169.98 465.19 172.398 463.14 175.429L281.536 70.7567C283.587 67.7259 286.034 65.3074 288.615 63.8094C291.853 61.9588 294.789 61.7742 296.896 62.9951L478.5 167.668Z" fill="#ECF0F1"/>
<path d="M204.764 348.891L23.1603 244.219L23.1392 240.65L204.743 345.322L204.764 348.891Z" fill="#D4D6D6"/>
<path d="M470.227 168.485C476.623 164.765 481.854 167.724 481.898 175.056C481.941 182.387 476.781 191.389 470.385 195.109L204.764 348.891L204.743 345.322L470.363 191.54C475.056 188.811 478.801 182.245 478.769 176.875C478.738 171.505 474.941 169.325 470.248 172.054C468.348 173.158 466.565 174.905 465.064 177.133L463.148 175.44C465.177 172.389 467.629 169.995 470.227 168.485Z" fill="#D4D6D6"/>
<path d="M305.556 13.1708L305.584 119.83L282.916 133.098L282.889 26.438L305.556 13.1708Z" fill="#30B265"/>
<path d="M282.889 26.438L282.916 133.097L260.042 119.985L260.014 13.3254L282.889 26.438Z" fill="#2EBF69"/>
<path d="M305.595 13.1708L282.906 26.4227L260.017 13.3718L282.706 0.0194702L305.595 13.1708Z" fill="#2ECC71"/>
<path d="M339.224 56.9869L339.176 139.086L316.508 152.353L316.556 70.254L339.224 56.9869Z" fill="#77C6D8"/>
<path d="M316.556 70.254L316.508 152.353L293.61 139.227L293.658 57.1282L316.556 70.254Z" fill="#7CCFE8"/>
<path d="M339.224 56.9869L316.556 70.254L293.658 57.1281L316.326 43.861L339.224 56.9869Z" fill="#84DBFF"/>
<path d="M372.892 100.803L372.847 159.293L350.1 171.609L350.224 114.07L372.892 100.803Z" fill="#7D5193"/>
<path d="M350.224 114.07L350.1 171.609L327.202 158.483L327.326 100.944L350.224 114.07Z" fill="#8C56A5"/>
<path d="M372.892 100.803L350.224 114.07L327.326 100.944L349.994 87.6772L372.892 100.803Z" fill="#9B59B6"/>
<path d="M406.536 144.606L406.336 177.584L383.668 190.851L383.869 157.873L406.536 144.606Z" fill="#F7A712"/>
<path d="M383.869 157.873L383.668 190.851L360.77 177.725L360.97 144.747L383.869 157.873Z" fill="#FCB228"/>
<path d="M406.536 144.606L383.869 157.873L360.97 144.747L383.638 131.48L406.536 144.606Z" fill="#FFC049"/>
<path d="M440.167 176.434L439.928 196.84L417.26 210.107L417.499 189.701L440.167 176.434Z" fill="#30B265"/>
<path d="M417.499 189.701L417.26 210.107L394.362 196.981L394.601 176.576L417.499 189.701Z" fill="#2EBF69"/>
<path d="M440.167 176.434L417.499 189.701L394.601 176.576L417.268 163.309L440.167 176.434Z" fill="#2ECC71"/>
<path d="M145.046 216.979L89.2309 249.647L81.0608 244.964L136.876 212.296L145.046 216.979Z" fill="#84DBFF"/>
<path d="M213.383 256.152L157.568 288.82L149.38 284.127L205.196 251.459L213.383 256.152Z" fill="#2ECC71"/>
<path d="M177.096 257.583L140.471 279.02L132.3 274.336L168.926 252.9L177.096 257.583Z" fill="#FCB228"/>
<path d="M243.54 258.289L174.648 298.611L166.46 293.918L235.353 253.596L243.54 258.289Z" fill="#4E90F9"/>
<path d="M151.552 232.979L106.328 259.448L98.1407 254.755L143.365 228.286L151.552 232.979Z" fill="#2ECC71"/>
<path d="M179.223 236.571L123.408 269.239L115.238 264.555L171.053 231.887L179.223 236.571Z" fill="#4E90F9"/>
<path d="M160.5 185.577L153.106 199.21L146.983 195.7L67.0398 242.49L178.962 306.647L185.007 303.109L192.656 316.686L169.12 312.407L175.182 308.859L59.4412 242.513L143.165 193.511L137.059 190.011L160.5 185.577Z" fill="#ECF0F1"/>
<path d="M267.13 139.279C278.164 145.603 278.254 155.957 267.331 162.35L263.228 159.998C271.919 154.911 271.847 146.688 263.068 141.656C254.289 136.623 240.092 136.667 231.402 141.754C222.711 146.841 222.783 155.064 231.562 160.096L227.482 162.484C216.429 156.148 216.339 145.795 227.28 139.391C238.203 132.998 256.077 132.943 267.13 139.279Z" fill="#2EBF69"/>
<path d="M232.584 180.31L228.504 182.698L192.575 162.102L196.655 159.714L232.584 180.31Z" fill="#ECF0F1"/>
<path d="M219.685 187.86L215.623 190.237L179.694 169.641L183.756 167.264L219.685 187.86Z" fill="#ECF0F1"/>
<path d="M206.786 195.409L202.724 197.786L166.795 177.191L170.857 174.813L206.786 195.409Z" fill="#ECF0F1"/>
<path d="M314.371 257.08L310.309 259.457L274.38 238.861L278.442 236.484L314.371 257.08Z" fill="#ECF0F1"/>
<path d="M327.27 249.53L323.208 251.908L287.279 231.312L291.341 228.935L327.27 249.53Z" fill="#ECF0F1"/>
<path d="M340.169 241.981L336.089 244.369L300.16 223.773L304.24 221.385L340.169 241.981Z" fill="#ECF0F1"/>
<path d="M374.715 200.949C385.749 207.274 385.839 217.627 374.916 224.02L370.813 221.669C379.504 216.582 379.432 208.359 370.653 203.326C361.874 198.294 347.678 198.338 338.987 203.425C330.296 208.511 330.368 216.734 339.147 221.767L335.067 224.155C324.033 217.83 323.942 207.476 334.884 201.073C345.807 194.68 363.681 194.624 374.715 200.949Z" fill="#2EBF69"/>
<path d="M286.367 211.14L282.287 213.528L246.358 192.932L250.438 190.544L286.367 211.14Z" fill="#ECF0F1"/>
<path d="M273.468 218.69L269.407 221.067L233.477 200.471L237.539 198.094L273.468 218.69Z" fill="#ECF0F1"/>
<path d="M260.57 226.239L256.508 228.617L220.578 208.021L224.64 205.643L260.57 226.239Z" fill="#ECF0F1"/>
<path d="M320.913 170.109C331.947 176.433 332.037 186.787 321.114 193.18L317.011 190.828C325.702 185.741 325.63 177.518 316.851 172.486C308.072 167.453 293.876 167.497 285.185 172.584C276.494 177.671 276.566 185.894 285.345 190.926L281.265 193.314C270.212 186.979 270.122 176.625 281.063 170.221C291.986 163.828 309.86 163.773 320.913 170.109Z" fill="#FCB228"/>
</svg>
