<svg width="482" height="367" viewBox="0 0 482 367" fill="none" xmlns="http://www.w3.org/2000/svg">
<path d="M0.00656128 178.114L0.0728203 198.512C0.0728203 201.14 1.92737 203.831 5.56989 205.833L293.596 363.95C301.013 368.017 313.133 368.017 320.617 363.95L476.253 279.041C480.028 276.976 481.882 274.285 481.882 271.657L481.816 251.197C481.816 253.887 479.962 256.578 476.187 258.643L320.551 343.551C313.067 347.619 300.947 347.619 293.53 343.551L5.50363 185.435C1.86121 183.432 0.00656128 180.742 0.00656128 178.114Z" fill="#D4D6D6"/>
<path d="M5.6233 170.673C-1.81877 174.733 -1.90029 181.352 5.53535 185.435L293.511 343.547C300.947 347.629 313.085 347.63 320.527 343.57L476.218 258.645C483.702 254.563 483.7 247.943 476.264 243.861L188.288 85.7487C180.853 81.6663 168.799 81.6662 161.314 85.7486L5.6233 170.673Z" fill="#ECF0F1"/>
<path d="M73.1972 148.299L120.169 122.656L117.065 121.048L70.1926 146.596L73.1972 148.299Z" fill="#D4D6D6"/>
<path d="M23.521 185.013L294.438 333.762C301.349 337.547 312.766 337.547 319.777 333.762L458.29 258.157C465.301 254.372 465.301 248.127 458.391 244.342L187.473 95.5937C180.463 91.7139 169.045 91.7139 162.034 95.5937L123.776 116.505L128.983 119.344C132.389 121.142 132.288 124.17 128.883 126.062L79.307 153.125C76.0017 154.923 70.4934 154.923 67.0879 153.125L61.8797 150.192L23.6213 171.103C16.5101 174.889 16.5101 181.133 23.521 185.013Z" fill="white"/>
<path d="M319.504 300.65L323.15 302.651L391.42 265.413L387.774 263.411L319.504 300.65Z" fill="#ECF0F1"/>
<path d="M298.009 324.978L301.655 326.98L331.589 310.652L327.943 308.65L298.009 324.978Z" fill="#ECF0F1"/>
<path d="M286.547 318.627L290.192 320.629L316.55 306.252L312.904 304.25L286.547 318.627Z" fill="#ECF0F1"/>
<path d="M413.2 262.145L416.846 264.147L443.202 249.77L439.557 247.768L413.2 262.145Z" fill="#ECF0F1"/>
<path d="M398.16 257.746L401.806 259.747L431.74 243.419L428.094 241.417L398.16 257.746Z" fill="#ECF0F1"/>
<path d="M338.329 302.985L341.975 304.986L410.245 267.747L406.599 265.746L338.329 302.985Z" fill="#ECF0F1"/>
<path d="M308.236 294.299L311.882 296.301L380.151 259.062L376.506 257.06L308.236 294.299Z" fill="#ECF0F1"/>
<path d="M275.278 312.277L278.924 314.278L305.281 299.901L301.635 297.9L275.278 312.277Z" fill="#ECF0F1"/>
<path d="M386.892 251.395L390.537 253.397L420.472 237.068L416.826 235.067L386.892 251.395Z" fill="#ECF0F1"/>
<path d="M275.694 276.596L279.34 278.597L347.609 241.359L343.963 239.357L275.694 276.596Z" fill="#ECF0F1"/>
<path d="M254.198 300.924L257.844 302.926L287.778 286.597L284.133 284.596L254.198 300.924Z" fill="#ECF0F1"/>
<path d="M242.736 294.573L246.382 296.575L272.739 282.198L269.093 280.196L242.736 294.573Z" fill="#ECF0F1"/>
<path d="M369.389 238.091L373.035 240.093L399.392 225.716L395.746 223.714L369.389 238.091Z" fill="#ECF0F1"/>
<path d="M354.349 233.691L357.995 235.693L387.929 219.365L384.284 217.363L354.349 233.691Z" fill="#ECF0F1"/>
<path d="M294.519 278.93L298.164 280.932L366.434 243.693L362.788 241.691L294.519 278.93Z" fill="#ECF0F1"/>
<path d="M264.426 270.245L268.071 272.247L336.341 235.008L332.695 233.006L264.426 270.245Z" fill="#ECF0F1"/>
<path d="M231.468 288.223L235.113 290.224L261.471 275.847L257.825 273.846L231.468 288.223Z" fill="#ECF0F1"/>
<path d="M343.081 227.341L346.727 229.343L376.661 213.014L373.015 211.013L343.081 227.341Z" fill="#ECF0F1"/>
<path d="M231.883 252.542L235.529 254.543L303.799 217.304L300.153 215.303L231.883 252.542Z" fill="#ECF0F1"/>
<path d="M210.388 276.87L214.033 278.872L243.968 262.543L240.322 260.542L210.388 276.87Z" fill="#ECF0F1"/>
<path d="M198.925 270.519L202.571 272.521L228.928 258.144L225.282 256.142L198.925 270.519Z" fill="#ECF0F1"/>
<path d="M325.578 214.037L329.224 216.038L355.581 201.662L351.935 199.66L325.578 214.037Z" fill="#ECF0F1"/>
<path d="M310.539 209.637L314.185 211.639L344.119 195.311L340.473 193.309L310.539 209.637Z" fill="#ECF0F1"/>
<path d="M250.708 254.876L254.354 256.878L322.623 219.639L318.977 217.637L250.708 254.876Z" fill="#ECF0F1"/>
<path d="M220.615 246.191L224.261 248.193L292.53 210.954L288.884 208.952L220.615 246.191Z" fill="#ECF0F1"/>
<path d="M187.657 264.169L191.303 266.17L217.66 251.793L214.014 249.792L187.657 264.169Z" fill="#ECF0F1"/>
<path d="M299.27 203.287L302.916 205.289L332.85 188.96L329.205 186.959L299.27 203.287Z" fill="#ECF0F1"/>
<path d="M188.072 228.488L191.718 230.489L259.988 193.25L256.342 191.249L188.072 228.488Z" fill="#ECF0F1"/>
<path d="M166.577 252.816L170.223 254.818L200.157 238.489L196.511 236.488L166.577 252.816Z" fill="#ECF0F1"/>
<path d="M155.115 246.465L158.76 248.467L185.118 234.09L181.472 232.088L155.115 246.465Z" fill="#ECF0F1"/>
<path d="M281.768 189.983L285.414 191.984L311.77 177.607L308.125 175.606L281.768 189.983Z" fill="#ECF0F1"/>
<path d="M266.728 185.583L270.374 187.585L300.308 171.257L296.662 169.255L266.728 185.583Z" fill="#ECF0F1"/>
<path d="M206.897 230.822L210.543 232.824L278.813 195.585L275.167 193.583L206.897 230.822Z" fill="#ECF0F1"/>
<path d="M176.804 222.137L180.45 224.139L248.72 186.9L245.074 184.898L176.804 222.137Z" fill="#ECF0F1"/>
<path d="M143.846 240.114L147.492 242.116L173.849 227.739L170.203 225.737L143.846 240.114Z" fill="#ECF0F1"/>
<path d="M255.46 179.233L259.106 181.234L289.04 164.906L285.394 162.904L255.46 179.233Z" fill="#ECF0F1"/>
<path d="M144.262 204.433L147.908 206.435L216.177 169.196L212.531 167.195L144.262 204.433Z" fill="#ECF0F1"/>
<path d="M122.766 228.762L126.412 230.763L156.346 214.435L152.701 212.433L122.766 228.762Z" fill="#ECF0F1"/>
<path d="M111.304 222.411L114.95 224.413L141.307 210.036L137.661 208.034L111.304 222.411Z" fill="#ECF0F1"/>
<path d="M237.957 165.929L241.603 167.93L267.96 153.553L264.314 151.552L237.957 165.929Z" fill="#ECF0F1"/>
<path d="M222.917 161.529L226.563 163.531L256.497 147.203L252.852 145.201L222.917 161.529Z" fill="#ECF0F1"/>
<path d="M163.087 206.768L166.732 208.77L235.002 171.531L231.356 169.529L163.087 206.768Z" fill="#ECF0F1"/>
<path d="M132.994 198.083L136.639 200.084L204.909 162.846L201.263 160.844L132.994 198.083Z" fill="#ECF0F1"/>
<path d="M100.036 216.06L103.681 218.062L130.039 203.685L126.393 201.683L100.036 216.06Z" fill="#ECF0F1"/>
<path d="M211.649 155.179L215.295 157.18L245.229 140.852L241.583 138.85L211.649 155.179Z" fill="#ECF0F1"/>
<path d="M100.451 180.379L104.097 182.381L172.367 145.142L168.721 143.14L100.451 180.379Z" fill="#ECF0F1"/>
<path d="M78.9557 204.708L82.6015 206.709L112.536 190.381L108.89 188.379L78.9557 204.708Z" fill="#ECF0F1"/>
<path d="M67.4933 198.357L71.1391 200.359L97.4963 185.982L93.8505 183.98L67.4933 198.357Z" fill="#ECF0F1"/>
<path d="M194.146 141.874L197.792 143.876L224.149 129.499L220.503 127.498L194.146 141.874Z" fill="#ECF0F1"/>
<path d="M179.107 137.475L182.753 139.477L212.687 123.149L209.041 121.147L179.107 137.475Z" fill="#ECF0F1"/>
<path d="M119.276 182.714L122.922 184.716L191.191 147.477L187.545 145.475L119.276 182.714Z" fill="#ECF0F1"/>
<path d="M89.1829 174.029L92.8287 176.03L161.098 138.791L157.452 136.79L89.1829 174.029Z" fill="#ECF0F1"/>
<path d="M56.225 192.006L59.8708 194.008L86.228 179.631L82.5821 177.629L56.225 192.006Z" fill="#ECF0F1"/>
<path d="M167.838 131.124L171.484 133.126L201.418 116.798L197.773 114.796L167.838 131.124Z" fill="#ECF0F1"/>
<path d="M308.141 173.867C307.615 173.768 306.932 173.867 306.195 174.265L140.881 264.43C139.041 265.423 137.516 267.907 137.516 269.894L137.726 341.032C137.779 342.026 138.147 342.721 138.725 343.069L131.311 338.996C130.733 338.648 130.365 337.952 130.365 336.959L130.102 265.82C130.102 263.834 131.627 261.35 133.467 260.356L298.782 170.191C299.728 169.695 300.569 169.645 301.147 169.993L308.141 173.867Z" fill="#2ECC71"/>
<path d="M306.189 174.263C308.035 173.255 309.551 174.071 309.557 176.076L309.77 247.181C309.776 249.222 308.27 251.65 306.424 252.657L291.974 260.54L295.547 278.067L267.131 274.09L141.119 342.826C139.273 343.833 137.758 343.053 137.752 341.012L137.538 269.907C137.532 267.902 139.038 265.438 140.884 264.431L306.189 174.263Z" fill="#2EBF69"/>
<path d="M301.169 214.966L301.182 219.121L193.116 278.067L193.104 273.912L301.169 214.966Z" fill="white"/>
<path d="M301.132 202.429L301.144 206.583L193.078 265.53L193.066 261.375L301.132 202.429Z" fill="white"/>
<path d="M301.094 189.928L301.107 194.046L193.041 252.993L193.028 248.874L301.094 189.928Z" fill="white"/>
<path d="M301.207 227.503L301.219 231.622L193.154 290.568L193.141 286.45L301.207 227.503Z" fill="white"/>
<path d="M261.597 261.667L261.609 265.785L193.191 303.105L193.179 298.987L261.597 261.667Z" fill="white"/>
<path d="M164.437 268.23C176.321 261.747 185.988 266.952 186.027 279.89C186.065 292.755 176.462 308.471 164.577 314.953C152.727 321.417 143.027 316.231 142.988 303.366C142.95 290.428 152.587 274.694 164.437 268.23Z" fill="white"/>
<path d="M163.32 274.205C166.945 272.227 169.885 273.81 169.897 277.719C169.909 281.654 166.988 286.433 163.363 288.411C159.737 290.388 156.798 288.806 156.786 284.87C156.774 280.961 159.695 276.182 163.32 274.205Z" fill="#3C2DA1"/>
<path d="M163.371 291.133C170.075 287.476 175.481 290.441 175.503 297.585L151.342 310.763C151.321 303.62 156.691 294.777 163.371 291.133Z" fill="#3C2DA1"/>
<path d="M193.953 194.057L186.541 189.988L186.46 162.945L193.871 167.014L193.953 194.057Z" fill="#F6A712"/>
<path d="M349.814 4.09889C349.288 3.99977 348.605 4.09889 347.868 4.4964L182.554 94.6612C180.714 95.6548 179.189 98.1387 179.189 100.126L179.399 171.264C179.452 172.257 179.82 172.953 180.398 173.301L172.984 169.227C172.406 168.879 172.038 168.184 172.038 167.19L171.775 96.052C171.775 94.0652 173.3 91.5813 175.14 90.5876L340.455 0.42284C341.401 -0.0737874 342.242 -0.123581 342.821 0.224228L349.814 4.09889Z" fill="#F6A712"/>
<path d="M347.862 4.49413C349.708 3.48694 351.224 4.30292 351.23 6.30745L351.444 77.413C351.45 79.4539 349.944 81.8817 348.097 82.8888L218.714 153.463L193.952 194.057L193.871 167.014L182.793 173.057C180.946 174.065 179.431 173.285 179.425 171.244L179.211 100.138C179.205 98.134 180.711 95.67 182.558 94.6628L347.862 4.49413Z" fill="#FCB228"/>
<path d="M342.843 45.1974L342.855 49.3523L234.789 108.299L234.777 104.144L342.843 45.1974Z" fill="white"/>
<path d="M342.805 32.6601L342.817 36.8149L234.752 95.7615L234.739 91.6067L342.805 32.6601Z" fill="white"/>
<path d="M342.768 20.1592L342.78 24.2777L234.714 83.2243L234.702 79.1059L342.768 20.1592Z" fill="white"/>
<path d="M342.88 57.7347L342.893 61.8532L234.827 120.8L234.814 116.681L342.88 57.7347Z" fill="white"/>
<path d="M303.27 91.8987L303.283 96.0171L234.864 133.337L234.852 129.219L303.27 91.8987Z" fill="white"/>
<path d="M206.11 98.4616C217.995 91.9791 227.661 97.1834 227.7 110.122C227.739 122.987 218.135 138.702 206.251 145.185C194.4 151.649 184.7 146.463 184.662 133.598C184.623 120.659 194.26 104.926 206.11 98.4616Z" fill="white"/>
<path d="M205.997 104.37C209.623 102.392 212.562 103.975 212.574 107.883C212.586 111.819 209.665 116.598 206.04 118.576C202.415 120.553 199.475 118.971 199.463 115.035C199.452 111.126 202.372 106.347 205.997 104.37Z" fill="#3C2DA1"/>
<path d="M206.048 121.298C212.753 117.641 218.159 120.606 218.18 127.749L194.02 140.928C193.998 133.785 199.369 124.942 206.048 121.298Z" fill="#3C2DA1"/>
</svg>
