<svg width="327" height="415" viewBox="0 0 327 415" fill="none" xmlns="http://www.w3.org/2000/svg">
<path d="M260.863 325.909L239.543 336.957L240.861 396.816L279.87 415L301.191 403.952L300.029 351.155C286.724 343.252 273.601 334.743 260.863 325.909Z" fill="#ECF0F1"/>
<path d="M183.405 264.62L162.085 275.668L163.963 360.972L202.973 379.155L224.294 368.108L222.74 297.561C209.177 286.832 196.064 275.81 183.405 264.62Z" fill="#ECF0F1"/>
<path d="M8.18896 286.469L46.7287 305.361L68.3243 294.705L68.8321 142.647C53.1558 123.046 40.1501 105.772 30.398 92.1977L8.80187 102.854L8.18896 286.469Z" fill="#ECF0F1"/>
<path d="M84.1597 323.71L122.7 342.603L144.296 331.947L144.641 228.432C130.906 214.307 118.085 200.374 106.177 186.89L84.5811 197.546L84.1597 323.71Z" fill="#ECF0F1"/>
<path d="M21.3208 0L0 11.0479L9.27103 58.2448L22.063 51.7409C45.5094 84.0762 161.122 237.442 301.118 320.327L303.832 321.97L325.153 310.922L326.985 296.302L327 296.295L324.302 294.609C192.642 216.56 85.6688 77.4906 54.9059 35.0403L69.2273 27.6193L21.3208 0ZM305.666 307.337L305.661 307.334L311.352 304.391L305.666 307.337ZM303.307 305.91L302.951 305.694C298.017 302.767 293.131 299.73 288.269 296.64C293.121 299.721 297.999 302.751 302.923 305.67L303.307 305.91Z" fill="#ECF0F1"/>
<path d="M239.543 336.958L260.863 325.91C273.601 334.743 286.724 343.252 300.029 351.154L278.708 362.202C265.403 354.3 252.28 345.791 239.543 336.958Z" fill="#9B59B6"/>
<path d="M278.708 362.202L300.028 351.154L301.191 403.952L279.87 415L278.708 362.202Z" fill="#7D5193"/>
<path d="M239.543 336.958C252.28 345.791 265.403 354.3 278.708 362.202L279.87 415L240.861 396.816L239.543 336.958Z" fill="#8C56A5"/>
<path d="M162.085 275.668C174.744 286.858 187.856 297.88 201.42 308.61L202.973 379.156L163.963 360.972L162.085 275.668Z" fill="#2EBF69"/>
<path d="M162.085 275.668L183.405 264.62C196.064 275.81 209.177 286.832 222.74 297.561L201.42 308.609C187.856 297.88 174.744 286.858 162.085 275.668Z" fill="#2ECC71"/>
<path d="M201.42 308.61L222.74 297.562L224.293 368.108L202.973 379.156L201.42 308.61Z" fill="#30B265"/>
<path d="M8.80188 102.854L30.3977 92.1979C40.1501 105.772 53.1559 123.046 68.8322 142.647L47.2362 153.303C31.5602 133.702 18.5543 116.428 8.80188 102.854Z" fill="#FFC049"/>
<path d="M47.2364 153.303L68.8322 142.647L68.3245 294.705L46.7286 305.361L47.2364 153.303Z" fill="#F6A712"/>
<path d="M8.80184 102.854C18.5543 116.428 31.5601 133.702 47.2364 153.303L46.7287 305.361L8.18884 286.469L8.80184 102.854Z" fill="#FCB228"/>
<path d="M84.5811 197.546L106.177 186.89C118.085 200.375 130.906 214.307 144.641 228.432L123.045 239.088C109.31 224.963 96.4893 211.031 84.5811 197.546Z" fill="#84DBFF"/>
<path d="M123.045 239.088L144.641 228.432L144.296 331.947L122.7 342.603L123.045 239.088Z" fill="#77C6D8"/>
<path d="M84.5811 197.546C96.4892 211.03 109.311 224.963 123.045 239.088L122.7 342.603L84.1599 323.71L84.5811 197.546Z" fill="#7CCFE8"/>
<path d="M305.666 307.337L326.986 296.289L325.153 310.922L303.832 321.97L305.666 307.337Z" fill="#30B265"/>
<path d="M0.000244141 11.0482L21.3209 0.000183105L69.2274 27.6194L47.9068 38.6675L0.000244141 11.0482Z" fill="#2ECC71"/>
<path d="M33.4794 46.0344C64.1808 88.4097 171.199 227.582 302.923 305.67L305.622 307.355L327 296.295L324.302 294.609C192.577 216.522 85.5585 77.35 54.857 34.9736L33.4794 46.0344Z" fill="#2ECC71"/>
<path d="M0.000244141 11.0482L47.9068 38.6674L33.5009 46.0551C64.2231 88.3925 171.226 227.545 302.951 305.694L305.666 307.337L303.832 321.97L301.117 320.328C161.121 237.442 45.5093 84.0766 22.0629 51.741L9.27086 58.2448L0.000244141 11.0482Z" fill="#2EBF69"/>
</svg>
