<svg width="512" height="482" viewBox="0 0 512 482" fill="none" xmlns="http://www.w3.org/2000/svg">
<path d="M496.902 369.406C496.902 375.265 493.288 381.124 485.959 385.599L339.487 475.408C324.93 484.25 301.539 484.144 287.183 475.408L25.8618 314.22C18.6339 309.746 15.1197 303.993 15.1197 298.24L15.0192 274.163C14.9193 268.197 18.5334 262.231 25.9623 257.65L172.434 167.947C186.891 159.105 210.282 159.105 224.638 167.947L486.06 329.135C493.288 333.61 496.802 339.469 496.701 345.329L496.902 369.406Z" fill="#384F63"/>
<path d="M496.882 369.421C496.882 375.294 493.268 381.127 486.002 385.601L339.478 475.372C324.946 484.241 301.567 484.161 287.223 475.372L25.8726 314.208C18.682 309.773 15.1055 303.981 15.1055 298.228L15.0678 273.836C15.0678 279.669 18.6067 285.382 25.7975 289.777L287.148 450.981C301.491 459.85 324.871 459.85 339.402 450.981L485.852 361.17C493.118 356.855 496.732 350.982 496.732 345.229L496.882 369.421Z" fill="#D4D6D6"/>
<path d="M25.729 289.796L287.137 450.949C301.518 459.818 324.858 459.898 339.388 450.949L485.904 361.224C500.36 352.356 500.36 337.974 486.055 329.105L224.646 167.952C210.266 159.084 186.925 159.084 172.47 167.952L25.955 257.677C11.4236 266.546 11.3492 280.928 25.729 289.796Z" fill="#ECF0F1"/>
<path d="M52.5321 274.113C46.7667 277.645 46.7363 283.378 52.4642 286.91L291.906 434.573C297.633 438.105 306.96 438.105 312.725 434.573L459.267 344.79C465.032 341.258 465.063 335.525 459.335 331.993L219.894 184.33C214.166 180.798 204.839 180.798 199.074 184.33L52.5321 274.113Z" fill="white"/>
<path d="M246.021 339.146L310.417 378.858L320.256 372.83L255.861 333.117L246.021 339.146Z" fill="#D4D6D6"/>
<path d="M339.309 307.202L383.197 334.267L393.087 328.208L349.199 301.142L339.309 307.202Z" fill="#ECF0F1"/>
<path d="M309.07 318.357L358.954 349.121L368.793 343.092L318.909 312.329L309.07 318.357Z" fill="#D4D6D6"/>
<path d="M277.974 329.047L334.66 364.005L344.55 357.946L287.864 322.987L277.974 329.047Z" fill="#ECF0F1"/>
<path d="M212.909 348.592L286.123 393.743L296.013 387.683L222.799 342.532L212.909 348.592Z" fill="#ECF0F1"/>
<path d="M182.819 350.674L283.444 412.729L427.534 324.448L421.89 320.968L283.43 405.799L188.449 347.224L182.819 350.674Z" fill="#ECF0F1"/>
<path d="M40.3716 310.771C41.0906 310.313 42.097 310.39 43.1749 311L72.0705 328.773C74.2268 330.069 75.8799 333.196 75.8799 335.79C75.8799 337.087 75.4486 338.002 74.802 338.46L76.3112 337.468C76.9583 337.087 77.3896 336.171 77.3896 334.875C77.3896 332.281 75.7365 329.078 73.6517 327.781L44.6845 310.085C43.6061 309.398 42.6002 309.398 41.8812 309.78L40.3716 310.771Z" fill="#31443E"/>
<path d="M43.1842 311.029C41.0272 309.707 39.2776 310.765 39.2708 313.339C39.2637 315.969 41.0021 319.109 43.1591 320.43L72.0713 338.144C74.1823 339.437 75.8859 338.407 75.8929 335.777C75.8997 333.203 74.2075 330.036 72.0964 328.743L43.1842 311.029Z" fill="#425B52"/>
<path d="M83.344 338.222C84.063 337.764 85.0694 337.841 86.1473 338.451L115.043 356.224C117.199 357.52 118.852 360.648 118.852 363.241C118.852 364.538 118.421 365.453 117.774 365.911L119.284 364.919C119.931 364.538 120.362 363.623 120.362 362.326C120.362 359.732 118.709 356.529 116.624 355.232L87.6569 337.536C86.5785 336.849 85.5726 336.849 84.8536 337.231L83.344 338.222Z" fill="#31443E"/>
<path d="M86.1566 338.479C83.9997 337.158 82.25 338.216 82.2432 340.79C82.2362 343.42 83.9745 346.559 86.1315 347.881L115.044 365.595C117.155 366.888 118.858 365.858 118.865 363.228C118.872 360.654 117.18 357.487 115.069 356.193L86.1566 338.479Z" fill="#425B52"/>
<path d="M135.719 278.655C138.528 286.289 144.672 293.526 154.318 299.474C179.504 315.007 219.552 316.163 246.986 302.911L228.875 291.742C211.524 299.012 187.66 297.889 172.333 288.437C167.135 285.232 163.5 281.464 161.478 277.432L135.719 278.655Z" fill="#05DB6B"/>
<path d="M235.71 249.608C251.036 259.059 252.787 273.731 240.849 284.405L258.961 295.574C280.663 278.722 278.858 254.135 253.672 238.603C248.42 235.364 242.575 232.753 236.349 230.771L228.203 245.906C230.94 246.931 233.352 248.154 235.71 249.608Z" fill="#FCB228"/>
<path d="M134 268.312L159.543 267.089C160.223 260.677 164.665 254.464 172.539 249.64C183.38 242.998 198.394 240.453 212.417 242.006L220.4 227.168C197.568 223.897 172.549 227.697 154.695 238.636C141.264 246.864 134.381 257.538 134 268.312Z" fill="#9B59B6"/>
<path d="M319.993 55.5547L319.951 81.1991C319.91 95.2593 311.202 109.32 293.827 120.02L273.745 107.728L273.703 120.02C238.829 141.508 182.123 141.641 146.874 120.241L146.499 120.02C128.792 109.187 119.959 94.9059 120 80.6686L120.042 55.0242C120.042 55.0242 120.084 55.0684 120.084 55.1127C120.042 41.0082 128.75 26.948 146.166 16.2036C181.206 -5.41714 238.079 -5.37288 273.286 16.2036V28.6282L293.452 16.2036C312.285 27.7438 321.035 43.1304 319.785 58.2075C319.868 57.3234 319.993 56.439 319.993 55.5547Z" fill="#ECF0F1"/>
<path d="M273.298 16.1851L273.249 41.8601L209.895 80.9304L209.944 55.2553L273.298 16.1851Z" fill="#7D5193"/>
<path d="M273.298 16.185L209.944 55.2552L146.175 16.1856C181.192 -5.40888 238.098 -5.3813 273.298 16.185Z" fill="#9B59B6"/>
<path d="M320 55.5413L319.951 81.2163C319.913 95.2687 311.205 109.3 293.809 120.028L293.859 94.3529C311.254 83.6249 319.962 69.5936 320 55.5413Z" fill="#F6A712"/>
<path d="M293.859 94.3529L293.809 120.028L230.018 80.9443L230.067 55.2693L293.859 94.3529Z" fill="#FCB228"/>
<path d="M293.444 16.1851C328.689 37.7791 328.875 72.7584 293.859 94.3528L230.067 55.2692L293.444 16.1851Z" fill="#FFC049"/>
<path d="M120.007 80.6785L120.057 55.0035C120.019 69.2366 128.86 83.4905 146.567 94.3395L146.518 120.015C128.81 109.166 119.969 94.9117 120.007 80.6785Z" fill="#77C6D8"/>
<path d="M146.908 94.548L209.892 55.2877C208.343 56.2598 171.727 79.242 146.908 94.548Z" fill="#7CCFE8"/>
<path d="M209.944 55.2554L146.908 94.5483L146.567 94.3396C111.367 72.7734 111.204 37.7524 146.175 16.1858L209.944 55.2554Z" fill="#84DBFF"/>
<path d="M146.908 94.5482L146.859 120.223L146.518 120.015L146.567 94.3395L146.908 94.5482Z" fill="#7CCFE8"/>
<path d="M273.76 94.3387L273.711 120.014C238.83 141.525 182.127 141.622 146.883 120.223L146.932 94.5481C182.177 115.947 238.879 115.85 273.76 94.3387Z" fill="#30B265"/>
<path d="M273.735 94.3387C238.854 115.85 182.152 115.947 146.908 94.548C171.727 79.2419 208.343 56.2598 209.892 55.2877L273.735 94.3387Z" fill="#2ECC71"/>
</svg>
