<svg width="482" height="463" viewBox="0 0 482 463" fill="none" xmlns="http://www.w3.org/2000/svg">
<path d="M330.543 16.1791L330.571 147.395L307.903 163.716L307.875 32.5008L330.543 16.1791Z" fill="#30B265"/>
<path d="M307.875 32.5007L307.903 163.716L285.028 147.585L285 16.3693L307.875 32.5007Z" fill="#2EBF69"/>
<path d="M330.581 16.1792L307.892 32.482L285.003 16.4264L307.692 0L330.581 16.1792Z" fill="#2ECC71"/>
<path d="M364.21 70.0829L364.162 171.084L341.494 187.405L341.542 86.4045L364.21 70.0829Z" fill="#77C6D8"/>
<path d="M341.542 86.4045L341.494 187.405L318.596 171.257L318.644 70.2567L341.542 86.4045Z" fill="#7CCFE8"/>
<path d="M364.21 70.0829L341.542 86.4044L318.644 70.2566L341.312 53.9351L364.21 70.0829Z" fill="#84DBFF"/>
<path d="M397.878 123.987L397.833 195.943L375.086 211.094L375.21 140.308L397.878 123.987Z" fill="#7D5193"/>
<path d="M375.21 140.308L375.086 211.094L352.188 194.946L352.312 124.161L375.21 140.308Z" fill="#8C56A5"/>
<path d="M397.878 123.987L375.21 140.308L352.312 124.16L374.98 107.839L397.878 123.987Z" fill="#9B59B6"/>
<path d="M431.522 177.874L431.322 218.445L408.654 234.767L408.855 194.196L431.522 177.874Z" fill="#F7A712"/>
<path d="M408.855 194.196L408.654 234.767L385.756 218.619L385.956 178.048L408.855 194.196Z" fill="#FCB228"/>
<path d="M431.522 177.874L408.855 194.196L385.956 178.048L408.624 161.726L431.522 177.874Z" fill="#FFC049"/>
<path d="M465.153 217.03L464.914 242.134L442.246 258.455L442.485 233.352L465.153 217.03Z" fill="#30B265"/>
<path d="M442.485 233.352L442.246 258.455L419.348 242.308L419.587 217.204L442.485 233.352Z" fill="#2EBF69"/>
<path d="M465.153 217.03L442.485 233.352L419.587 217.204L442.255 200.883L465.153 217.03Z" fill="#2ECC71"/>
<path d="M0 255.354L276.351 453.664L481.862 308.242L205.511 109.932L0 255.354Z" fill="#ECF0F1"/>
<path d="M68.9572 166.388L69.0719 175.246C69.0766 171.672 70.8495 168.258 74.642 165.622C81.8481 160.511 93.2159 160.378 100.661 164.9L101.797 165.676C104.447 167.548 106.212 169.88 106.967 172.37C107.345 173.456 107.595 174.545 107.594 175.634L107.605 166.776C107.607 165.687 107.356 164.602 106.978 163.512C106.097 161.026 104.459 158.69 101.809 156.822L100.673 156.042C93.2276 151.52 81.8598 151.653 74.6536 156.768C70.8612 159.4 68.9619 162.814 68.9572 166.388Z" fill="#31443E"/>
<path d="M53.7151 171.47L53.7239 180.337C53.7297 186.315 56.2865 192.3 61.3925 197.434L61.3838 188.568C56.2778 183.434 53.721 177.449 53.7151 171.47Z" fill="#31443E"/>
<path d="M59.9219 231.808L59.9306 240.674L180.197 155.572L180.188 146.706L59.9219 231.808Z" fill="#F9BB4A"/>
<path d="M51.05 214.509L51.0589 223.375C51.0657 230.347 53.9287 236.367 59.9306 240.674L59.9219 231.808C53.9201 227.501 51.057 221.48 51.05 214.509Z" fill="#31443E"/>
<path d="M119.318 147.555C103.154 139.157 80.7667 140.145 66.0093 150.519C51.3519 160.894 49.8457 176.949 61.3911 188.559C48.5412 205.849 47.2361 222.646 59.885 231.785L180.155 146.69C167.405 137.551 143.612 138.539 119.318 147.555ZM101.949 176.332C97.1307 179.666 90.3041 180.901 83.9793 179.789C80.4658 179.172 77.1528 177.937 74.5425 176.084L73.5387 175.22C67.214 169.909 67.5148 161.758 74.643 156.694C81.8709 151.631 93.2153 151.507 100.644 155.953L101.85 156.694C104.459 158.67 106.166 161.017 106.969 163.487C108.576 167.933 106.769 172.873 101.949 176.332Z" fill="#425B52"/>
<path d="M26.9963 255.402L276.472 434.433L454.885 308.193L205.389 129.162L26.9963 255.402Z" fill="white"/>
<path d="M0 255.354L0.0207819 264.69L276.371 463L276.351 453.664L0 255.354Z" fill="#D4D6D6"/>
<path d="M276.351 453.664L276.372 463L481.882 317.578L481.862 308.242L276.351 453.664Z" fill="#D4D6D6"/>
<path d="M96.3525 289.841L205.63 367.967L224.287 354.716L115.009 276.59L96.3525 289.841Z" fill="#ECF0F1"/>
<path d="M149.47 230.233L157.895 236.256L176.552 223.005L168.127 216.982L149.47 230.233Z" fill="#ECF0F1"/>
<path d="M168.353 194.941L176.778 200.964L195.435 187.713L187.01 181.689L168.353 194.941Z" fill="#D4D6D6"/>
<path d="M187.236 159.648L195.724 165.716L214.38 152.465L205.893 146.397L187.236 159.648Z" fill="#ECF0F1"/>
<path d="M202.588 170.624L342.571 270.702L361.227 257.451L221.245 157.373L202.588 170.624Z" fill="#ECF0F1"/>
<path d="M183.706 205.916L308.336 295.018L326.992 281.767L202.362 192.665L183.706 205.916Z" fill="#D4D6D6"/>
<path d="M164.823 241.209L274.101 319.335L292.757 306.083L183.48 227.958L164.823 241.209Z" fill="#ECF0F1"/>
<path d="M258.205 344.945L264.009 349.094L377.079 268.784L371.275 264.634L258.205 344.945Z" fill="#ECF0F1"/>
<path d="M271.685 354.582L277.489 358.732L390.56 278.421L384.755 274.271L271.685 354.582Z" fill="#ECF0F1"/>
<path d="M242.638 394.425L248.442 398.575L404.04 288.058L398.236 283.909L242.638 394.425Z" fill="#ECF0F1"/>
<path d="M256.118 404.063L261.923 408.213L417.52 297.696L411.716 293.547L256.118 404.063Z" fill="#ECF0F1"/>
<path d="M269.661 413.745L275.403 417.85L431 307.333L425.259 303.229L269.661 413.745Z" fill="#ECF0F1"/>
<path d="M99.8827 243.573L108.308 249.596L126.964 236.345L118.539 230.322L99.8827 243.573Z" fill="#D4D6D6"/>
<path d="M115.235 254.549L239.865 343.651L258.522 330.4L133.892 241.298L115.235 254.549Z" fill="#D4D6D6"/>
<path d="M81 278.865L89.4249 284.889L108.082 271.637L99.6567 265.614L81 278.865Z" fill="#ECF0F1"/>
</svg>
