<svg width="378" height="482" viewBox="0 0 378 482" fill="none" xmlns="http://www.w3.org/2000/svg">
<path d="M377.076 271.745C377.076 278.674 372.157 287.009 366.234 290.523L37.2491 480.511C34.2374 482.218 31.4261 482.419 29.5187 481.214L3.91879 466.252C1.91085 465.148 0.706143 462.738 0.706143 459.324L0.103786 229.269L0.0032959 210.29C0.0032959 203.362 4.92241 194.926 10.8458 191.412L339.831 1.52378C342.843 -0.283615 345.654 -0.384132 347.661 0.720853L373.061 15.5823C373.161 15.6828 373.161 15.6828 373.161 15.6828C375.169 16.7873 376.373 19.1972 376.373 22.6116V41.5904H376.474L377.076 271.745Z" fill="#3498DB"/>
<path d="M29.4792 481.239L3.89391 466.291C1.9468 465.15 0.738379 462.732 0.738379 459.308L0.0672607 229.251L25.6525 244.132L26.3237 474.256C26.3236 477.68 27.532 480.098 29.4792 481.239Z" fill="#D4D6D6"/>
<path d="M377.031 271.731C377.098 278.647 372.198 287.041 366.223 290.533L37.2665 480.5C31.2243 483.992 26.3237 481.172 26.3237 474.256L25.6525 244.132L376.427 41.6063L377.031 271.731Z" fill="#ECF0F1"/>
<path d="M373.204 15.6865C371.19 14.545 368.438 14.6791 365.417 16.425L36.4609 206.393C30.4859 209.885 25.5852 218.279 25.5852 225.195L25.6524 244.132L0.0671626 229.251L0 210.247C0 203.33 4.90064 194.937 10.8757 191.445L339.832 1.4768C342.853 -0.268746 345.605 -0.403205 347.619 0.738231L373.204 15.6865Z" fill="#31443E"/>
<path d="M365.433 16.4145C371.434 12.9491 376.336 15.7434 376.355 22.6404L376.409 41.6072L25.6636 244.16L25.6099 225.193C25.5903 218.296 30.4608 209.858 36.4615 206.392L365.433 16.4145Z" fill="#425B52"/>
<path d="M362.261 276.767L40.1533 462.773L39.5492 253.062L361.657 67.0566L362.261 276.767Z" fill="white"/>
<path d="M46.6156 208.496C50.6017 206.194 53.7412 208.082 53.7539 212.565C53.7668 217.147 50.6484 222.649 46.6622 224.951C42.6759 227.253 39.4507 225.414 39.4377 220.833C39.425 216.35 42.6293 210.798 46.6156 208.496Z" fill="white"/>
<path d="M123.582 310.308L123.835 399.477L116.377 403.784L116.124 314.615L123.582 310.308Z" fill="#ECF0F1"/>
<path d="M245.241 275.431L245.394 329.278L237.935 333.585L237.783 279.738L245.241 275.431Z" fill="#ECF0F1"/>
<path d="M265.396 236.948L265.625 317.594L258.209 321.877L257.981 241.23L265.396 236.948Z" fill="#D4D6D6"/>
<path d="M285.67 224.976L285.899 305.622L278.441 309.929L278.212 229.283L285.67 224.976Z" fill="#ECF0F1"/>
<path d="M326.175 201.584L326.404 282.23L318.989 286.513L318.76 205.867L326.175 201.584Z" fill="#ECF0F1"/>
<path d="M346.369 161.666L346.678 270.787L339.22 275.094L338.911 165.973L346.369 161.666Z" fill="#D4D6D6"/>
<path d="M305.986 227.998L306.173 293.914L298.715 298.221L298.528 232.305L305.986 227.998Z" fill="#D4D6D6"/>
<path d="M224.913 268.074L225.119 340.986L217.661 345.293L217.455 272.381L224.913 268.074Z" fill="#D4D6D6"/>
<path d="M204.639 279.782L204.845 352.694L197.43 356.976L197.223 284.065L204.639 279.782Z" fill="#ECF0F1"/>
<path d="M143.757 278.672L144.066 387.793L136.651 392.075L136.342 282.954L143.757 278.672Z" fill="#D4D6D6"/>
<path d="M103.281 312.557L103.561 411.185L96.1026 415.492L95.8231 316.864L103.281 312.557Z" fill="#D4D6D6"/>
<path d="M96.1667 241.167L120.047 259.599L149.207 217.199L190.302 235.509L237.716 180.396L271.656 188.626L343.249 106.276L345.363 109.94L271.203 195.254L237.305 186.998L189.592 242.482L148.97 224.441L119.382 267.533L95.115 248.831L60.1201 292.627L57.7064 289.284L96.1667 241.167Z" fill="#D4D6D6"/>
<path d="M97.4936 179.115C101.48 176.813 104.619 178.7 104.632 183.184C104.645 187.765 101.526 193.267 97.5401 195.569C93.5539 197.871 90.3288 196.033 90.3158 191.451C90.3031 186.968 93.5073 181.417 97.4936 179.115Z" fill="white"/>
<path d="M72.033 193.818C76.0622 191.491 79.2016 193.379 79.2144 197.862C79.2273 202.444 76.1087 207.946 72.0797 210.272C68.0936 212.574 64.8683 210.736 64.8554 206.154C64.8426 201.671 68.047 196.12 72.033 193.818Z" fill="white"/>
<path d="M62.776 335.948L63.0555 434.576L55.5974 438.883L55.3179 340.256L62.776 335.948Z" fill="#D4D6D6"/>
<path d="M83.0769 333.699L83.3297 422.868L75.8715 427.175L75.6188 338.006L83.0769 333.699Z" fill="#ECF0F1"/>
<path d="M164.134 303.174L164.34 376.085L156.882 380.392L156.675 307.481L164.134 303.174Z" fill="#ECF0F1"/>
<path d="M184.361 275.208L184.614 364.377L177.156 368.684L176.903 279.515L184.361 275.208Z" fill="#D4D6D6"/>
<path d="M59.2239 283.002C62.2038 281.281 64.5506 282.693 64.5602 286.044C64.5699 289.469 62.2386 293.582 59.2587 295.303C56.2788 297.024 53.8678 295.649 53.8581 292.224C53.8486 288.873 56.2441 284.723 59.2239 283.002Z" fill="#05DB6B"/>
<path d="M95.8379 239.332C98.8178 237.611 101.165 239.023 101.174 242.374C101.184 245.799 98.8526 249.912 95.8728 251.633C92.8928 253.353 90.4818 251.979 90.4721 248.554C90.4626 245.203 92.858 241.053 95.8379 239.332Z" fill="#4E90F9"/>
<path d="M119.994 256.912C122.974 255.191 125.321 256.602 125.33 259.953C125.34 263.378 123.009 267.491 120.029 269.212C117.049 270.933 114.638 269.559 114.628 266.134C114.619 262.782 117.014 258.632 119.994 256.912Z" fill="#F1C40F"/>
<path d="M150.525 214.541C153.505 212.82 155.852 214.231 155.861 217.583C155.871 221.008 153.54 225.121 150.56 226.841C147.58 228.562 145.169 227.188 145.159 223.763C145.15 220.412 147.545 216.262 150.525 214.541Z" fill="#FA09FF"/>
<path d="M189.98 233.022C192.96 231.301 195.307 232.712 195.316 236.064C195.326 239.489 192.995 243.602 190.015 245.322C187.035 247.043 184.624 245.669 184.614 242.244C184.605 238.893 187 234.743 189.98 233.022Z" fill="#FFBF49"/>
<path d="M238.261 177.416C241.241 175.696 243.588 177.107 243.597 180.458C243.607 183.883 241.276 187.996 238.296 189.717C235.316 191.438 232.905 190.063 232.895 186.639C232.886 183.287 235.281 179.137 238.261 177.416Z" fill="#4E90F9"/>
<path d="M271.616 186.41C274.596 184.689 276.943 186.1 276.952 189.451C276.962 192.876 274.631 196.989 271.651 198.71C268.671 200.431 266.26 199.057 266.25 195.632C266.241 192.28 268.636 188.13 271.616 186.41Z" fill="#FFBF49"/>
<path d="M345.378 101.245C348.358 99.5243 350.705 100.936 350.714 104.287C350.724 107.712 348.393 111.825 345.413 113.545C342.433 115.266 340.022 113.892 340.012 110.467C340.003 107.116 342.398 102.966 345.378 101.245Z" fill="#2EBF69"/>
</svg>
