<svg width="150" height="35" viewBox="0 0 150 35" fill="none" xmlns="http://www.w3.org/2000/svg">
<path d="M58.5061 14.227C58.5061 14.227 58.3597 14.1408 58.0668 13.9686C57.774 13.7963 57.3864 13.6068 56.904 13.4001C56.4217 13.1761 55.8962 12.978 55.3277 12.8057C54.7592 12.6335 54.1994 12.5473 53.6481 12.5473C53.2174 12.5473 52.8643 12.6162 52.5886 12.7541C52.313 12.8919 52.1752 13.1244 52.1752 13.4518C52.1752 13.9341 52.4766 14.2787 53.0796 14.4854C53.6998 14.6749 54.5353 14.9419 55.5861 15.2864C56.7231 15.631 57.7051 16.0272 58.532 16.4751C59.3589 16.923 59.9963 17.5001 60.4442 18.2064C60.8921 18.8955 61.116 19.8172 61.116 20.9714C61.116 22.0739 60.9179 23.0042 60.5217 23.7622C60.1255 24.503 59.5914 25.0973 58.9196 25.5452C58.2477 25.9931 57.4983 26.3204 56.6714 26.5271C55.8445 26.7166 55.0004 26.8114 54.1391 26.8114C53.2605 26.8114 52.3388 26.7252 51.3741 26.553C50.4266 26.3635 49.505 26.1137 48.6092 25.8036C47.7134 25.4763 46.8951 25.0973 46.1543 24.6666L48.3249 20.2479C48.3249 20.2479 48.4972 20.3512 48.8417 20.5579C49.1863 20.7647 49.6428 20.9972 50.2113 21.2556C50.7798 21.514 51.4086 21.7466 52.0976 21.9533C52.804 22.1601 53.5103 22.2634 54.2166 22.2634C54.7679 22.2634 55.1468 22.1945 55.3536 22.0567C55.5775 21.9017 55.6895 21.7035 55.6895 21.4624C55.6895 21.1006 55.5 20.825 55.121 20.6355C54.742 20.4287 54.2424 20.2392 53.6222 20.067C53.0193 19.8775 52.3474 19.6621 51.6067 19.421C49.9873 18.8697 48.8073 18.2151 48.0665 17.4571C47.3257 16.6818 46.9554 15.6224 46.9554 14.2787C46.9554 12.9177 47.2741 11.7807 47.9115 10.8677C48.5489 9.95466 49.3844 9.26557 50.418 8.80044C51.4689 8.31808 52.5972 8.0769 53.8031 8.0769C54.6989 8.0769 55.5603 8.18888 56.3872 8.41283C57.2313 8.61956 58.0152 8.87796 58.7387 9.18805C59.4795 9.49814 60.1255 9.791 60.6767 10.0666L58.5061 14.227Z" fill="#007048"/>
<path d="M69.8292 26.8372C68.2443 26.8372 66.892 26.5185 65.7722 25.8811C64.6697 25.2437 63.8255 24.3996 63.2398 23.3487C62.6713 22.2979 62.3871 21.1695 62.3871 19.9636C62.3871 18.6543 62.6713 17.4571 63.2398 16.3718C63.8083 15.2692 64.6438 14.3906 65.7464 13.736C66.8489 13.0642 68.2098 12.7282 69.8292 12.7282C71.4485 12.7282 72.8095 13.0555 73.912 13.7102C75.0145 14.3648 75.8501 15.2262 76.4186 16.2942C76.9871 17.3623 77.2713 18.5251 77.2713 19.7827C77.2713 20.3168 77.2282 20.8163 77.1421 21.2815H67.6069C67.6586 22.005 67.9256 22.5304 68.408 22.8578C68.8903 23.1679 69.4157 23.3229 69.9842 23.3229C70.5183 23.3229 71.0179 23.2023 71.483 22.9611C71.9653 22.7199 72.284 22.384 72.4391 21.9533L76.5994 23.142C76.0482 24.2273 75.1954 25.1145 74.0412 25.8036C72.887 26.4927 71.483 26.8372 69.8292 26.8372ZM67.5035 18.3356H71.9998C71.9309 17.681 71.6897 17.1642 71.2763 16.7852C70.88 16.4062 70.3718 16.2167 69.7517 16.2167C69.1315 16.2167 68.6233 16.4062 68.2271 16.7852C67.8308 17.1642 67.5897 17.681 67.5035 18.3356Z" fill="#007048"/>
<path d="M100.925 26.5788H96.0155V18.93C96.0155 18.2581 95.8777 17.7758 95.602 17.4829C95.3436 17.1728 95.0249 17.0178 94.6459 17.0178C94.2669 17.0178 93.8535 17.1987 93.4056 17.5604C92.9577 17.9222 92.6303 18.3873 92.4236 18.9558V26.5788H87.5139V18.93C87.5139 18.2581 87.3761 17.7758 87.1004 17.4829C86.842 17.1728 86.5233 17.0178 86.1443 17.0178C85.7653 17.0178 85.3519 17.1987 84.904 17.5604C84.4561 17.9222 84.1288 18.3873 83.922 18.9558V26.5788H79.0123V12.9866H83.4311V15.0022C84.413 13.4862 86.0754 12.7282 88.4183 12.7282C89.5381 12.7282 90.3822 12.9694 90.9507 13.4518C91.5192 13.9341 91.8982 14.4768 92.0877 15.0797C92.57 14.339 93.2333 13.7618 94.0774 13.3484C94.9215 12.9349 95.869 12.7282 96.9199 12.7282C97.8157 12.7282 98.5306 12.8919 99.0647 13.2192C99.5987 13.5465 99.9949 13.9686 100.253 14.4854C100.529 15.0022 100.71 15.5449 100.796 16.1133C100.882 16.6646 100.925 17.1728 100.925 17.6379V26.5788Z" fill="#007048"/>
<path d="M112.59 26.8372C110.558 26.8372 109.145 26.0792 108.353 24.5632V32.0829H103.443V12.9866H107.707V15.028C108.189 14.2873 108.783 13.7188 109.49 13.3226C110.213 12.9263 111.083 12.7282 112.099 12.7282C113.305 12.7282 114.382 13.0383 115.33 13.6585C116.277 14.2614 117.018 15.0883 117.552 16.1392C118.103 17.19 118.379 18.3873 118.379 19.731C118.379 21.092 118.129 22.3065 117.629 23.3746C117.13 24.4427 116.441 25.2868 115.562 25.907C114.701 26.5271 113.71 26.8372 112.59 26.8372ZM110.885 22.7027C111.591 22.7027 112.177 22.4099 112.642 21.8241C113.124 21.2384 113.366 20.5321 113.366 19.7052C113.366 18.8438 113.116 18.1548 112.616 17.6379C112.134 17.1211 111.488 16.8627 110.678 16.8627C109.782 16.8627 109.007 17.3279 108.353 18.2581V20.6096C108.594 21.1953 108.947 21.6949 109.412 22.1084C109.877 22.5046 110.368 22.7027 110.885 22.7027Z" fill="#007048"/>
<path d="M126.996 26.8372C125.376 26.8372 124.015 26.5099 122.913 25.8553C121.81 25.1834 120.975 24.3135 120.406 23.2454C119.838 22.1773 119.553 21.0231 119.553 19.7827C119.553 18.5251 119.838 17.3623 120.406 16.2942C120.975 15.2262 121.81 14.3648 122.913 13.7102C124.015 13.0555 125.376 12.7282 126.996 12.7282C128.615 12.7282 129.976 13.0555 131.078 13.7102C132.181 14.3648 133.016 15.2262 133.585 16.2942C134.153 17.3623 134.438 18.5251 134.438 19.7827C134.438 21.0231 134.153 22.1773 133.585 23.2454C133.016 24.3135 132.181 25.1834 131.078 25.8553C129.976 26.5099 128.615 26.8372 126.996 26.8372ZM124.592 19.7827C124.592 20.6785 124.816 21.3935 125.264 21.9275C125.729 22.4443 126.307 22.7027 126.996 22.7027C127.702 22.7027 128.279 22.4443 128.727 21.9275C129.175 21.3935 129.399 20.6785 129.399 19.7827C129.399 18.8697 129.175 18.1548 128.727 17.6379C128.279 17.1211 127.702 16.8627 126.996 16.8627C126.307 16.8627 125.729 17.1211 125.264 17.6379C124.816 18.1548 124.592 18.8697 124.592 19.7827Z" fill="#007048"/>
<path d="M135.556 22.4702C135.556 21.5571 135.805 20.7561 136.305 20.067C136.804 19.3607 137.494 18.8094 138.372 18.4132C139.268 18.0169 140.284 17.8188 141.421 17.8188C142.524 17.8188 143.437 17.9911 144.16 18.3356V17.9222C144.16 17.2848 143.971 16.811 143.592 16.501C143.23 16.1909 142.636 16.0358 141.809 16.0358C141.051 16.0358 140.336 16.165 139.664 16.4234C139.01 16.6646 138.32 17.0264 137.597 17.5087L136.176 14.4595C137.967 13.3053 140.009 12.7282 142.3 12.7282C144.453 12.7282 146.116 13.2192 147.287 14.2011C148.476 15.1659 149.07 16.6043 149.07 18.5165V21.1523C149.07 21.6174 149.139 21.9447 149.277 22.1342C149.415 22.3065 149.656 22.4099 150 22.4443V26.5788C149.604 26.665 149.225 26.7252 148.863 26.7597C148.519 26.8114 148.209 26.8372 147.933 26.8372C147.055 26.8372 146.383 26.6822 145.918 26.3721C145.47 26.0448 145.177 25.571 145.039 24.9509L144.936 24.4599C143.695 26.0448 142.154 26.8372 140.31 26.8372C139.414 26.8372 138.605 26.6477 137.881 26.2687C137.158 25.8897 136.589 25.3729 136.176 24.7183C135.762 24.0464 135.556 23.2971 135.556 22.4702ZM143.514 22.8061C143.945 22.5132 144.16 22.1945 144.16 21.85V20.8422C143.885 20.7388 143.566 20.6527 143.204 20.5838C142.86 20.5149 142.55 20.4804 142.274 20.4804C141.688 20.4804 141.189 20.6269 140.775 20.9197C140.379 21.2126 140.181 21.583 140.181 22.0309C140.181 22.4099 140.327 22.7199 140.62 22.9611C140.93 23.2023 141.318 23.3229 141.783 23.3229C142.421 23.3229 142.998 23.1506 143.514 22.8061Z" fill="#007048"/>
<path d="M20.0195 34.4042C19.136 34.5432 18.2303 34.6154 17.3077 34.6154C16.4474 34.6154 15.6018 34.5526 14.7752 34.4314V0.183965C15.6018 0.0627649 16.4474 0 17.3077 0C18.4835 0 19.6319 0.117243 20.7418 0.340675L20.544 0.303061L20.0195 0.211609V34.4042Z" fill="#007048"/>
<path d="M20.0749 34.3954C20.1741 34.3794 20.273 34.3626 20.3716 34.345L20.0749 34.3954Z" fill="#007048"/>
<path d="M20.7687 34.2693C22.7688 33.8633 24.6436 33.1125 26.3284 32.0816C26.3181 32.0869 26.3125 32.0897 26.3125 32.0897V2.52405C24.6318 1.49813 22.7625 0.75076 20.7687 0.346111V34.2693Z" fill="#007048"/>
<path d="M26.9822 2.95424L27.0617 3.00884V31.6071C31.6222 28.4902 34.6154 23.2485 34.6154 17.3077C34.6154 11.3324 31.5874 6.06435 26.9822 2.95424Z" fill="#007048"/>
<path d="M14.2125 0.275982C14.1933 0.279444 14.1741 0.282938 14.155 0.286463L14.2125 0.275982Z" fill="#007048"/>
<path d="M14.026 0.31071C12.0946 0.681397 10.2774 1.37311 8.63194 2.32815V32.2871L8.51247 32.2172C10.2097 33.2206 12.0932 33.9425 14.0985 34.3184L14.026 34.3045V0.31071Z" fill="#007048"/>
<path d="M7.88276 31.8265V2.78884C3.13768 5.87543 0 11.2251 0 17.3077C0 23.3902 3.13768 28.74 7.88276 31.8265Z" fill="#007048"/>
<path d="M7.98564 2.72243C8.00862 2.70778 8.03388 2.69169 8.05972 2.67526C8.03498 2.69092 8.01029 2.70665 7.98564 2.72243Z" fill="#007048"/>
<path fill-rule="evenodd" clip-rule="evenodd" d="M18.7418 5.31725C19.9405 5.24353 21.0466 5.16966 22.3004 5.33538C23.7314 5.52507 23.5869 7.52209 22.8716 7.87959C22.2078 8.21148 21.5811 8.15589 21.5811 8.15589H19.0367C17.1855 8.26122 17.1182 5.41674 18.7418 5.31725Z" fill="white"/>
<path fill-rule="evenodd" clip-rule="evenodd" d="M24.8434 9.86543C26.0421 9.79171 27.1483 9.71799 28.402 9.88415C29.8331 10.0738 29.6885 12.0709 28.9733 12.4285C28.3095 12.7604 27.6828 12.7048 27.6828 12.7048H25.1384C23.2872 12.8102 23.2198 9.96552 24.8434 9.86543Z" fill="white"/>
<path fill-rule="evenodd" clip-rule="evenodd" d="M24.8434 15.9033C26.0421 15.8296 27.1483 15.7559 28.402 15.9221C29.8331 16.1112 29.6885 18.1088 28.9733 18.4664C28.3095 18.7983 27.6828 18.7426 27.6828 18.7426H25.1384C23.2872 18.8481 23.2198 16.0034 24.8434 15.9033Z" fill="white"/>
<path fill-rule="evenodd" clip-rule="evenodd" d="M24.8434 18.8995C26.0421 18.8258 27.1483 18.7521 28.402 18.9176C29.8331 19.1073 29.6885 21.1043 28.9733 21.462C28.3095 21.7939 27.6828 21.7389 27.6828 21.7389H25.1384C23.2872 21.8436 23.2198 18.9996 24.8434 18.8995Z" fill="white"/>
<path fill-rule="evenodd" clip-rule="evenodd" d="M24.8434 21.8956C26.0421 21.8218 27.1483 21.7481 28.402 21.9137C29.8331 22.1034 29.6885 24.1004 28.9733 24.4581C28.3095 24.7899 27.6828 24.7343 27.6828 24.7343H25.1384C23.2872 24.8397 23.2198 21.9951 24.8434 21.8956Z" fill="white"/>
<path fill-rule="evenodd" clip-rule="evenodd" d="M24.8434 24.9193C26.0421 24.8456 27.1483 24.7719 28.402 24.9375C29.8331 25.1272 29.6885 27.1242 28.9733 27.4818C28.3095 27.8136 27.6828 27.758 27.6828 27.758H25.1384C23.2872 27.8635 23.2198 25.0188 24.8434 24.9193Z" fill="white"/>
<path fill-rule="evenodd" clip-rule="evenodd" d="M18.7418 14.441C19.9405 14.3673 21.0466 14.2935 22.3004 14.4597C23.7314 14.6494 23.5869 16.6464 22.8716 17.0041C22.2078 17.336 21.5811 17.2804 21.5811 17.2804H19.0367C17.1855 17.3857 17.1182 14.5411 18.7418 14.441Z" fill="white"/>
<path fill-rule="evenodd" clip-rule="evenodd" d="M18.7418 17.437C19.9405 17.3639 21.0466 17.29 22.3004 17.4557C23.7314 17.6453 23.5869 19.6424 22.8716 19.9999C22.2078 20.3318 21.5811 20.2762 21.5811 20.2762H19.0367C17.1855 20.3816 17.1182 17.5371 18.7418 17.437Z" fill="white"/>
<path fill-rule="evenodd" clip-rule="evenodd" d="M18.7418 26.4071C19.9405 26.3334 21.0466 26.2595 22.3004 26.4252C23.7314 26.6148 23.5869 28.6119 22.8716 28.9695C22.2078 29.3013 21.5811 29.2458 21.5811 29.2458H19.0367C17.1855 29.3511 17.1182 26.5066 18.7418 26.4071Z" fill="white"/>
<path fill-rule="evenodd" clip-rule="evenodd" d="M12.5884 5.31725C13.7865 5.24353 14.8928 5.16966 16.1464 5.33538C17.5775 5.52507 17.4329 7.52209 16.7184 7.87959C16.0546 8.21148 15.4277 8.15589 15.4277 8.15589H12.8835C11.0316 8.26122 10.9648 5.41674 12.5884 5.31725Z" fill="white"/>
<path fill-rule="evenodd" clip-rule="evenodd" d="M12.5884 14.441C13.7865 14.3673 14.8928 14.2935 16.1464 14.4597C17.5775 14.6494 17.4329 16.6464 16.7184 17.0041C16.0546 17.336 15.4277 17.2804 15.4277 17.2804H12.8835C11.0316 17.3857 10.9648 14.5411 12.5884 14.441Z" fill="white"/>
<path fill-rule="evenodd" clip-rule="evenodd" d="M12.5884 17.437C13.7865 17.3639 14.8928 17.29 16.1464 17.4557C17.5775 17.6453 17.4329 19.6424 16.7184 19.9999C16.0546 20.3318 15.4277 20.2762 15.4277 20.2762H12.8835C11.0316 20.3816 10.9648 17.5371 12.5884 17.437Z" fill="white"/>
<path fill-rule="evenodd" clip-rule="evenodd" d="M12.5884 26.4071C13.7865 26.3334 14.8928 26.2595 16.1464 26.4252C17.5775 26.6148 17.4329 28.6119 16.7184 28.9695C16.0546 29.3013 15.4277 29.2458 15.4277 29.2458H12.8835C11.0316 29.3511 10.9648 26.5066 12.5884 26.4071Z" fill="white"/>
<path fill-rule="evenodd" clip-rule="evenodd" d="M24.8434 6.85303C26.0421 6.77932 27.1483 6.70545 28.402 6.87176C29.8331 7.06086 29.6885 9.05787 28.9733 9.41538C28.3095 9.74727 27.6828 9.69228 27.6828 9.69228H25.1384C23.2872 9.79761 23.2198 6.95312 24.8434 6.85303Z" fill="white"/>
<path fill-rule="evenodd" clip-rule="evenodd" d="M6.48632 9.69978C7.685 9.62607 8.79124 9.55235 10.0443 9.71851C11.4754 9.90821 11.3314 11.9052 10.6161 12.2629C9.95247 12.5948 9.32556 12.5392 9.32556 12.5392H6.7812C4.92997 12.6445 4.86269 9.79988 6.48632 9.69978Z" fill="white"/>
<path fill-rule="evenodd" clip-rule="evenodd" d="M6.48632 12.6894C7.685 12.6157 8.79124 12.542 10.0443 12.7081C11.4754 12.8972 11.3314 14.8949 10.6161 15.2525C9.95247 15.5844 9.32556 15.5287 9.32556 15.5287H6.7812C4.92997 15.6341 4.86269 12.7895 6.48632 12.6894Z" fill="white"/>
<path fill-rule="evenodd" clip-rule="evenodd" d="M6.48632 15.6854C7.685 15.6117 8.79124 15.538 10.0443 15.7035C11.4754 15.8932 11.3314 17.8902 10.6161 18.2479C9.95247 18.5798 9.32556 18.5248 9.32556 18.5248H6.7812C4.92997 18.6295 4.86269 15.7855 6.48632 15.6854Z" fill="white"/>
<path fill-rule="evenodd" clip-rule="evenodd" d="M6.48632 21.8956C7.685 21.8218 8.79124 21.7481 10.0443 21.9137C11.4754 22.1034 11.3314 24.1004 10.6161 24.4581C9.95247 24.7899 9.32556 24.7343 9.32556 24.7343H6.7812C4.92997 24.8397 4.86269 21.9951 6.48632 21.8956Z" fill="white"/>
<path fill-rule="evenodd" clip-rule="evenodd" d="M6.48632 24.9193C7.685 24.8456 8.79124 24.7719 10.0443 24.9375C11.4754 25.1272 11.3314 27.1242 10.6161 27.4818C9.95247 27.8136 9.32556 27.758 9.32556 27.758H6.7812C4.92997 27.8635 4.86269 25.0188 6.48632 24.9193Z" fill="white"/>
<path fill-rule="evenodd" clip-rule="evenodd" d="M6.48632 6.70311C7.685 6.62939 8.79124 6.55553 10.0443 6.72184C11.4754 6.91094 11.3314 8.90795 10.6161 9.26546C9.95247 9.59735 9.32556 9.54236 9.32556 9.54236H6.7812C4.92997 9.64769 4.86269 6.8032 6.48632 6.70311Z" fill="white"/>
</svg>
