<svg width="30" height="30" viewBox="0 0 30 30" fill="none" xmlns="http://www.w3.org/2000/svg">
<path d="M27.0714 7.50002H22.4286V1.07145C22.4286 0.479694 22.0128 0 21.5 0H2.92859C2.41573 0 2 0.479694 2 1.07145V25.7143C2 28.0812 3.66294 30 5.7143 30H24.2857C26.3371 30 28 28.0812 28 25.7143V8.5714C28 7.97971 27.5843 7.50002 27.0714 7.50002ZM9.42855 5.35712H15C15.5128 5.35712 15.9286 5.83681 15.9286 6.42857C15.9286 7.02032 15.5128 7.50002 15 7.50002H9.42855C8.91569 7.50002 8.49996 7.02032 8.49996 6.42857C8.49996 5.83681 8.91575 5.35712 9.42855 5.35712ZM17.7857 25.7143H6.64284C6.12998 25.7143 5.71425 25.2346 5.71425 24.6428C5.71425 24.0511 6.12998 23.5714 6.64284 23.5714H17.7857C18.2985 23.5714 18.7143 24.0511 18.7143 24.6428C18.7143 25.2346 18.2985 25.7143 17.7857 25.7143ZM17.7857 21.4285H6.64284C6.12998 21.4285 5.71425 20.9488 5.71425 20.3571C5.71425 19.7653 6.12998 19.2856 6.64284 19.2856H17.7857C18.2985 19.2856 18.7143 19.7653 18.7143 20.3571C18.7143 20.9488 18.2985 21.4285 17.7857 21.4285ZM17.7857 17.1429H6.64284C6.12998 17.1429 5.71425 16.6632 5.71425 16.0714C5.71425 15.4797 6.12998 15 6.64284 15H17.7857C18.2985 15 18.7143 15.4797 18.7143 16.0714C18.7143 16.6632 18.2985 17.1429 17.7857 17.1429ZM17.7857 12.8571H6.64284C6.12998 12.8571 5.71425 12.3774 5.71425 11.7857C5.71425 11.1939 6.12998 10.7142 6.64284 10.7142H17.7857C18.2985 10.7142 18.7143 11.1939 18.7143 11.7857C18.7143 12.3774 18.2985 12.8571 17.7857 12.8571ZM26.1428 25.7143C26.1428 26.8977 25.3114 27.8571 24.2857 27.8571C23.26 27.8571 22.4286 26.8977 22.4286 25.7143V9.64285H26.1429V25.7143H26.1428Z" fill="#FF70B4"/>
</svg>
