<svg width="30" height="30" viewBox="0 0 30 30" fill="none" xmlns="http://www.w3.org/2000/svg">
<path d="M13.0013 21.9433C13.0013 26.3012 16.3589 29.834 20.5007 29.834C24.6425 29.834 28 26.3013 28 21.9433C28 17.5853 24.6425 14.0527 20.5007 14.0527C16.3588 14.0527 13.0013 17.5854 13.0013 21.9433ZM17.5714 18.8617C17.7571 18.6663 18.0147 18.5539 18.2772 18.5539C18.5398 18.5539 18.7974 18.6663 18.9841 18.8617C19.1698 19.0571 19.2756 19.3281 19.2756 19.6044C19.2756 19.8807 19.1698 20.1517 18.9841 20.3471C18.7974 20.5425 18.5408 20.6549 18.2772 20.6549C18.0147 20.6549 17.7571 20.5425 17.5714 20.3471C17.3857 20.1517 17.2788 19.8807 17.2788 19.6044C17.2788 19.3281 17.3857 19.0571 17.5714 18.8617ZM23.4297 25.0246C23.2439 25.2201 22.9864 25.3325 22.7238 25.3325C22.4612 25.3325 22.2037 25.2201 22.018 25.0246C21.8313 24.8293 21.7254 24.5593 21.7254 24.282C21.7254 24.0056 21.8313 23.7347 22.018 23.5393C22.2037 23.3438 22.4612 23.2315 22.7238 23.2315C22.9864 23.2315 23.2439 23.3438 23.4297 23.5393C23.6154 23.7347 23.7222 24.0056 23.7222 24.282C23.7222 24.5594 23.6154 24.8294 23.4297 25.0246ZM23.4163 18.8755C23.8061 19.2857 23.8061 19.9509 23.4163 20.3611L18.997 25.0109C18.8021 25.2159 18.5466 25.3186 18.2911 25.3186C18.0355 25.3186 17.78 25.216 17.5851 25.0109C17.1952 24.6007 17.1952 23.9355 17.5851 23.5253L22.0043 18.8755C22.3943 18.4654 23.0263 18.4654 23.4163 18.8755Z" fill="#05DFD2"/>
<path d="M11.0046 21.9433C11.0046 16.434 15.2645 11.9518 20.5006 11.9518C20.6742 11.9518 20.8466 11.957 21.0179 11.9667V1.05041C21.0179 0.470305 20.5709 0 20.0195 0H2.99831C2.44698 0 2 0.470305 2 1.05041V28.9496C2 29.5297 2.44698 30 2.99831 30H14.8913C12.5363 28.18 11.0046 25.2465 11.0046 21.9433ZM7.64562 5.57992H14.7165C15.2678 5.57992 15.7148 6.05022 15.7148 6.63033C15.7148 7.21043 15.2678 7.68073 14.7165 7.68073H7.64562C7.09428 7.68073 6.6473 7.21043 6.6473 6.63033C6.6473 6.05022 7.09428 5.57992 7.64562 5.57992ZM7.64562 11.1597H14.7165C15.2678 11.1597 15.7148 11.63 15.7148 12.2101C15.7148 12.7902 15.2678 13.2606 14.7165 13.2606H7.64562C7.09428 13.2606 6.6473 12.7902 6.6473 12.2101C6.64721 11.63 7.09428 11.1597 7.64562 11.1597ZM9.41328 18.8404H7.64562C7.09428 18.8404 6.6473 18.3701 6.6473 17.79C6.6473 17.2099 7.09428 16.7396 7.64562 16.7396H9.41328C9.96461 16.7396 10.4116 17.2099 10.4116 17.79C10.4116 18.3701 9.96461 18.8404 9.41328 18.8404Z" fill="#05DFD2"/>
</svg>
