<svg width="30" height="30" viewBox="0 0 30 30" fill="none" xmlns="http://www.w3.org/2000/svg">
<path d="M24.425 0H5.575C3.6029 0 2 1.54125 2 3.4375V26.5625C2 28.4587 3.6029 30 5.575 30H24.425C26.3971 30 28 28.4587 28 26.5625V3.4375C28 1.54125 26.3971 0 24.425 0ZM13.375 16.25V10.095C16.495 10.5513 18.9 13.125 18.9 16.25C18.9 19.6963 15.9841 22.5 12.4 22.5C10.9596 22.5 9.6401 22.0325 8.5611 21.2663L13.089 16.9125C13.2723 16.7375 13.375 16.4988 13.375 16.25ZM11.425 10.095V15.8625L7.1831 19.9412C6.3862 18.9037 5.9 17.635 5.9 16.25C5.9 13.125 8.305 10.5513 11.425 10.095ZM23.125 26.5625H6.875C6.3368 26.5625 5.9 26.1425 5.9 25.625C5.9 25.1075 6.3368 24.6875 6.875 24.6875H23.125C23.6632 24.6875 24.1 25.1075 24.1 25.625C24.1 26.1425 23.6632 26.5625 23.125 26.5625ZM23.125 22.5H21.175C20.6368 22.5 20.2 22.08 20.2 21.5625C20.2 21.045 20.6368 20.625 21.175 20.625H23.125C23.6632 20.625 24.1 21.045 24.1 21.5625C24.1 22.08 23.6632 22.5 23.125 22.5ZM23.125 19.0625H21.175C20.6368 19.0625 20.2 18.6425 20.2 18.125C20.2 17.6075 20.6368 17.1875 21.175 17.1875H23.125C23.6632 17.1875 24.1 17.6075 24.1 18.125C24.1 18.6425 23.6632 19.0625 23.125 19.0625ZM23.125 15.3125H21.175C20.6368 15.3125 20.2 14.8925 20.2 14.375C20.2 13.8575 20.6368 13.4375 21.175 13.4375H23.125C23.6632 13.4375 24.1 13.8575 24.1 14.375C24.1 14.8925 23.6632 15.3125 23.125 15.3125ZM23.125 11.875H21.175C20.6368 11.875 20.2 11.455 20.2 10.9375C20.2 10.42 20.6368 10 21.175 10H23.125C23.6632 10 24.1 10.42 24.1 10.9375C24.1 11.455 23.6632 11.875 23.125 11.875Z" fill="#A45CFF"/>
</svg>
