<svg width="30" height="30" viewBox="0 0 30 30" fill="none" xmlns="http://www.w3.org/2000/svg">
<g clip-path="url(#clip0)">
<path d="M24.6329 0H5.36714C3.51051 0 2 1.29469 2 2.88604V27.114C2 28.7053 3.51051 30 5.36714 30H24.6329C26.4895 30 28 28.7053 28 27.114V2.88604C28 1.29469 26.4895 0 24.6329 0ZM6.61501 4.98609C6.61501 4.5007 7.07412 4.10719 7.64043 4.10719H22.3595C22.9258 4.10719 23.3849 4.5007 23.3849 4.98609V6.72152C23.3849 7.20691 22.9258 7.60043 22.3595 7.60043H7.64043C7.07412 7.60043 6.61501 7.20691 6.61501 6.72152V4.98609ZM10.0673 24.7216C10.0673 25.207 9.60821 25.6005 9.0419 25.6005H7.64049C7.07419 25.6005 6.61507 25.207 6.61507 24.7216V23.8889C6.61507 23.4035 7.07419 23.01 7.64049 23.01H9.0419C9.60821 23.01 10.0673 23.4035 10.0673 23.8889V24.7216ZM10.0673 19.5203C10.0673 20.0057 9.60821 20.3992 9.0419 20.3992H7.64049C7.07419 20.3992 6.61507 20.0057 6.61507 19.5203V18.6875C6.61507 18.2021 7.07419 17.8086 7.64049 17.8086H9.0419C9.60821 17.8086 10.0673 18.2021 10.0673 18.6875V19.5203ZM16.8101 24.7216C16.8101 25.207 16.351 25.6005 15.7847 25.6005H14.3833C13.8169 25.6005 13.3579 25.207 13.3579 24.7216V23.8889C13.3579 23.4035 13.8169 23.01 14.3833 23.01H15.7847C16.351 23.01 16.8101 23.4035 16.8101 23.8889V24.7216ZM16.8101 19.5203C16.8101 20.0057 16.351 20.3992 15.7847 20.3992H14.3833C13.8169 20.3992 13.3579 20.0057 13.3579 19.5203V18.6875C13.3579 18.2021 13.8169 17.8086 14.3833 17.8086H15.7847C16.351 17.8086 16.8101 18.2021 16.8101 18.6875V19.5203ZM16.8101 14.3188C16.8101 14.8043 16.351 15.1978 15.7847 15.1978H7.64043C7.07412 15.1978 6.61501 14.8042 6.61501 14.3188V13.4861C6.61501 13.0007 7.07412 12.6072 7.64043 12.6072H15.7847C16.351 12.6072 16.8101 13.0007 16.8101 13.4861V14.3188ZM23.553 24.7216C23.553 25.207 23.0938 25.6005 22.5275 25.6005H21.1261C20.5598 25.6005 20.1007 25.207 20.1007 24.7216V23.8889C20.1007 23.4035 20.5598 23.01 21.1261 23.01H22.5275C23.0938 23.01 23.553 23.4035 23.553 23.8889V24.7216ZM23.553 19.5203C23.553 20.0057 23.0938 20.3992 22.5275 20.3992H21.1261C20.5598 20.3992 20.1007 20.0057 20.1007 19.5203V18.6875C20.1007 18.2021 20.5598 17.8086 21.1261 17.8086H22.5275C23.0938 17.8086 23.553 18.2021 23.553 18.6875V19.5203ZM23.553 14.3188C23.553 14.8043 23.0938 15.1978 22.5275 15.1978H21.1261C20.5598 15.1978 20.1007 14.8042 20.1007 14.3188V13.4861C20.1007 13.0007 20.5598 12.6072 21.1261 12.6072H22.5275C23.0938 12.6072 23.553 13.0007 23.553 13.4861V14.3188Z" fill="#FF7070"/>
</g>
<defs>
<clipPath id="clip0">
<rect width="30" height="30" fill="white"/>
</clipPath>
</defs>
</svg>
