<svg width="30" height="30" viewBox="0 0 30 30" fill="none" xmlns="http://www.w3.org/2000/svg">
<path d="M11.1037 0C8.49265 0 6.31331 1.79787 5.80045 4.19128H9.41114C9.90988 4.19128 10.3141 4.58473 10.3141 5.07019C10.3141 5.55542 9.90988 5.9491 9.41114 5.9491H5.68617V8.42216H5.07643C4.37593 8.42216 3.80593 7.86758 3.80593 7.18575C3.80593 6.50368 4.37593 5.9491 5.07643 5.9491H5.68593V4.19128H5.07643C3.38008 4.19128 2 5.53459 2 7.18575C2 8.8369 3.38008 10.18 5.07643 10.18H5.68593V12.0055H9.41114C9.90988 12.0055 10.3141 12.399 10.3141 12.8844C10.3141 13.3699 9.90988 13.7634 9.41114 13.7634H5.68593V16.2366H5.07643C4.37593 16.2366 3.80593 15.6818 3.80593 15C3.80593 14.3182 4.37593 13.7634 5.07643 13.7634H5.68593V12.0055H5.07643C3.38008 12.0055 2 13.3488 2 15C2 16.6512 3.38008 17.9945 5.07643 17.9945H5.68593V19.8198H9.41114C9.90988 19.8198 10.3141 20.2135 10.3141 20.6987C10.3141 21.1842 9.90988 21.5776 9.41114 21.5776H5.68593V24.0509H5.07643C4.37593 24.0509 3.80593 23.4961 3.80593 22.8143C3.80593 22.1324 4.37593 21.5776 5.07643 21.5776H5.68593V19.8198H5.07643C3.38008 19.8198 2 21.1631 2 22.8143C2 24.4654 3.38008 25.8087 5.07643 25.8087H5.68593V29.1211C5.68593 29.6066 6.09039 30 6.5889 30H21.6889V0L11.1037 0Z" fill="#4420D2"/>
<path d="M27.097 0H23.4948V29.9252C26.0525 29.5029 28 27.3363 28 24.7266V0.878906C28 0.393448 27.5958 0 27.097 0Z" fill="#4420D2"/>
</svg>
