<svg width="30" height="30" viewBox="0 0 30 30" fill="none" xmlns="http://www.w3.org/2000/svg">
<path d="M27.1516 0.770749C26.6323 0.560635 26.0204 0.642397 25.5957 0.978523L23.3546 2.7212C23.2937 2.76885 23.2017 2.76857 23.1411 2.72063L20.0918 0.325489C19.5403 -0.108496 18.7054 -0.108496 18.1539 0.325489L15.1074 2.71843C15.0461 2.76651 14.9535 2.76651 14.8922 2.71843L11.8454 0.325489C11.2939 -0.108425 10.459 -0.108425 9.90754 0.325489L6.85789 2.72063C6.79685 2.76857 6.70464 2.76878 6.64327 2.72113L4.40018 0.978523C3.80509 0.513762 2.89365 0.560635 2.36444 1.08326C2.12714 1.31763 1.9973 1.62099 2.00004 1.93457V28.0654C1.99471 28.7659 2.63696 29.3375 3.43455 29.3422C3.79185 29.3443 4.13728 29.23 4.40422 29.0215L6.64529 27.2788C6.70625 27.2311 6.79822 27.2314 6.85886 27.2794L9.90811 29.6745C10.4596 30.1085 11.2945 30.1085 11.846 29.6745L14.8928 27.2816C14.9541 27.2335 15.0467 27.2335 15.108 27.2816L18.1548 29.6744C18.7064 30.1082 19.5412 30.1082 20.0927 29.6744L23.1425 27.2793C23.2036 27.2314 23.2958 27.2311 23.3571 27.2788L25.6002 29.0214C26.1956 29.486 27.1069 29.4387 27.6359 28.9159C27.8728 28.6817 28.0025 28.3787 27.9999 28.0654V1.93457C28.0075 1.43258 27.6738 0.974836 27.1516 0.770749ZM7.34591 10.1779H15.387C15.7437 10.1779 16.0329 10.432 16.0329 10.7452C16.0329 11.0585 15.7437 11.3125 15.387 11.3125H7.34591C6.98918 11.3125 6.69996 11.0585 6.69996 10.7452C6.69996 10.432 6.98918 10.1779 7.34591 10.1779ZM22.654 19.8221H7.34591C6.98918 19.8221 6.69996 19.568 6.69996 19.2548C6.69996 18.9415 6.98918 18.6875 7.34591 18.6875H22.654C23.0107 18.6875 23.3 18.9415 23.3 19.2548C23.3 19.568 23.0107 19.8221 22.654 19.8221ZM22.654 15.5673H7.34591C6.98918 15.5673 6.69996 15.3133 6.69996 15C6.69996 14.6867 6.98918 14.4327 7.34591 14.4327H22.654C23.0107 14.4327 23.3 14.6867 23.3 15C23.3 15.3133 23.0107 15.5673 22.654 15.5673Z" fill="#0085FF"/>
</svg>
