<svg width="30" height="30" viewBox="0 0 30 30" fill="none" xmlns="http://www.w3.org/2000/svg">
<path d="M29.121 0C26.8613 0 2.13398 0 0.878905 0C0.393515 0 0 0.436103 0 0.974025C0 1.51195 0.393515 1.94805 0.878905 1.94805H2.98828V29.0259C2.98828 29.3522 3.13576 29.6569 3.38103 29.8374C3.62665 30.0182 3.93738 30.0501 4.2082 29.9237L9.43375 27.4854L14.6593 29.9237C14.8773 30.0254 15.1233 30.0254 15.3415 29.9237L20.5667 27.4854L25.7917 29.9237C26.0631 30.0503 26.3738 30.0179 26.619 29.8374C26.8643 29.6569 27.0117 29.3523 27.0117 29.026V1.94805H29.1211C29.6065 1.94805 30 1.51195 30 0.974025C30 0.436103 29.6064 0 29.121 0ZM8.67186 20.4545C8.02463 20.4545 7.49999 19.8731 7.49999 19.1558C7.49999 18.4386 8.02463 17.8571 8.67186 17.8571C9.31908 17.8571 9.84373 18.4386 9.84373 19.1558C9.84373 19.8731 9.31908 20.4545 8.67186 20.4545ZM8.67186 15.2597C8.02463 15.2597 7.49999 14.6783 7.49999 13.961C7.49999 13.2438 8.02463 12.6623 8.67186 12.6623C9.31908 12.6623 9.84373 13.2438 9.84373 13.961C9.84373 14.6783 9.31908 15.2597 8.67186 15.2597ZM9.72654 6.16883C9.72654 5.6309 10.1201 5.1948 10.6054 5.1948H19.3945C19.8799 5.1948 20.2734 5.6309 20.2734 6.16883C20.2734 6.70675 19.8799 7.14285 19.3945 7.14285H10.6054C10.1201 7.14285 9.72654 6.70675 9.72654 6.16883ZM21.4453 20.1299H13.2422C12.7568 20.1299 12.3633 19.6937 12.3633 19.1558C12.3633 18.6179 12.7568 18.1818 13.2422 18.1818H21.4453C21.9307 18.1818 22.3242 18.6179 22.3242 19.1558C22.3242 19.6937 21.9307 20.1299 21.4453 20.1299ZM21.4453 14.9351H13.2422C12.7568 14.9351 12.3633 14.4989 12.3633 13.961C12.3633 13.4231 12.7568 12.987 13.2422 12.987H21.4453C21.9307 12.987 22.3242 13.4231 22.3242 13.961C22.3242 14.4989 21.9307 14.9351 21.4453 14.9351Z" fill="#FF9900"/>
</svg>
