<svg width="176" height="120" viewBox="0 0 176 120" fill="none" xmlns="http://www.w3.org/2000/svg">
<path d="M164.014 -65C164.014 -70.5228 159.532 -75.0318 154.019 -74.6953C127.263 -73.062 101.259 -64.8902 78.3168 -50.831C52.5264 -35.0266 31.6087 -12.398 17.8765 14.553C4.14429 41.504 -1.86752 71.7275 0.505676 101.882C2.87891 132.037 13.5447 160.947 31.3239 185.418C49.1031 209.889 73.3031 228.967 101.248 240.543C129.194 252.118 159.796 255.74 189.671 251.008C219.546 246.276 247.531 233.375 270.532 213.731C290.993 196.255 306.8 174.05 316.622 149.108C318.645 143.969 315.742 138.313 310.489 136.607L267.116 122.514C261.864 120.807 256.268 123.709 254.038 128.761C248.092 142.227 239.182 154.229 227.925 163.844C214.124 175.63 197.333 183.371 179.408 186.21C161.483 189.049 143.122 186.876 126.355 179.931C109.587 172.986 95.0673 161.539 84.3998 146.857C73.7323 132.174 67.3328 114.827 65.9089 96.7347C64.485 78.6419 68.0921 60.5078 76.3314 44.3373C84.5707 28.1667 97.1213 14.5895 112.596 5.10687C125.219 -2.62868 139.387 -7.39368 154.031 -8.88692C159.525 -9.44717 164.014 -13.8717 164.014 -19.3945V-65Z" fill="url(#paint0_linear)"/>
<defs>
<linearGradient id="paint0_linear" x1="39.9539" y1="50.1443" x2="154.475" y2="253.027" gradientUnits="userSpaceOnUse">
<stop stop-color="#05DB6B" stop-opacity="0.05"/>
<stop offset="0.516147" stop-color="#05DB6B" stop-opacity="0.15"/>
<stop offset="1" stop-color="#05DB6B" stop-opacity="0"/>
</linearGradient>
</defs>
</svg>
