<svg width="18" height="19" viewBox="0 0 18 19" fill="none" xmlns="http://www.w3.org/2000/svg">
<path d="M14.2332 11.1666C13.8642 10.7823 13.4191 10.5769 12.9473 10.5769C12.4793 10.5769 12.0304 10.7785 11.6461 11.1628L10.4439 12.3612C10.345 12.3079 10.2461 12.2585 10.151 12.209C10.014 12.1405 9.88463 12.0758 9.7743 12.0074C8.64816 11.2921 7.62474 10.36 6.64317 9.15396C6.1676 8.55285 5.84802 8.04684 5.61594 7.53323C5.92791 7.24789 6.21706 6.95113 6.49859 6.66579C6.60512 6.55927 6.71165 6.44894 6.81817 6.34241C7.61713 5.54345 7.61713 4.50862 6.81817 3.70967L5.77953 2.67103C5.66159 2.55309 5.53985 2.43134 5.42571 2.30959C5.19744 2.07371 4.95775 1.83022 4.71046 1.60195C4.34142 1.23671 3.90009 1.04268 3.43594 1.04268C2.97178 1.04268 2.52285 1.23671 2.14239 1.60195C2.13859 1.60575 2.13859 1.60575 2.13478 1.60956L0.84124 2.91452C0.354259 3.4015 0.0765278 3.99501 0.0156551 4.68363C-0.0756539 5.79455 0.251537 6.82939 0.502636 7.5066C1.11897 9.16918 2.03967 10.71 3.41311 12.3612C5.0795 14.351 7.08449 15.9222 9.37482 17.0294C10.2499 17.4441 11.4179 17.9348 12.7228 18.0185C12.8027 18.0223 12.8864 18.0262 12.9625 18.0262C13.8414 18.0262 14.5794 17.7104 15.1577 17.0826C15.1615 17.075 15.1691 17.0712 15.1729 17.0636C15.3708 16.8239 15.5991 16.6071 15.8387 16.375C16.0023 16.219 16.1697 16.0554 16.3333 15.8842C16.71 15.4923 16.9078 15.0358 16.9078 14.5678C16.9078 14.0961 16.7062 13.6433 16.3219 13.2629L14.2332 11.1666ZM15.5952 15.1727C15.5914 15.1766 15.5914 15.1727 15.5952 15.1727C15.4469 15.3325 15.2947 15.4771 15.1311 15.6369C14.8838 15.8728 14.6327 16.1201 14.3968 16.3978C14.0126 16.8087 13.5598 17.0027 12.9663 17.0027C12.9092 17.0027 12.8484 17.0027 12.7913 16.9989C11.6614 16.9266 10.6113 16.4853 9.82376 16.1087C7.67039 15.0662 5.77953 13.5863 4.20826 11.7106C2.91091 10.1469 2.04348 8.70122 1.46899 7.14897C1.11517 6.20164 0.985813 5.46356 1.04288 4.76733C1.08093 4.3222 1.25213 3.95316 1.56791 3.63738L2.86526 2.34003C3.05168 2.16502 3.24951 2.06991 3.44355 2.06991C3.68323 2.06991 3.87726 2.21448 3.99901 2.33623C4.00281 2.34003 4.00662 2.34384 4.01042 2.34764C4.2425 2.5645 4.46316 2.78897 4.69524 3.02865C4.81318 3.1504 4.93493 3.27214 5.05667 3.39769L6.09531 4.43633C6.49859 4.83961 6.49859 5.21246 6.09531 5.61574C5.98498 5.72607 5.87845 5.8364 5.76812 5.94293C5.44854 6.27012 5.14418 6.57448 4.81318 6.87124C4.80557 6.87885 4.79796 6.88265 4.79416 6.89026C4.46697 7.21745 4.52784 7.53703 4.59632 7.75389C4.60013 7.76531 4.60393 7.77672 4.60774 7.78813C4.87786 8.44251 5.25831 9.05885 5.8366 9.79313L5.84041 9.79693C6.89046 11.0905 7.99758 12.0987 9.21884 12.871C9.37483 12.9699 9.53462 13.0498 9.6868 13.1259C9.82376 13.1944 9.95312 13.2591 10.0634 13.3275C10.0787 13.3352 10.0939 13.3466 10.1091 13.3542C10.2385 13.4189 10.3602 13.4493 10.4858 13.4493C10.8015 13.4493 10.9994 13.2515 11.064 13.1868L12.3652 11.8856C12.4945 11.7563 12.7 11.6003 12.9397 11.6003C13.1756 11.6003 13.3696 11.7487 13.4875 11.878C13.4913 11.8818 13.4913 11.8818 13.4951 11.8856L15.5914 13.9819C15.9833 14.37 15.9833 14.7695 15.5952 15.1727Z" fill="#31443E"/>
<path d="M9.72869 4.28787C10.7255 4.45527 11.631 4.92703 12.3538 5.6499C13.0767 6.37276 13.5446 7.27824 13.7158 8.27503C13.7577 8.52613 13.9746 8.70114 14.2219 8.70114C14.2523 8.70114 14.2789 8.69733 14.3094 8.69353C14.5909 8.64787 14.7773 8.38156 14.7317 8.10002C14.5262 6.89398 13.9555 5.79447 13.0843 4.92323C12.2131 4.05199 11.1135 3.48131 9.90751 3.27586C9.62597 3.23021 9.36346 3.41663 9.314 3.69436C9.26454 3.97209 9.44716 4.24222 9.72869 4.28787Z" fill="#31443E"/>
<path d="M17.9922 7.95171C17.6536 5.96574 16.7176 4.15858 15.2795 2.72047C13.8414 1.28235 12.0343 0.346434 10.0483 0.00783031C9.77056 -0.0416287 9.50804 0.148598 9.45858 0.42633C9.41293 0.707866 9.59935 0.970379 9.88089 1.01984C11.6538 1.3204 13.2707 2.1612 14.5567 3.44333C15.8426 4.72927 16.6796 6.3462 16.9802 8.11911C17.022 8.37021 17.2389 8.54522 17.4862 8.54522C17.5166 8.54522 17.5432 8.54142 17.5737 8.53761C17.8514 8.49576 18.0416 8.22944 17.9922 7.95171Z" fill="#31443E"/>
</svg>
