<svg width="170" height="170" viewBox="0 0 170 170" fill="none" xmlns="http://www.w3.org/2000/svg">
<path d="M98.2834 168.903C93.9459 169.586 89.4993 169.94 84.97 169.94C80.7466 169.94 76.5951 169.632 72.5368 169.037V0.903155C76.5951 0.308137 80.7466 0 84.97 0C90.7423 0 96.3802 0.575589 101.829 1.6725L100.858 1.48784L98.2834 1.03887V168.903Z" fill="#31443E"/>
<path d="M98.5551 168.86C99.042 168.782 99.5276 168.699 100.012 168.613L98.5551 168.86Z" fill="#31443E"/>
<path d="M101.961 168.241C111.78 166.248 120.985 162.562 129.256 157.501C129.205 157.527 129.178 157.541 129.178 157.541V12.3915C120.927 7.35488 111.75 3.68577 101.961 1.69919V168.241Z" fill="#31443E"/>
<path d="M132.466 14.5035L132.856 14.7715V155.171C155.245 139.869 169.94 114.136 169.94 84.97C169.94 55.6351 155.074 29.7722 132.466 14.5035Z" fill="#31443E"/>
<path d="M69.7743 1.3549C69.6802 1.3719 69.5861 1.38905 69.492 1.40636L69.7743 1.3549Z" fill="#31443E"/>
<path d="M68.8588 1.52539C59.377 3.34524 50.4555 6.7411 42.3775 11.4298V158.509L41.7909 158.167C50.1234 163.093 59.37 166.636 69.215 168.482L68.8588 168.414V1.52539Z" fill="#31443E"/>
<path d="M38.6995 156.249V13.6915C15.4041 28.8447 0 55.1084 0 84.97C0 114.832 15.4041 141.095 38.6995 156.249Z" fill="#31443E"/>
<path d="M39.2045 13.3655C39.3173 13.2935 39.4414 13.2145 39.5682 13.1338C39.4468 13.2107 39.3255 13.288 39.2045 13.3655Z" fill="#31443E"/>
<path fill-rule="evenodd" clip-rule="evenodd" d="M92.0107 26.1047C97.8955 25.7428 103.326 25.3801 109.481 26.1937C116.506 27.125 115.797 36.9291 112.285 38.6842C109.027 40.3136 105.95 40.0407 105.95 40.0407H93.4584C84.3701 40.5578 84.0398 26.5931 92.0107 26.1047Z" fill="white"/>
<path fill-rule="evenodd" clip-rule="evenodd" d="M121.966 48.4334C127.85 48.0715 133.281 47.7096 139.436 48.5254C146.462 49.4566 145.752 59.2607 142.241 61.0166C138.982 62.646 135.905 62.3731 135.905 62.3731H123.414C114.326 62.8902 113.995 48.9248 121.966 48.4334Z" fill="white"/>
<path fill-rule="evenodd" clip-rule="evenodd" d="M121.966 78.0758C127.85 77.7139 133.281 77.352 139.436 78.1678C146.462 79.0961 145.752 88.9031 142.241 90.659C138.982 92.2884 135.905 92.0147 135.905 92.0147H123.414C114.326 92.5326 113.995 78.5672 121.966 78.0758Z" fill="white"/>
<path fill-rule="evenodd" clip-rule="evenodd" d="M121.966 92.7851C127.85 92.4232 133.281 92.0613 139.436 92.8741C146.462 93.8054 145.752 103.609 142.241 105.365C138.982 106.995 135.905 106.725 135.905 106.725H123.414C114.326 107.239 113.995 93.2765 121.966 92.7851Z" fill="white"/>
<path fill-rule="evenodd" clip-rule="evenodd" d="M121.966 107.494C127.85 107.132 133.281 106.77 139.436 107.583C146.462 108.514 145.752 118.318 142.241 120.074C138.982 121.703 135.905 121.431 135.905 121.431H123.414C114.326 121.948 113.995 107.982 121.966 107.494Z" fill="white"/>
<path fill-rule="evenodd" clip-rule="evenodd" d="M121.966 122.339C127.85 121.977 133.281 121.615 139.436 122.428C146.462 123.359 145.752 133.163 142.241 134.919C138.982 136.548 135.905 136.275 135.905 136.275H123.414C114.326 136.793 113.995 122.827 121.966 122.339Z" fill="white"/>
<path fill-rule="evenodd" clip-rule="evenodd" d="M92.0107 70.8965C97.8955 70.5346 103.326 70.1727 109.481 70.9885C116.506 71.9197 115.797 81.7238 112.285 83.4797C109.027 85.1091 105.95 84.8362 105.95 84.8362H93.4584C84.3701 85.3533 84.0398 71.3879 92.0107 70.8965Z" fill="white"/>
<path fill-rule="evenodd" clip-rule="evenodd" d="M92.0107 85.6051C97.8955 85.2461 103.326 84.8834 109.481 85.697C116.506 86.6276 115.797 96.4324 112.285 98.1875C109.027 99.8169 105.95 99.544 105.95 99.544H93.4584C84.3701 100.061 84.0398 86.0965 92.0107 85.6051Z" fill="white"/>
<path fill-rule="evenodd" clip-rule="evenodd" d="M92.0107 129.643C97.8955 129.281 103.326 128.918 109.481 129.732C116.506 130.662 115.797 140.467 112.285 142.222C109.027 143.852 105.95 143.579 105.95 143.579H93.4584C84.3701 144.096 84.0398 130.131 92.0107 129.643Z" fill="white"/>
<path fill-rule="evenodd" clip-rule="evenodd" d="M61.8015 26.1047C67.6833 25.7428 73.1143 25.3801 79.269 26.1937C86.2948 27.125 85.5849 36.9291 82.0768 38.6842C78.8181 40.3136 75.7404 40.0407 75.7404 40.0407H63.2499C54.1586 40.5578 53.8305 26.5931 61.8015 26.1047Z" fill="white"/>
<path fill-rule="evenodd" clip-rule="evenodd" d="M61.8015 70.8965C67.6833 70.5346 73.1143 70.1727 79.269 70.9885C86.2948 71.9197 85.5849 81.7238 82.0768 83.4797C78.8181 85.1091 75.7404 84.8362 75.7404 84.8362H63.2499C54.1586 85.3533 53.8305 71.3879 61.8015 70.8965Z" fill="white"/>
<path fill-rule="evenodd" clip-rule="evenodd" d="M61.8015 85.6051C67.6833 85.2461 73.1143 84.8834 79.269 85.697C86.2948 86.6276 85.5849 96.4324 82.0768 98.1875C78.8181 99.8169 75.7404 99.544 75.7404 99.544H63.2499C54.1586 100.061 53.8305 86.0965 61.8015 85.6051Z" fill="white"/>
<path fill-rule="evenodd" clip-rule="evenodd" d="M61.8015 129.643C67.6833 129.281 73.1143 128.918 79.269 129.732C86.2948 130.662 85.5849 140.467 82.0768 142.222C78.8181 143.852 75.7404 143.579 75.7404 143.579H63.2499C54.1586 144.096 53.8305 130.131 61.8015 129.643Z" fill="white"/>
<path fill-rule="evenodd" clip-rule="evenodd" d="M121.966 33.6445C127.85 33.2825 133.281 32.9199 139.436 33.7364C146.462 34.6647 145.752 44.4688 142.241 46.224C138.982 47.8533 135.905 47.5834 135.905 47.5834H123.414C114.326 48.1005 113.995 34.1358 121.966 33.6445Z" fill="white"/>
<path fill-rule="evenodd" clip-rule="evenodd" d="M31.8439 47.6202C37.7287 47.2583 43.1596 46.8964 49.3114 47.7122C56.3372 48.6434 55.6303 58.4475 52.1185 60.2034C48.8605 61.8328 45.7828 61.5598 45.7828 61.5598H33.2915C24.2032 62.077 23.8729 48.1116 31.8439 47.6202Z" fill="white"/>
<path fill-rule="evenodd" clip-rule="evenodd" d="M31.8439 62.2975C37.7287 61.9355 43.1596 61.5736 49.3114 62.3894C56.3372 63.3177 55.6303 73.1248 52.1185 74.8807C48.8605 76.51 45.7828 76.2364 45.7828 76.2364H33.2915C24.2032 76.7542 23.8729 62.7888 31.8439 62.2975Z" fill="white"/>
<path fill-rule="evenodd" clip-rule="evenodd" d="M31.8439 77.0059C37.7287 76.644 43.1596 76.2821 49.3114 77.0949C56.3372 78.0262 55.6303 87.8303 52.1185 89.5861C48.8605 91.2155 45.7828 90.9455 45.7828 90.9455H33.2915C24.2032 91.4597 23.8729 77.4973 31.8439 77.0059Z" fill="white"/>
<path fill-rule="evenodd" clip-rule="evenodd" d="M31.8439 107.494C37.7287 107.132 43.1596 106.77 49.3114 107.583C56.3372 108.514 55.6303 118.318 52.1185 120.074C48.8605 121.703 45.7828 121.431 45.7828 121.431H33.2915C24.2032 121.948 23.8729 107.982 31.8439 107.494Z" fill="white"/>
<path fill-rule="evenodd" clip-rule="evenodd" d="M31.8439 122.339C37.7287 121.977 43.1596 121.615 49.3114 122.428C56.3372 123.359 55.6303 133.163 52.1185 134.919C48.8605 136.548 45.7828 136.275 45.7828 136.275H33.2915C24.2032 136.793 23.8729 122.827 31.8439 122.339Z" fill="white"/>
<path fill-rule="evenodd" clip-rule="evenodd" d="M31.8439 32.9084C37.7287 32.5465 43.1596 32.1839 49.3114 33.0004C56.3372 33.9287 55.6303 43.7328 52.1185 45.488C48.8605 47.1173 45.7828 46.8473 45.7828 46.8473H33.2915C24.2032 47.3645 23.8729 33.3998 31.8439 32.9084Z" fill="white"/>
</svg>
