<svg width="100" height="21" viewBox="0 0 100 21" fill="none" xmlns="http://www.w3.org/2000/svg">
<path d="M11.8513 20.3668C11.3282 20.4491 10.7921 20.4918 10.2459 20.4918C9.73663 20.4918 9.23604 20.4546 8.74668 20.3829V0.108905C9.23604 0.0371559 9.73663 0 10.2459 0C10.9419 0 11.6218 0.069406 12.2789 0.201675L12.1617 0.179408L11.8513 0.125269V20.3668Z" fill="#273A34"/>
<path d="M11.884 20.3616C11.9427 20.3521 12.0013 20.3422 12.0597 20.3318L11.884 20.3616Z" fill="#273A34"/>
<path d="M12.2948 20.2869C13.4788 20.0466 14.5886 19.6021 15.586 18.9919C15.5799 18.995 15.5766 18.9967 15.5766 18.9967V1.4942C14.5817 0.886871 13.4751 0.444439 12.2948 0.204893V20.2869Z" fill="#273A34"/>
<path d="M15.973 1.74887L16.0201 1.78119V18.711C18.7199 16.8658 20.4918 13.7628 20.4918 10.2459C20.4918 6.70862 18.6993 3.59001 15.973 1.74887Z" fill="#273A34"/>
<path d="M8.41357 0.163377C8.40222 0.165427 8.39087 0.167495 8.37953 0.169582L8.41357 0.163377Z" fill="#273A34"/>
<path d="M8.30318 0.183936C7.15983 0.403377 6.08405 0.81286 5.10999 1.37823V19.1135L5.03926 19.0721C6.04401 19.6661 7.15899 20.0934 8.34613 20.316L8.30318 20.3078V0.183936Z" fill="#273A34"/>
<path d="M4.66648 18.8409V1.65095C1.85746 3.47817 0 6.64512 0 10.2459C0 13.8467 1.85746 17.0136 4.66648 18.8409Z" fill="#273A34"/>
<path d="M4.72738 1.61164C4.74099 1.60297 4.75594 1.59344 4.77123 1.58371C4.75659 1.59299 4.74198 1.6023 4.72738 1.61164Z" fill="#273A34"/>
<path fill-rule="evenodd" clip-rule="evenodd" d="M11.0951 3.1478C11.8047 3.10416 12.4595 3.06043 13.2017 3.15853C14.0488 3.27083 13.9633 4.45303 13.5399 4.66467C13.1469 4.86114 12.7759 4.82824 12.7759 4.82824H11.2697C10.1738 4.89059 10.1339 3.2067 11.0951 3.1478Z" fill="white"/>
<path fill-rule="evenodd" clip-rule="evenodd" d="M14.7071 5.84026C15.4167 5.79661 16.0716 5.75297 16.8138 5.85134C17.661 5.96364 17.5754 7.14584 17.152 7.35757C16.7591 7.55404 16.388 7.52113 16.388 7.52113H14.8818C13.7859 7.58349 13.746 5.89951 14.7071 5.84026Z" fill="white"/>
<path fill-rule="evenodd" clip-rule="evenodd" d="M14.7071 9.41462C15.4167 9.37097 16.0716 9.32733 16.8138 9.4257C17.661 9.53764 17.5754 10.7202 17.152 10.9319C16.7591 11.1284 16.388 11.0954 16.388 11.0954H14.8818C13.7859 11.1578 13.746 9.47387 14.7071 9.41462Z" fill="white"/>
<path fill-rule="evenodd" clip-rule="evenodd" d="M14.7071 11.1883C15.4167 11.1447 16.0716 11.101 16.8138 11.199C17.661 11.3113 17.5754 12.4935 17.152 12.7053C16.7591 12.9017 16.388 12.8692 16.388 12.8692H14.8818C13.7859 12.9312 13.746 11.2475 14.7071 11.1883Z" fill="white"/>
<path fill-rule="evenodd" clip-rule="evenodd" d="M14.7071 12.9619C15.4167 12.9183 16.0716 12.8746 16.8138 12.9727C17.661 13.0849 17.5754 14.2671 17.152 14.4789C16.7591 14.6754 16.388 14.6424 16.388 14.6424H14.8818C13.7859 14.7048 13.746 13.0208 14.7071 12.9619Z" fill="white"/>
<path fill-rule="evenodd" clip-rule="evenodd" d="M14.7071 14.752C15.4167 14.7083 16.0716 14.6647 16.8138 14.7627C17.661 14.875 17.5754 16.0572 17.152 16.2689C16.7591 16.4653 16.388 16.4324 16.388 16.4324H14.8818C13.7859 16.4948 13.746 14.8108 14.7071 14.752Z" fill="white"/>
<path fill-rule="evenodd" clip-rule="evenodd" d="M11.0951 8.54892C11.8047 8.50527 12.4595 8.46163 13.2017 8.56C14.0488 8.6723 13.9633 9.8545 13.5399 10.0662C13.1469 10.2627 12.7759 10.2298 12.7759 10.2298H11.2697C10.1738 10.2922 10.1339 8.60817 11.0951 8.54892Z" fill="white"/>
<path fill-rule="evenodd" clip-rule="evenodd" d="M11.0951 10.3225C11.8047 10.2792 12.4595 10.2355 13.2017 10.3336C14.0488 10.4458 13.9633 11.6281 13.5399 11.8397C13.1469 12.0362 12.7759 12.0033 12.7759 12.0033H11.2697C10.1738 12.0657 10.1339 10.3818 11.0951 10.3225Z" fill="white"/>
<path fill-rule="evenodd" clip-rule="evenodd" d="M11.0951 15.6327C11.8047 15.5891 12.4595 15.5453 13.2017 15.6434C14.0488 15.7556 13.9633 16.9379 13.5399 17.1496C13.1469 17.346 12.7759 17.3131 12.7759 17.3131H11.2697C10.1738 17.3755 10.1339 15.6916 11.0951 15.6327Z" fill="white"/>
<path fill-rule="evenodd" clip-rule="evenodd" d="M7.45239 3.1478C8.16164 3.10416 8.81651 3.06043 9.55867 3.15853C10.4059 3.27083 10.3203 4.45303 9.89724 4.66467C9.5043 4.86114 9.13317 4.82824 9.13317 4.82824H7.62704C6.53079 4.89059 6.49123 3.2067 7.45239 3.1478Z" fill="white"/>
<path fill-rule="evenodd" clip-rule="evenodd" d="M7.45239 8.54892C8.16164 8.50527 8.81651 8.46163 9.55867 8.56C10.4059 8.6723 10.3203 9.8545 9.89724 10.0662C9.5043 10.2627 9.13317 10.2298 9.13317 10.2298H7.62704C6.53079 10.2922 6.49123 8.60817 7.45239 8.54892Z" fill="white"/>
<path fill-rule="evenodd" clip-rule="evenodd" d="M7.45239 10.3225C8.16164 10.2792 8.81651 10.2355 9.55867 10.3336C10.4059 10.4458 10.3203 11.6281 9.89724 11.8397C9.5043 12.0362 9.13317 12.0033 9.13317 12.0033H7.62704C6.53079 12.0657 6.49123 10.3818 7.45239 10.3225Z" fill="white"/>
<path fill-rule="evenodd" clip-rule="evenodd" d="M7.45239 15.6327C8.16164 15.5891 8.81651 15.5453 9.55867 15.6434C10.4059 15.7556 10.3203 16.9379 9.89724 17.1496C9.5043 17.346 9.13317 17.3131 9.13317 17.3131H7.62704C6.53079 17.3755 6.49123 15.6916 7.45239 15.6327Z" fill="white"/>
<path fill-rule="evenodd" clip-rule="evenodd" d="M14.7071 4.05696C15.4167 4.01332 16.0716 3.96959 16.8138 4.06805C17.661 4.17999 17.5754 5.3622 17.152 5.57384C16.7591 5.77031 16.388 5.73775 16.388 5.73775H14.8818C13.7859 5.80011 13.746 4.11622 14.7071 4.05696Z" fill="white"/>
<path fill-rule="evenodd" clip-rule="evenodd" d="M3.84002 5.7422C4.54962 5.69856 5.2045 5.65492 5.9463 5.75329C6.79348 5.86558 6.70824 7.04778 6.28479 7.25951C5.89193 7.45598 5.52081 7.42308 5.52081 7.42308H4.01458C2.91869 7.48543 2.87886 5.80145 3.84002 5.7422Z" fill="white"/>
<path fill-rule="evenodd" clip-rule="evenodd" d="M3.84002 7.51202C4.54962 7.46838 5.2045 7.42474 5.9463 7.52311C6.79348 7.63505 6.70824 8.81761 6.28479 9.02933C5.89193 9.22581 5.52081 9.19281 5.52081 9.19281H4.01458C2.91869 9.25526 2.87886 7.57127 3.84002 7.51202Z" fill="white"/>
<path fill-rule="evenodd" clip-rule="evenodd" d="M3.84002 9.2856C4.54962 9.24196 5.2045 9.19832 5.9463 9.29633C6.79348 9.40863 6.70824 10.5908 6.28479 10.8026C5.89193 10.999 5.52081 10.9665 5.52081 10.9665H4.01458C2.91869 11.0285 2.87886 9.34485 3.84002 9.2856Z" fill="white"/>
<path fill-rule="evenodd" clip-rule="evenodd" d="M3.84002 12.9619C4.54962 12.9183 5.2045 12.8746 5.9463 12.9727C6.79348 13.0849 6.70824 14.2671 6.28479 14.4789C5.89193 14.6754 5.52081 14.6424 5.52081 14.6424H4.01458C2.91869 14.7048 2.87886 13.0208 3.84002 12.9619Z" fill="white"/>
<path fill-rule="evenodd" clip-rule="evenodd" d="M3.84002 14.752C4.54962 14.7083 5.2045 14.6647 5.9463 14.7627C6.79348 14.875 6.70824 16.0572 6.28479 16.2689C5.89193 16.4653 5.52081 16.4324 5.52081 16.4324H4.01458C2.91869 16.4948 2.87886 14.8108 3.84002 14.752Z" fill="white"/>
<path fill-rule="evenodd" clip-rule="evenodd" d="M3.84002 3.96821C4.54962 3.92457 5.2045 3.88084 5.9463 3.9793C6.79348 4.09124 6.70824 5.27344 6.28479 5.48508C5.89193 5.68156 5.52081 5.649 5.52081 5.649H4.01458C2.91869 5.71136 2.87886 4.02747 3.84002 3.96821Z" fill="white"/>
<path d="M30.599 15.4501C29.722 15.4501 28.9546 15.3092 28.2968 15.0273C27.639 14.7349 27.1274 14.3225 26.762 13.79C26.407 13.2576 26.2295 12.6416 26.2295 11.942V11.7228C26.2295 11.6497 26.2504 11.5922 26.2921 11.5505C26.3339 11.5087 26.3913 11.4878 26.4644 11.4878H28.8919C28.965 11.4878 29.0224 11.5087 29.0642 11.5505C29.1059 11.5922 29.1268 11.6497 29.1268 11.7228V11.8167C29.1268 12.1091 29.2782 12.3701 29.581 12.5998C29.8942 12.819 30.3066 12.9287 30.8182 12.9287C31.2046 12.9287 31.4812 12.8504 31.6483 12.6938C31.8153 12.5267 31.8989 12.344 31.8989 12.1456C31.8989 11.9159 31.7945 11.7436 31.5856 11.6288C31.3768 11.5139 30.9957 11.373 30.4424 11.2059L29.9882 11.0806C28.9546 10.7674 28.088 10.3498 27.3884 9.82775C26.6889 9.30571 26.3391 8.54875 26.3391 7.55687C26.3391 6.89909 26.5166 6.31963 26.8716 5.81847C27.2266 5.30687 27.7121 4.91534 28.3281 4.64387C28.9546 4.37241 29.6541 4.23668 30.4267 4.23668C31.2411 4.23668 31.9772 4.38807 32.6349 4.69086C33.3032 4.99364 33.8252 5.42172 34.2011 5.97508C34.5874 6.52844 34.7805 7.16012 34.7805 7.87009V8.01104C34.7805 8.08413 34.7597 8.14155 34.7179 8.18332C34.6761 8.22508 34.6187 8.24596 34.5456 8.24596H32.1181C32.045 8.24596 31.9876 8.22508 31.9458 8.18332C31.9041 8.14155 31.8832 8.08413 31.8832 8.01104V7.99538C31.8832 7.68216 31.7423 7.40025 31.4604 7.14967C31.1784 6.88865 30.7974 6.75814 30.3171 6.75814C29.983 6.75814 29.7167 6.82601 29.5184 6.96174C29.3304 7.09747 29.2365 7.2854 29.2365 7.52554C29.2365 7.71348 29.3043 7.87531 29.44 8.01104C29.5862 8.13633 29.8055 8.26162 30.0978 8.38691C30.3902 8.50176 30.8391 8.65315 31.4447 8.84109C31.5282 8.87241 31.8936 8.98726 32.541 9.18564C33.1988 9.37357 33.7469 9.72334 34.1854 10.2349C34.6239 10.7361 34.8432 11.3469 34.8432 12.0673C34.8432 12.7668 34.6657 13.3724 34.3107 13.884C33.9557 14.3852 33.4598 14.7715 32.8229 15.0429C32.186 15.3144 31.4447 15.4501 30.599 15.4501Z" fill="#273A34"/>
<path d="M43.591 10.6735C43.6223 10.9032 43.638 11.1381 43.638 11.3782C43.638 11.5453 43.6327 11.6758 43.6223 11.7697C43.6223 11.9159 43.544 11.989 43.3874 11.989H38.689C38.6472 11.989 38.6264 12.0099 38.6264 12.0516C38.6264 12.1456 38.6681 12.2552 38.7516 12.3805C38.8561 12.558 39.0388 12.7094 39.2998 12.8347C39.5712 12.9496 39.874 13.007 40.2081 13.007C40.49 13.007 40.7511 12.9652 40.9912 12.8817C41.2313 12.7982 41.4349 12.6781 41.602 12.5215C41.6542 12.4797 41.7064 12.4588 41.7586 12.4588C41.8317 12.4588 41.8891 12.4902 41.9309 12.5528L43.1211 14.0719C43.1629 14.1242 43.1838 14.1816 43.1838 14.2442C43.1838 14.3069 43.1577 14.3591 43.1055 14.4008C42.74 14.7558 42.2859 15.0221 41.7429 15.1996C41.2 15.3666 40.6153 15.4501 39.9889 15.4501C39.0179 15.4501 38.1878 15.2465 37.4987 14.8393C36.8096 14.4322 36.3085 13.8527 35.9953 13.101C35.7656 12.558 35.6507 11.9733 35.6507 11.3469C35.6507 10.6891 35.7447 10.1044 35.9326 9.59283C36.2145 8.79933 36.6791 8.1781 37.3265 7.72914C37.9738 7.28018 38.736 7.05571 39.613 7.05571C40.2812 7.05571 40.8972 7.21232 41.461 7.52554C42.0353 7.83877 42.5051 8.27206 42.8706 8.82543C43.2464 9.36835 43.4866 9.98436 43.591 10.6735ZM39.5974 9.57717C39.1693 9.57717 38.8717 9.78598 38.7047 10.2036L38.642 10.3759C38.6316 10.4072 38.6368 10.4333 38.6577 10.4542C38.6786 10.4646 38.6994 10.4699 38.7203 10.4699H40.5057C40.5475 10.4699 40.5683 10.449 40.5683 10.4072C40.5683 10.3655 40.5527 10.2976 40.5214 10.2036C40.4692 10.0052 40.3595 9.85385 40.1925 9.74944C40.0359 9.63459 39.8375 9.57717 39.5974 9.57717Z" fill="#273A34"/>
<path d="M54.0489 7.05571C54.8737 7.05571 55.5158 7.31151 55.9752 7.82311C56.4346 8.33471 56.6643 9.05513 56.6643 9.98436V15.0899C56.6643 15.163 56.6434 15.2204 56.6017 15.2622C56.5599 15.304 56.5025 15.3248 56.4294 15.3248H53.9549C53.8818 15.3248 53.8244 15.304 53.7827 15.2622C53.7409 15.2204 53.72 15.163 53.72 15.0899V10.6265C53.72 10.3132 53.6417 10.0627 53.4851 9.87473C53.3389 9.67636 53.1458 9.57717 52.9056 9.57717C52.655 9.57717 52.4514 9.67636 52.2948 9.87473C52.1382 10.0627 52.0599 10.3132 52.0599 10.6265V15.0899C52.0599 15.163 52.039 15.2204 51.9973 15.2622C51.9555 15.304 51.8981 15.3248 51.825 15.3248H49.3505C49.2774 15.3248 49.22 15.304 49.1782 15.2622C49.1365 15.2204 49.1156 15.163 49.1156 15.0899V10.6265C49.1156 10.3132 49.0321 10.0627 48.865 9.87473C48.7084 9.67636 48.4996 9.57717 48.2386 9.57717C48.0089 9.57717 47.8157 9.65025 47.6591 9.79643C47.5129 9.93216 47.419 10.1201 47.3772 10.3602C47.3668 10.3811 47.3615 10.4124 47.3615 10.4542V15.0899C47.3615 15.163 47.3407 15.2204 47.2989 15.2622C47.2571 15.304 47.1997 15.3248 47.1266 15.3248H44.6521C44.5791 15.3248 44.5216 15.304 44.4799 15.2622C44.4381 15.2204 44.4172 15.163 44.4172 15.0899V7.41592C44.4172 7.34283 44.4381 7.2854 44.4799 7.24364C44.5216 7.20188 44.5791 7.181 44.6521 7.181H47.1266C47.1997 7.181 47.2571 7.20188 47.2989 7.24364C47.3407 7.2854 47.3615 7.34283 47.3615 7.41592V8.19898C47.3615 8.24074 47.372 8.26162 47.3929 8.26162C47.4137 8.26162 47.4346 8.24596 47.4555 8.21464C47.8523 7.44202 48.5205 7.05571 49.4601 7.05571C49.9926 7.05571 50.4572 7.181 50.854 7.43158C51.2612 7.67172 51.5692 8.02148 51.778 8.48088C51.8093 8.53308 51.8407 8.52786 51.872 8.46522C52.0808 7.99538 52.3679 7.64561 52.7333 7.41592C53.1092 7.17578 53.5477 7.05571 54.0489 7.05571Z" fill="#273A34"/>
<path d="M65.6183 9.53018C65.7749 10.0522 65.8532 10.6369 65.8532 11.2842C65.8532 12.036 65.7383 12.7042 65.5086 13.2889C65.2581 13.9258 64.8665 14.4478 64.3341 14.855C63.8016 15.2518 63.1647 15.4501 62.4234 15.4501C61.6612 15.4501 61.0974 15.21 60.732 14.7297C60.7111 14.7088 60.6902 14.7036 60.6693 14.7141C60.6484 14.7141 60.638 14.7297 60.638 14.761V17.909C60.638 17.982 60.6171 18.0395 60.5754 18.0812C60.5336 18.123 60.4762 18.1439 60.4031 18.1439H57.9286C57.8555 18.1439 57.7981 18.123 57.7563 18.0812C57.7146 18.0395 57.6937 17.982 57.6937 17.909V7.41592C57.6937 7.34283 57.7146 7.2854 57.7563 7.24364C57.7981 7.20188 57.8555 7.181 57.9286 7.181H60.4031C60.4762 7.181 60.5336 7.20188 60.5754 7.24364C60.6171 7.2854 60.638 7.34283 60.638 7.41592V7.88575C60.638 7.91708 60.6484 7.93796 60.6693 7.9484C60.6902 7.95884 60.7111 7.9484 60.732 7.91708C61.1183 7.34283 61.7238 7.05571 62.5487 7.05571C63.2482 7.05571 63.8747 7.28018 64.428 7.72914C64.9918 8.16766 65.3886 8.768 65.6183 9.53018ZM62.533 12.4119C62.6896 12.1091 62.7679 11.7175 62.7679 11.2373C62.7679 10.7674 62.6896 10.3863 62.533 10.094C62.3451 9.74944 62.0684 9.57717 61.703 9.57717C61.3375 9.57717 61.0609 9.75466 60.8729 10.1097C60.7163 10.402 60.638 10.7779 60.638 11.2373C60.638 11.7384 60.7215 12.1404 60.8886 12.4432C61.0765 12.7668 61.348 12.9287 61.703 12.9287C62.0788 12.9287 62.3555 12.7564 62.533 12.4119Z" fill="#273A34"/>
<path d="M70.5688 15.4501C69.5769 15.4501 68.7365 15.1839 68.0474 14.6514C67.3687 14.1189 66.9198 13.3985 66.7005 12.4902C66.5961 12.1143 66.5439 11.6967 66.5439 11.2373C66.5439 10.7257 66.6065 10.261 66.7318 9.84341C66.9824 8.97682 67.4418 8.29817 68.11 7.80745C68.7887 7.30629 69.6135 7.05571 70.5845 7.05571C71.5555 7.05571 72.3699 7.30629 73.0276 7.80745C73.6959 8.29817 74.1553 8.96638 74.4058 9.81209C74.5311 10.2506 74.5938 10.7152 74.5938 11.2059C74.5938 11.6027 74.552 11.9994 74.4685 12.3962C74.2492 13.3359 73.795 14.0824 73.1059 14.6358C72.4273 15.1787 71.5816 15.4501 70.5688 15.4501ZM70.5688 12.9287C70.8403 12.9287 71.0595 12.8399 71.2266 12.6624C71.3936 12.4745 71.5085 12.2291 71.5711 11.9264C71.6129 11.728 71.6338 11.4931 71.6338 11.2216C71.6338 10.9815 71.6077 10.7413 71.5555 10.5012C71.3989 9.88517 71.07 9.57717 70.5688 9.57717C70.0468 9.57717 69.7179 9.88517 69.5822 10.5012C69.53 10.6787 69.5039 10.9188 69.5039 11.2216C69.5039 11.4931 69.5247 11.728 69.5665 11.9264C69.7231 12.5946 70.0572 12.9287 70.5688 12.9287Z" fill="#273A34"/>
<path d="M78.9886 7.05571C79.6986 7.05571 80.3511 7.17578 80.9462 7.41592C81.5414 7.65605 82.0112 7.98494 82.3558 8.40257C82.7003 8.82021 82.8726 9.27438 82.8726 9.7651V15.0899C82.8726 15.163 82.8517 15.2204 82.8099 15.2622C82.7682 15.304 82.7107 15.3248 82.6376 15.3248H80.1632C80.0901 15.3248 80.0327 15.304 79.9909 15.2622C79.9491 15.2204 79.9283 15.163 79.9283 15.0899V14.5418C79.9283 14.5 79.9178 14.4791 79.8969 14.4791C79.8865 14.4687 79.8708 14.4791 79.8499 14.5105C79.6725 14.8341 79.4271 15.0743 79.1139 15.2309C78.8006 15.3771 78.3882 15.4501 77.8766 15.4501C77.0205 15.4501 76.347 15.257 75.8563 14.8707C75.3656 14.4739 75.1203 13.8997 75.1203 13.1479C75.1203 12.3544 75.3969 11.7436 75.9503 11.3156C76.5141 10.8875 77.3285 10.6735 78.3935 10.6735H79.8499C79.9022 10.6735 79.9283 10.6474 79.9283 10.5951V10.3132C79.9283 10.094 79.8447 9.9165 79.6777 9.78076C79.5211 9.64503 79.307 9.57717 79.0356 9.57717C78.8476 9.57717 78.6806 9.60849 78.5344 9.67114C78.3882 9.73378 78.2838 9.81731 78.2212 9.92172C78.1794 9.9948 78.1377 10.047 78.0959 10.0783C78.0646 10.0992 78.0176 10.1044 77.9549 10.094L75.4335 9.78076C75.2873 9.75988 75.2142 9.69724 75.2142 9.59283C75.256 9.12299 75.4439 8.69492 75.778 8.30861C76.1121 7.9223 76.5559 7.61951 77.1092 7.40025C77.673 7.17056 78.2995 7.05571 78.9886 7.05571ZM78.785 13.4142C79.1191 13.4142 79.3906 13.3254 79.5994 13.1479C79.8186 12.9704 79.9283 12.7303 79.9283 12.4275V12.2239C79.9283 12.1717 79.9022 12.1456 79.8499 12.1456H79.0669C78.4091 12.1456 78.0802 12.3597 78.0802 12.7877C78.0802 12.9757 78.1377 13.1271 78.2525 13.2419C78.3778 13.3568 78.5553 13.4142 78.785 13.4142Z" fill="#273A34"/>
<path d="M85.3477 15.4501C84.9196 15.4501 84.5646 15.3144 84.2827 15.0429C84.0112 14.761 83.8755 14.4061 83.8755 13.978C83.8755 13.5395 84.0112 13.1845 84.2827 12.913C84.5646 12.6416 84.9196 12.5058 85.3477 12.5058C85.7757 12.5058 86.1255 12.6416 86.397 12.913C86.6789 13.1845 86.8198 13.5395 86.8198 13.978C86.8198 14.3956 86.6789 14.7454 86.397 15.0273C86.1151 15.3092 85.7653 15.4501 85.3477 15.4501Z" fill="#273A34"/>
<path d="M89.5241 6.63285C89.096 6.63285 88.741 6.49712 88.4591 6.22566C88.1876 5.94376 88.0519 5.58877 88.0519 5.16069C88.0519 4.72218 88.1876 4.36719 88.4591 4.09573C88.741 3.82427 89.096 3.68854 89.5241 3.68854C89.9522 3.68854 90.3019 3.82427 90.5734 4.09573C90.8553 4.36719 90.9962 4.72218 90.9962 5.16069C90.9962 5.57833 90.8553 5.9281 90.5734 6.21C90.3019 6.4919 89.9522 6.63285 89.5241 6.63285ZM88.2712 15.3248C88.1981 15.3248 88.1407 15.304 88.0989 15.2622C88.0571 15.2204 88.0363 15.163 88.0363 15.0899V7.41592C88.0363 7.34283 88.0571 7.2854 88.0989 7.24364C88.1407 7.20188 88.1981 7.181 88.2712 7.181H90.7457C90.8187 7.181 90.8762 7.20188 90.9179 7.24364C90.9597 7.2854 90.9806 7.34283 90.9806 7.41592V15.0899C90.9806 15.163 90.9597 15.2204 90.9179 15.2622C90.8762 15.304 90.8187 15.3248 90.7457 15.3248H88.2712Z" fill="#273A34"/>
<path d="M97.0557 4.59689C97.0557 4.5238 97.0766 4.46638 97.1183 4.42462C97.1601 4.38285 97.2175 4.36197 97.2906 4.36197H99.7651C99.8382 4.36197 99.8956 4.38285 99.9373 4.42462C99.9791 4.46638 100 4.5238 100 4.59689V15.0899C100 15.163 99.9791 15.2204 99.9373 15.2622C99.8956 15.304 99.8382 15.3248 99.7651 15.3248H97.2906C97.2175 15.3248 97.1601 15.304 97.1183 15.2622C97.0766 15.2204 97.0557 15.163 97.0557 15.0899V14.6201C97.0557 14.5888 97.0452 14.5679 97.0243 14.5574C97.0035 14.547 96.9826 14.5574 96.9617 14.5888C96.5754 15.163 95.9698 15.4501 95.145 15.4501C94.4455 15.4501 93.8138 15.2309 93.25 14.7924C92.6966 14.3434 92.3051 13.7378 92.0754 12.9757C91.9188 12.4536 91.8405 11.8689 91.8405 11.2216C91.8405 10.4699 91.9553 9.80165 92.185 9.21696C92.4356 8.58007 92.8271 8.06325 93.3596 7.6665C93.8921 7.2593 94.529 7.05571 95.2703 7.05571C96.0325 7.05571 96.5963 7.29585 96.9617 7.77612C96.9826 7.79701 97.0035 7.80745 97.0243 7.80745C97.0452 7.79701 97.0557 7.77612 97.0557 7.7448V4.59689ZM96.8207 12.3962C96.9774 12.0934 97.0557 11.7175 97.0557 11.2686C97.0557 10.7674 96.9721 10.3655 96.8051 10.0627C96.6172 9.739 96.3457 9.57717 95.9907 9.57717C95.6148 9.57717 95.3382 9.74944 95.1607 10.094C95.004 10.3863 94.9257 10.7779 94.9257 11.2686C94.9257 11.7384 95.004 12.1195 95.1607 12.4119C95.3486 12.7564 95.6253 12.9287 95.9907 12.9287C96.3561 12.9287 96.6328 12.7512 96.8207 12.3962Z" fill="#273A34"/>
</svg>
