<svg width="100" height="100" viewBox="0 0 100 100" fill="none" xmlns="http://www.w3.org/2000/svg">
<path d="M50 90C72.0914 90 90 72.0914 90 50C90 27.9086 72.0914 10 50 10C27.9086 10 10 27.9086 10 50C10 72.0914 27.9086 90 50 90Z" fill="#273A34"/>
<path d="M28.2178 16.4436C28.2178 16.4436 28.8641 16.0301 29.0835 15.8944C29.3963 15.7009 29.9492 15.3804 29.9492 15.3804V84.6189L29.0835 84.113L28.2178 83.5557V16.4436Z" fill="white"/>
<path d="M42.4155 10.7165L43.4544 10.5271L44.147 10.4243V89.5753L43.4544 89.4806L42.4155 89.2817V10.7165Z" fill="white"/>
<path d="M72.543 16.954L71.5041 16.2408L70.8115 15.8323V84.1632C70.8115 84.1632 71.331 83.9021 71.8504 83.5747C72.3698 83.2474 72.543 83.0553 72.543 83.0553V16.954Z" fill="white"/>
<path d="M57.9985 10.7989L57.4791 10.7001L56.2671 10.4888V89.5129L57.4791 89.3073L57.9985 89.2004V10.7989Z" fill="white"/>
<path fill-rule="evenodd" clip-rule="evenodd" d="M53.3142 22.2886C56.0845 22.1183 58.6408 21.9475 61.5385 22.3305C64.8456 22.7689 64.5118 27.3843 62.8586 28.2105C61.3245 28.9775 59.876 28.8491 59.876 28.8491H53.9957C49.7173 29.0925 49.5618 22.5186 53.3142 22.2886Z" fill="white"/>
<path fill-rule="evenodd" clip-rule="evenodd" d="M67.4156 32.8002C70.1859 32.6298 72.7426 32.4595 75.6399 32.8435C78.9473 33.2819 78.6132 37.8972 76.9603 38.7238C75.4263 39.4908 73.9778 39.3624 73.9778 39.3624H68.0975C63.8191 39.6058 63.6633 33.0315 67.4156 32.8002Z" fill="white"/>
<path fill-rule="evenodd" clip-rule="evenodd" d="M67.4156 46.7546C70.1859 46.5842 72.7426 46.4138 75.6399 46.7979C78.9473 47.2349 78.6132 51.8516 76.9603 52.6782C75.4263 53.4452 73.9778 53.3164 73.9778 53.3164H68.0975C63.8191 53.5601 63.6633 46.9859 67.4156 46.7546Z" fill="white"/>
<path fill-rule="evenodd" clip-rule="evenodd" d="M67.4156 53.6789C70.1859 53.5085 72.7426 53.3381 75.6399 53.7208C78.9473 54.1592 78.6132 58.7745 76.9603 59.6011C75.4263 60.3681 73.9778 60.241 73.9778 60.241H68.0975C63.8191 60.4831 63.6633 53.9102 67.4156 53.6789Z" fill="white"/>
<path fill-rule="evenodd" clip-rule="evenodd" d="M67.4156 60.6032C70.1859 60.4328 72.7426 60.2624 75.6399 60.6451C78.9473 61.0835 78.6132 65.6988 76.9603 66.5254C75.4263 67.2924 73.9778 67.164 73.9778 67.164H68.0975C63.8191 67.4074 63.6633 60.8331 67.4156 60.6032Z" fill="white"/>
<path fill-rule="evenodd" clip-rule="evenodd" d="M67.4156 67.5915C70.1859 67.4211 72.7426 67.2507 75.6399 67.6334C78.9473 68.0718 78.6132 72.6871 76.9603 73.5137C75.4263 74.2804 73.9778 74.1519 73.9778 74.1519H68.0975C63.8191 74.3957 63.6633 67.8214 67.4156 67.5915Z" fill="white"/>
<path fill-rule="evenodd" clip-rule="evenodd" d="M53.3142 43.3749C56.0845 43.2046 58.6408 43.0342 61.5385 43.4182C64.8456 43.8566 64.5118 48.4719 62.8586 49.2985C61.3245 50.0656 59.876 49.9371 59.876 49.9371H53.9957C49.7173 50.1805 49.5618 43.6062 53.3142 43.3749Z" fill="white"/>
<path fill-rule="evenodd" clip-rule="evenodd" d="M53.3142 50.2988C56.0845 50.1299 58.6408 49.9591 61.5385 50.3421C64.8456 50.7802 64.5118 55.3958 62.8586 56.2221C61.3245 56.9891 59.876 56.8607 59.876 56.8607H53.9957C49.7173 57.1041 49.5618 50.5302 53.3142 50.2988Z" fill="white"/>
<path fill-rule="evenodd" clip-rule="evenodd" d="M53.3142 71.0301C56.0845 70.8597 58.6408 70.689 61.5385 71.072C64.8456 71.5101 64.5118 76.1257 62.8586 76.952C61.3245 77.719 59.876 77.5905 59.876 77.5905H53.9957C49.7173 77.8339 49.5618 71.26 53.3142 71.0301Z" fill="white"/>
<path fill-rule="evenodd" clip-rule="evenodd" d="M39.0934 22.2886C41.8623 22.1183 44.4189 21.9475 47.3163 22.3305C50.6237 22.7689 50.2895 27.3843 48.6381 28.2105C47.104 28.9775 45.6552 28.8491 45.6552 28.8491H39.7752C35.4954 29.0925 35.341 22.5186 39.0934 22.2886Z" fill="white"/>
<path fill-rule="evenodd" clip-rule="evenodd" d="M39.0934 43.3749C41.8623 43.2046 44.4189 43.0342 47.3163 43.4182C50.6237 43.8566 50.2895 48.4719 48.6381 49.2985C47.104 50.0656 45.6552 49.9371 45.6552 49.9371H39.7752C35.4954 50.1805 35.341 43.6062 39.0934 43.3749Z" fill="white"/>
<path fill-rule="evenodd" clip-rule="evenodd" d="M39.0934 50.2988C41.8623 50.1299 44.4189 49.9591 47.3163 50.3421C50.6237 50.7802 50.2895 55.3958 48.6381 56.2221C47.104 56.9891 45.6552 56.8607 45.6552 56.8607H39.7752C35.4954 57.1041 35.341 50.5302 39.0934 50.2988Z" fill="white"/>
<path fill-rule="evenodd" clip-rule="evenodd" d="M39.0934 71.0301C41.8623 70.8597 44.4189 70.689 47.3163 71.072C50.6237 71.5101 50.2895 76.1257 48.6381 76.952C47.104 77.719 45.6552 77.5905 45.6552 77.5905H39.7752C35.4954 77.8339 35.341 71.26 39.0934 71.0301Z" fill="white"/>
<path fill-rule="evenodd" clip-rule="evenodd" d="M67.4156 25.8382C70.1859 25.6678 72.7426 25.4971 75.6399 25.8815C78.9473 26.3185 78.6132 30.9338 76.9603 31.7601C75.4263 32.5271 73.9778 32.4 73.9778 32.4H68.0975C63.8191 32.6434 63.6633 26.0695 67.4156 25.8382Z" fill="white"/>
<path fill-rule="evenodd" clip-rule="evenodd" d="M24.9905 32.4177C27.7608 32.2473 30.3174 32.0769 33.2134 32.4609C36.5208 32.8993 36.188 37.5147 34.5349 38.3412C33.0012 39.1083 31.5523 38.9798 31.5523 38.9798H25.672C21.3936 39.2232 21.2381 32.649 24.9905 32.4177Z" fill="white"/>
<path fill-rule="evenodd" clip-rule="evenodd" d="M24.9905 39.3268C27.7608 39.1565 30.3174 38.9861 33.2134 39.3701C36.5208 39.8071 36.188 44.4238 34.5349 45.2504C33.0012 46.0175 31.5523 45.8886 31.5523 45.8886H25.672C21.3936 46.1324 21.2381 39.5582 24.9905 39.3268Z" fill="white"/>
<path fill-rule="evenodd" clip-rule="evenodd" d="M24.9905 46.2511C27.7608 46.0808 30.3174 45.9104 33.2134 46.293C36.5208 46.7314 36.188 51.3468 34.5349 52.1734C33.0012 52.9404 31.5523 52.8133 31.5523 52.8133H25.672C21.3936 53.0553 21.2381 46.4825 24.9905 46.2511Z" fill="white"/>
<path fill-rule="evenodd" clip-rule="evenodd" d="M24.9905 60.6032C27.7608 60.4328 30.3174 60.2624 33.2134 60.6451C36.5208 61.0835 36.188 65.6988 34.5349 66.5254C33.0012 67.2924 31.5523 67.164 31.5523 67.164H25.672C21.3936 67.4074 21.2381 60.8331 24.9905 60.6032Z" fill="white"/>
<path fill-rule="evenodd" clip-rule="evenodd" d="M24.9905 67.5915C27.7608 67.4211 30.3174 67.2507 33.2134 67.6334C36.5208 68.0718 36.188 72.6871 34.5349 73.5137C33.0012 74.2804 31.5523 74.1519 31.5523 74.1519H25.672C21.3936 74.3957 21.2381 67.8214 24.9905 67.5915Z" fill="white"/>
<path fill-rule="evenodd" clip-rule="evenodd" d="M24.9905 25.4918C27.7608 25.3214 30.3174 25.1507 33.2134 25.5351C36.5208 25.9721 36.188 30.5874 34.5349 31.4136C33.0012 32.1807 31.5523 32.0536 31.5523 32.0536H25.672C21.3936 32.297 21.2381 25.7231 24.9905 25.4918Z" fill="white"/>
</svg>
