<svg width="500" height="170" viewBox="0 0 500 170" fill="none" xmlns="http://www.w3.org/2000/svg">
<path d="M259.317 76.2689C259.317 76.2689 258.932 76.0423 258.161 75.5891C257.391 75.1359 256.371 74.6374 255.102 74.0936C253.833 73.5045 252.451 72.9834 250.956 72.5302C249.46 72.077 247.987 71.8504 246.537 71.8504C245.404 71.8504 244.475 72.0317 243.75 72.3942C243.025 72.7568 242.663 73.3686 242.663 74.2296C242.663 75.4985 243.456 76.4048 245.042 76.9486C246.673 77.4471 248.871 78.1495 251.635 79.0559C254.626 79.9622 257.209 81.0045 259.385 82.1828C261.56 83.361 263.237 84.8792 264.415 86.7372C265.593 88.5499 266.182 90.9743 266.182 94.0106C266.182 96.9109 265.661 99.358 264.619 101.352C263.577 103.301 262.172 104.864 260.404 106.042C258.637 107.221 256.666 108.082 254.49 108.625C252.315 109.124 250.095 109.373 247.829 109.373C245.518 109.373 243.093 109.147 240.555 108.693C238.063 108.195 235.638 107.538 233.282 106.722C230.925 105.861 228.773 104.864 226.824 103.731L232.534 92.1073C232.534 92.1073 232.987 92.3792 233.894 92.923C234.8 93.4668 236.001 94.0786 237.496 94.7583C238.992 95.4381 240.646 96.0499 242.459 96.5937C244.317 97.1375 246.175 97.4094 248.033 97.4094C249.483 97.4094 250.48 97.2281 251.024 96.8656C251.613 96.4577 251.907 95.9366 251.907 95.3021C251.907 94.3505 251.409 93.6254 250.412 93.1269C249.415 92.5831 248.101 92.0846 246.469 91.6314C244.883 91.1329 243.116 90.5665 241.167 89.932C236.907 88.4819 233.803 86.7598 231.854 84.7659C229.906 82.7266 228.931 79.9396 228.931 76.4048C228.931 72.8247 229.77 69.8338 231.447 67.432C233.123 65.0302 235.321 63.2175 238.04 61.9939C240.805 60.725 243.773 60.0906 246.945 60.0906C249.302 60.0906 251.567 60.3851 253.743 60.9743C255.963 61.5181 258.025 62.1978 259.929 63.0135C261.877 63.8293 263.577 64.5996 265.027 65.3247L259.317 76.2689Z" fill="#31443E"/>
<path d="M289.103 109.441C284.934 109.441 281.376 108.603 278.431 106.926C275.53 105.249 273.31 103.029 271.769 100.264C270.274 97.5 269.526 94.5317 269.526 91.3595C269.526 87.9154 270.274 84.7659 271.769 81.9109C273.265 79.0106 275.462 76.6994 278.363 74.9773C281.263 73.2099 284.843 72.3263 289.103 72.3263C293.363 72.3263 296.943 73.1873 299.843 74.9093C302.743 76.6314 304.941 78.8973 306.437 81.7069C307.932 84.5166 308.68 87.5755 308.68 90.8837C308.68 92.2885 308.567 93.6027 308.34 94.8263H283.257C283.393 96.7296 284.095 98.1118 285.364 98.9728C286.633 99.7886 288.015 100.196 289.511 100.196C290.916 100.196 292.23 99.8792 293.453 99.2447C294.722 98.6103 295.561 97.7266 295.969 96.5937L306.913 99.7206C305.463 102.576 303.219 104.909 300.183 106.722C297.147 108.535 293.453 109.441 289.103 109.441ZM282.985 87.077H294.813C294.632 85.355 293.997 83.9955 292.91 82.9985C291.867 82.0015 290.53 81.503 288.899 81.503C287.268 81.503 285.931 82.0015 284.888 82.9985C283.846 83.9955 283.212 85.355 282.985 87.077Z" fill="#31443E"/>
<path d="M370.904 108.761H357.988V88.6405C357.988 86.8731 357.626 85.6042 356.901 84.8338C356.221 84.0181 355.382 83.6103 354.385 83.6103C353.388 83.6103 352.301 84.0861 351.123 85.0378C349.944 85.9894 349.083 87.213 348.539 88.7085V108.761H335.624V88.6405C335.624 86.8731 335.261 85.6042 334.536 84.8338C333.857 84.0181 333.018 83.6103 332.021 83.6103C331.024 83.6103 329.937 84.0861 328.758 85.0378C327.58 85.9894 326.719 87.213 326.175 88.7085V108.761H313.26V73.006H324.884V78.3081C327.467 74.3202 331.84 72.3263 338.003 72.3263C340.949 72.3263 343.169 72.9607 344.665 74.2296C346.16 75.4985 347.157 76.926 347.656 78.5121C348.925 76.5634 350.669 75.0453 352.89 73.9577C355.11 72.8701 357.603 72.3263 360.367 72.3263C362.724 72.3263 364.604 72.7568 366.009 73.6178C367.414 74.4788 368.456 75.5891 369.136 76.9486C369.861 78.3081 370.337 79.7356 370.564 81.2311C370.79 82.6813 370.904 84.0181 370.904 85.2417V108.761Z" fill="#31443E"/>
<path d="M401.59 109.441C396.242 109.441 392.526 107.447 390.442 103.459V123.24H377.526V73.006H388.742V78.3761C390.011 76.4275 391.575 74.932 393.433 73.8897C395.336 72.8474 397.625 72.3263 400.298 72.3263C403.471 72.3263 406.303 73.142 408.795 74.7734C411.288 76.3595 413.236 78.5347 414.641 81.2991C416.091 84.0634 416.817 87.213 416.817 90.7477C416.817 94.3278 416.159 97.5227 414.845 100.332C413.531 103.142 411.718 105.363 409.407 106.994C407.141 108.625 404.536 109.441 401.59 109.441ZM397.104 98.565C398.962 98.565 400.502 97.7946 401.726 96.2538C402.995 94.713 403.629 92.855 403.629 90.6798C403.629 88.4139 402.972 86.6012 401.658 85.2417C400.389 83.8822 398.69 83.2024 396.56 83.2024C394.203 83.2024 392.164 84.426 390.442 86.8731V93.0589C391.076 94.5997 392.005 95.9139 393.229 97.0015C394.452 98.0438 395.744 98.565 397.104 98.565Z" fill="#31443E"/>
<path d="M439.484 109.441C435.224 109.441 431.644 108.58 428.744 106.858C425.843 105.091 423.645 102.802 422.15 99.9925C420.655 97.1828 419.907 94.1465 419.907 90.8837C419.907 87.5755 420.655 84.5166 422.15 81.7069C423.645 78.8973 425.843 76.6314 428.744 74.9093C431.644 73.1873 435.224 72.3263 439.484 72.3263C443.744 72.3263 447.324 73.1873 450.224 74.9093C453.124 76.6314 455.322 78.8973 456.818 81.7069C458.313 84.5166 459.061 87.5755 459.061 90.8837C459.061 94.1465 458.313 97.1828 456.818 99.9925C455.322 102.802 453.124 105.091 450.224 106.858C447.324 108.58 443.744 109.441 439.484 109.441ZM433.162 90.8837C433.162 93.2402 433.751 95.1209 434.93 96.5257C436.153 97.8852 437.671 98.565 439.484 98.565C441.342 98.565 442.86 97.8852 444.038 96.5257C445.217 95.1209 445.806 93.2402 445.806 90.8837C445.806 88.4819 445.217 86.6012 444.038 85.2417C442.86 83.8822 441.342 83.2024 439.484 83.2024C437.671 83.2024 436.153 83.8822 434.93 85.2417C433.751 86.6012 433.162 88.4819 433.162 90.8837Z" fill="#31443E"/>
<path d="M462.001 97.9532C462.001 95.5514 462.659 93.4441 463.973 91.6314C465.287 89.7734 467.1 88.3233 469.411 87.281C471.767 86.2387 474.441 85.7175 477.432 85.7175C480.332 85.7175 482.734 86.1707 484.637 87.077V85.9894C484.637 84.3127 484.139 83.0665 483.142 82.2507C482.19 81.435 480.627 81.0272 478.452 81.0272C476.458 81.0272 474.577 81.3671 472.81 82.0468C471.088 82.6813 469.275 83.6329 467.372 84.9018L463.633 76.8806C468.346 73.8444 473.716 72.3263 479.743 72.3263C485.408 72.3263 489.781 73.6178 492.863 76.2009C495.989 78.7387 497.553 82.5227 497.553 87.5529V94.4864C497.553 95.71 497.734 96.571 498.097 97.0695C498.459 97.5227 499.094 97.7946 500 97.8852V108.761C498.958 108.988 497.961 109.147 497.009 109.237C496.103 109.373 495.287 109.441 494.562 109.441C492.251 109.441 490.483 109.033 489.26 108.218C488.082 107.357 487.311 106.11 486.949 104.479L486.677 103.187C483.414 107.357 479.358 109.441 474.509 109.441C472.153 109.441 470.023 108.943 468.119 107.946C466.216 106.949 464.721 105.589 463.633 103.867C462.545 102.1 462.001 100.128 462.001 97.9532ZM482.938 98.8369C484.071 98.0665 484.637 97.2281 484.637 96.3218V93.6707C483.912 93.3988 483.074 93.1722 482.122 92.991C481.216 92.8097 480.4 92.719 479.675 92.719C478.134 92.719 476.82 93.1042 475.733 93.8746C474.69 94.645 474.169 95.6194 474.169 96.7976C474.169 97.7946 474.554 98.6103 475.325 99.2447C476.14 99.8792 477.16 100.196 478.384 100.196C480.06 100.196 481.579 99.7432 482.938 98.8369Z" fill="#31443E"/>
<path d="M84.97 169.94C131.898 169.94 169.94 131.898 169.94 84.97C169.94 38.0424 131.898 0 84.97 0C38.0424 0 0 38.0424 0 84.97C0 131.898 38.0424 169.94 84.97 169.94Z" fill="#31443E"/>
<path d="M38.6995 13.688C38.6995 13.688 40.0725 12.8096 40.5385 12.5214C41.203 12.1103 42.3775 11.4294 42.3775 11.4294V158.509L40.5385 157.435L38.6995 156.251V13.688Z" fill="white"/>
<path d="M68.8589 1.52179L71.0657 1.1195L72.5369 0.901123V169.038L71.0657 168.836L68.8589 168.414V1.52179Z" fill="white"/>
<path d="M132.856 14.7715L130.649 13.2565L129.178 12.3887V157.541C129.178 157.541 130.281 156.986 131.385 156.291C132.488 155.595 132.856 155.187 132.856 155.187V14.7715Z" fill="white"/>
<path d="M101.961 1.69755L100.858 1.48779L98.2834 1.03882V168.906L100.858 168.469L101.961 168.242V1.69755Z" fill="white"/>
<path fill-rule="evenodd" clip-rule="evenodd" d="M92.0109 26.1047C97.8957 25.7428 103.326 25.3801 109.481 26.1937C116.506 27.125 115.797 36.9291 112.285 38.6842C109.027 40.3136 105.95 40.0407 105.95 40.0407H93.4585C84.3702 40.5578 84.0399 26.5931 92.0109 26.1047Z" fill="white"/>
<path fill-rule="evenodd" clip-rule="evenodd" d="M121.966 48.4335C127.851 48.0716 133.282 47.7097 139.436 48.5254C146.462 49.4567 145.752 59.2608 142.241 61.0167C138.982 62.646 135.905 62.3731 135.905 62.3731H123.414C114.326 62.8903 113.995 48.9249 121.966 48.4335Z" fill="white"/>
<path fill-rule="evenodd" clip-rule="evenodd" d="M121.966 78.0758C127.851 77.7139 133.282 77.352 139.436 78.1678C146.462 79.0961 145.752 88.9031 142.241 90.659C138.982 92.2884 135.905 92.0147 135.905 92.0147H123.414C114.326 92.5326 113.995 78.5672 121.966 78.0758Z" fill="white"/>
<path fill-rule="evenodd" clip-rule="evenodd" d="M121.966 92.785C127.851 92.4231 133.282 92.0612 139.436 92.8741C146.462 93.8053 145.752 103.609 142.241 105.365C138.982 106.995 135.905 106.725 135.905 106.725H123.414C114.326 107.239 113.995 93.2764 121.966 92.785Z" fill="white"/>
<path fill-rule="evenodd" clip-rule="evenodd" d="M121.966 107.494C127.851 107.132 133.282 106.77 139.436 107.583C146.462 108.514 145.752 118.318 142.241 120.074C138.982 121.703 135.905 121.43 135.905 121.43H123.414C114.326 121.948 113.995 107.982 121.966 107.494Z" fill="white"/>
<path fill-rule="evenodd" clip-rule="evenodd" d="M121.966 122.339C127.851 121.977 133.282 121.615 139.436 122.428C146.462 123.359 145.752 133.163 142.241 134.919C138.982 136.548 135.905 136.275 135.905 136.275H123.414C114.326 136.793 113.995 122.827 121.966 122.339Z" fill="white"/>
<path fill-rule="evenodd" clip-rule="evenodd" d="M92.0109 70.8964C97.8957 70.5345 103.326 70.1725 109.481 70.9883C116.506 71.9196 115.797 81.7237 112.285 83.4796C109.027 85.1089 105.95 84.836 105.95 84.836H93.4585C84.3702 85.3531 84.0399 71.3878 92.0109 70.8964Z" fill="white"/>
<path fill-rule="evenodd" clip-rule="evenodd" d="M92.0109 85.6049C97.8957 85.246 103.326 84.8833 109.481 85.6969C116.506 86.6274 115.797 96.4322 112.285 98.1874C109.027 99.8167 105.95 99.5439 105.95 99.5439H93.4585C84.3702 100.061 84.0399 86.0963 92.0109 85.6049Z" fill="white"/>
<path fill-rule="evenodd" clip-rule="evenodd" d="M92.0109 129.643C97.8957 129.281 103.326 128.918 109.481 129.732C116.506 130.662 115.797 140.467 112.285 142.222C109.027 143.852 105.95 143.579 105.95 143.579H93.4585C84.3702 144.096 84.0399 130.131 92.0109 129.643Z" fill="white"/>
<path fill-rule="evenodd" clip-rule="evenodd" d="M61.8016 26.1047C67.6835 25.7428 73.1144 25.3801 79.2692 26.1937C86.2949 27.125 85.585 36.9291 82.077 38.6842C78.8183 40.3136 75.7405 40.0407 75.7405 40.0407H63.25C54.1587 40.5578 53.8306 26.5931 61.8016 26.1047Z" fill="white"/>
<path fill-rule="evenodd" clip-rule="evenodd" d="M61.8016 70.8964C67.6835 70.5345 73.1144 70.1725 79.2692 70.9883C86.2949 71.9196 85.585 81.7237 82.077 83.4796C78.8183 85.1089 75.7405 84.836 75.7405 84.836H63.25C54.1587 85.3531 53.8306 71.3878 61.8016 70.8964Z" fill="white"/>
<path fill-rule="evenodd" clip-rule="evenodd" d="M61.8016 85.6049C67.6835 85.246 73.1144 84.8833 79.2692 85.6969C86.2949 86.6274 85.585 96.4322 82.077 98.1874C78.8183 99.8167 75.7405 99.5439 75.7405 99.5439H63.25C54.1587 100.061 53.8306 86.0963 61.8016 85.6049Z" fill="white"/>
<path fill-rule="evenodd" clip-rule="evenodd" d="M61.8016 129.643C67.6835 129.281 73.1144 128.918 79.2692 129.732C86.2949 130.662 85.585 140.467 82.077 142.222C78.8183 143.852 75.7405 143.579 75.7405 143.579H63.25C54.1587 144.096 53.8306 130.131 61.8016 129.643Z" fill="white"/>
<path fill-rule="evenodd" clip-rule="evenodd" d="M121.966 33.6445C127.851 33.2826 133.282 32.9199 139.436 33.7364C146.462 34.6648 145.752 44.4689 142.241 46.224C138.982 47.8534 135.905 47.5834 135.905 47.5834H123.414C114.326 48.1005 113.995 34.1359 121.966 33.6445Z" fill="white"/>
<path fill-rule="evenodd" clip-rule="evenodd" d="M31.8439 47.6203C37.7287 47.2583 43.1596 46.8964 49.3114 47.7122C56.3372 48.6435 55.6303 58.4476 52.1185 60.2034C48.8605 61.8328 45.7828 61.5599 45.7828 61.5599H33.2915C24.2032 62.077 23.8729 48.1116 31.8439 47.6203Z" fill="white"/>
<path fill-rule="evenodd" clip-rule="evenodd" d="M31.8439 62.2975C37.7287 61.9356 43.1596 61.5737 49.3114 62.3894C56.3372 63.3178 55.6303 73.1248 52.1185 74.8807C48.8605 76.5101 45.7828 76.2364 45.7828 76.2364H33.2915C24.2032 76.7543 23.8729 62.7889 31.8439 62.2975Z" fill="white"/>
<path fill-rule="evenodd" clip-rule="evenodd" d="M31.8439 77.0058C37.7287 76.6439 43.1596 76.2819 49.3114 77.0948C56.3372 78.026 55.6303 87.8301 52.1185 89.586C48.8605 91.2154 45.7828 90.9454 45.7828 90.9454H33.2915C24.2032 91.4596 23.8729 77.4972 31.8439 77.0058Z" fill="white"/>
<path fill-rule="evenodd" clip-rule="evenodd" d="M31.8439 107.494C37.7287 107.132 43.1596 106.77 49.3114 107.583C56.3372 108.514 55.6303 118.318 52.1185 120.074C48.8605 121.703 45.7828 121.43 45.7828 121.43H33.2915C24.2032 121.948 23.8729 107.982 31.8439 107.494Z" fill="white"/>
<path fill-rule="evenodd" clip-rule="evenodd" d="M31.8439 122.339C37.7287 121.977 43.1596 121.615 49.3114 122.428C56.3372 123.359 55.6303 133.163 52.1185 134.919C48.8605 136.548 45.7828 136.275 45.7828 136.275H33.2915C24.2032 136.793 23.8729 122.827 31.8439 122.339Z" fill="white"/>
<path fill-rule="evenodd" clip-rule="evenodd" d="M31.8439 32.9084C37.7287 32.5465 43.1596 32.1838 49.3114 33.0003C56.3372 33.9287 55.6303 43.7328 52.1185 45.4879C48.8605 47.1173 45.7828 46.8473 45.7828 46.8473H33.2915C24.2032 47.3644 23.8729 33.3998 31.8439 32.9084Z" fill="white"/>
</svg>