<svg width="18" height="14" viewBox="0 0 18 14" fill="none" xmlns="http://www.w3.org/2000/svg">
<path fill-rule="evenodd" clip-rule="evenodd" d="M16.8213 0.609231L0.64543 4.818C-0.0200693 4.98844 -0.126399 5.47709 0.411946 5.89966L1.99688 7.14644C2.53238 7.56481 3.48667 7.67018 4.11865 7.37307L13.6848 2.81581C14.314 2.5145 14.3519 2.5951 13.7678 2.99181L5.7019 8.47507C5.11795 8.86839 5.08339 9.53347 5.62089 9.95324L5.80725 10.0959C6.34615 10.5135 7.2236 11.2048 7.75344 11.6354L9.509 13.0421C10.0427 13.4703 10.4749 13.8241 10.477 13.8281C10.4761 13.8313 10.4758 13.8441 10.4788 13.8449C10.4802 13.8487 10.7716 13.3298 11.124 12.6957L17.387 1.44804C17.7399 0.815008 17.484 0.437189 16.8213 0.609231Z" fill="white"/>
</svg>
