<svg width="1894" height="1424" viewBox="0 0 1894 1424" fill="none" xmlns="http://www.w3.org/2000/svg">
<g opacity="0.5">
<path d="M979.954 392.855C899.098 394.236 820.176 373.785 749.791 334.471C644.665 275.753 427.756 182.244 240.367 278.587C-18.0986 411.478 7.43573 665.657 91.6848 791.873C175.937 918.088 712.943 1238.8 1347.24 1066.52C1914.85 912.366 1957.33 235.074 1638.84 167.461C1362.61 108.825 1299.79 387.387 979.954 392.855Z" fill="url(#paint0_linear)"/>
</g>
<g opacity="0.95">
<path d="M923.407 1320.32C917.315 1326.4 910.701 1332.22 903.527 1337.71C867.652 1365.26 818.065 1385 752.19 1391.59C415.311 1425.31 304.004 1267.28 276.79 1024.14C264.674 915.78 293.043 844.287 328.229 798.306C331.91 793.507 335.66 788.979 339.447 784.722C341.587 782.32 343.778 779.968 346.023 777.677C391.461 731.273 457.035 709.434 521.482 720.04C572.134 728.378 618.155 755.432 655.494 809.508C715.211 895.974 658.715 970.316 829.389 975.29C960.029 979.1 1042.81 1201.2 923.407 1320.32Z" fill="#FFBC3F"/>
<path d="M407.665 795.291C407.665 795.291 367.828 880.522 413.823 1036.99C459.818 1193.45 520.742 1181.12 560.098 1181.12C628.853 1181.12 768.097 1116.35 795.308 1065.33C822.518 1014.31 771.172 1011.26 675.02 1003.71C578.868 996.168 507.12 761.53 407.665 795.291Z" fill="#D57635"/>
<path d="M494.054 1246.78C493.296 1246.78 492.541 1246.48 491.978 1245.89C490.888 1244.74 490.934 1242.92 492.081 1241.83C526.465 1209.14 559.308 1189.88 580.804 1179.48C604.188 1168.17 619.248 1164.66 619.877 1164.52C621.422 1164.17 622.958 1165.13 623.307 1166.68C623.659 1168.22 622.695 1169.75 621.153 1170.1C620.461 1170.27 560.607 1184.58 496.025 1245.99C495.473 1246.52 494.761 1246.78 494.054 1246.78Z" fill="#D57635"/>
<path d="M505.413 1208.48C504.492 1208.48 503.585 1208.04 503.033 1207.22C502.149 1205.9 502.498 1204.12 503.811 1203.24C505.15 1202.34 537.155 1181.12 586.7 1175.71C588.267 1175.54 589.686 1176.67 589.858 1178.24C590.029 1179.82 588.894 1181.23 587.32 1181.4C539.169 1186.66 507.327 1207.78 507.009 1207.99C506.517 1208.32 505.962 1208.48 505.413 1208.48Z" fill="#D57635"/>
<path d="M401.532 971.76C400.107 971.76 398.875 970.701 398.692 969.251C394.533 936.108 380.274 910.77 369.047 895.35C356.835 878.585 345.457 869.569 345.342 869.481C344.098 868.505 343.881 866.703 344.856 865.459C345.832 864.212 347.631 863.994 348.878 864.97C349.361 865.35 360.889 874.455 373.554 891.806C385.231 907.798 400.056 934.091 404.378 968.539C404.575 970.109 403.463 971.542 401.892 971.74C401.772 971.751 401.652 971.76 401.532 971.76Z" fill="#D57635"/>
<path d="M923.408 1320.32C917.315 1326.4 910.702 1332.22 903.528 1337.71C862.067 1362.61 811.49 1378.99 755.772 1385.39C738.484 1387.37 721.047 1388.36 703.593 1388.36C655.472 1388.36 607.261 1380.86 561.803 1366.14C443.558 1327.84 358.241 1245.9 321.565 1135.41C301.456 1074.83 291.585 1015.92 292.22 960.31C292.718 915.765 299.929 873.231 313.642 833.887C318.215 820.763 323.19 808.904 328.23 798.306C331.911 793.506 335.661 788.978 339.448 784.722C341.588 782.319 343.779 779.968 346.024 777.677C337.045 793.066 327.437 812.614 319.234 836.206C298.098 897.055 282.338 998.03 327.306 1133.5C363.355 1242.12 447.296 1322.69 563.665 1360.38C687.291 1400.42 830.285 1384.19 919.481 1319.99C920.716 1319.1 922.378 1319.27 923.408 1320.32Z" fill="#D57635"/>
<path d="M429.395 696.849C429.395 696.849 382.882 649.315 450.63 615.814C518.379 582.316 598.189 633.491 611.278 670.811C624.37 708.133 429.395 696.849 429.395 696.849Z" fill="#273A34"/>
<path d="M510.315 664.243C509.903 664.243 509.488 664.102 509.15 663.814C490.661 647.993 459.689 649.446 459.38 649.457C459.345 649.46 459.314 649.46 459.282 649.46C458.336 649.46 457.546 648.719 457.495 647.764C457.443 646.777 458.201 645.933 459.188 645.882C460.518 645.807 491.911 644.351 511.479 661.093C512.231 661.737 512.317 662.867 511.676 663.619C511.321 664.031 510.818 664.243 510.315 664.243Z" fill="#1C2D27"/>
<path d="M464.907 666.491C464.266 666.491 463.645 666.148 463.325 665.541C462.862 664.669 463.191 663.585 464.066 663.119C464.97 662.638 486.394 651.36 501.6 654.901C502.564 655.124 503.162 656.088 502.939 657.052C502.716 658.016 501.757 658.616 500.788 658.39C486.883 655.155 465.959 666.168 465.751 666.282C465.479 666.425 465.19 666.491 464.907 666.491Z" fill="#1C2D27"/>
<path d="M933.595 1291.76L957.451 1335.73C957.451 1335.73 986.781 1342.63 1021.66 1345.31C1074.67 1349.39 1090.36 1341.03 1094.12 1352.87C1097.04 1362.09 1056.72 1382.96 1038.08 1386.25C1019.44 1389.54 978.692 1406.26 952.254 1409.19C925.815 1412.12 914.147 1378.74 908.158 1366.86C902.168 1354.97 883.33 1314.72 883.33 1314.72L933.595 1291.76Z" fill="#F8E9D3"/>
<path d="M1073.33 1364.46C1073.44 1367.78 1072.84 1370.93 1071.09 1373.48C1070.81 1373.88 1070.51 1374.26 1070.17 1374.63C1060.79 1385 1023.21 1390.01 1023.21 1390.01C1026.21 1387.13 1027.64 1383.07 1028.09 1378.52C1029.26 1366.57 1023.57 1351.24 1021.1 1345.26C1020.43 1343.65 1019.99 1342.71 1019.99 1342.71C1026.49 1341.19 1032.66 1340.35 1038.25 1339.93C1043.74 1339.52 1048.66 1339.52 1052.73 1339.7C1060.39 1340.02 1065.08 1340.97 1065.08 1340.97C1065.08 1340.97 1066.4 1343.09 1067.98 1346.34C1070.27 1351.03 1073.11 1358.07 1073.33 1364.46Z" fill="#E05042"/>
<path d="M1057.36 1357.2L1044.35 1358.54C1044.35 1358.54 1042.64 1352.18 1040.68 1346.35C1039.88 1343.96 1039.03 1341.67 1038.25 1339.93C1043.74 1339.52 1048.66 1339.52 1052.73 1339.7C1053.5 1341.42 1054.42 1343.85 1055.24 1346.54C1056.27 1349.95 1057.15 1353.79 1057.36 1357.2Z" fill="#B11722"/>
<path d="M1089.54 1359.35C1089.54 1359.35 968.128 1397.78 951.821 1400.64C935.514 1403.49 926.63 1400.29 926.63 1400.29C926.63 1400.29 927.139 1406.97 928.509 1413.23C930.122 1420.6 937.777 1424.94 944.982 1422.72C977.459 1412.66 1084.81 1379.15 1092.12 1373.21C1100.75 1366.2 1098.88 1358.74 1089.54 1359.35Z" fill="#E05042"/>
<path d="M821.742 1281.66L820.175 1321.16C820.175 1321.16 841.851 1342.09 870.452 1362.23C913.924 1392.84 931.69 1393.68 928.861 1405.77C926.656 1415.2 881.333 1412.51 863.633 1405.81C845.933 1399.11 802.363 1392.64 778.144 1381.63C753.925 1370.63 760.971 1335.98 761.9 1322.7C762.833 1309.42 764.806 1279.52 764.806 1279.52L821.742 1281.66Z" fill="#F8E9D3"/>
<path d="M905.065 1405.11C903.464 1408.02 901.335 1410.42 898.529 1411.71C898.086 1411.91 897.631 1412.09 897.154 1412.24C883.787 1416.34 848.936 1401.44 848.936 1401.44C852.981 1400.5 856.293 1397.74 858.999 1394.06C866.121 1384.39 869.067 1368.31 869.997 1361.9C870.246 1360.17 870.349 1359.14 870.349 1359.14C876.713 1361.16 882.454 1363.59 887.463 1366.09C892.391 1368.54 896.619 1371.06 900.028 1373.3C906.441 1377.5 909.991 1380.71 909.991 1380.71C909.991 1380.71 910.04 1383.2 909.736 1386.8C909.307 1392 908.146 1399.51 905.065 1405.11Z" fill="#E05042"/>
<path d="M895.055 1390.7L883.187 1385.2C883.187 1385.2 884.972 1378.86 886.271 1372.85C886.803 1370.39 887.249 1367.98 887.46 1366.09C892.389 1368.55 896.617 1371.06 900.026 1373.3C899.809 1375.17 899.36 1377.73 898.676 1380.46C897.829 1383.91 896.622 1387.67 895.055 1390.7Z" fill="#B11722"/>
<path d="M921.611 1409.01C921.611 1409.01 797.622 1379.96 782.15 1374.07C766.678 1368.18 760.677 1360.89 760.677 1360.89C760.677 1360.89 757.699 1366.89 755.677 1372.97C753.294 1380.12 757.65 1387.78 764.982 1389.54C798.031 1397.51 907.42 1423.6 916.745 1422.24C927.746 1420.63 929.949 1413.26 921.611 1409.01Z" fill="#E05042"/>
<path d="M863.916 967.863C832.736 943.874 721.467 953.438 633.311 965.796C631.901 965.994 630.834 967.199 630.761 968.621C628.965 1003.73 639.873 975.64 633.894 1009.01C633.573 1010.8 634.938 1012.48 636.754 1012.58C726.841 1017.32 762.838 1024.07 772.203 1026.15C773.716 1026.49 774.641 1027.91 774.368 1029.43C771.659 1044.57 758.4 1120.58 759.111 1154.37C759.829 1188.41 748.992 1280.82 746.93 1298.04C746.742 1299.61 747.804 1301.05 749.358 1301.34L820.71 1314.79C823.08 1315.24 827.069 1312.87 827.668 1310.54C838.269 1269.23 905.497 999.853 863.916 967.863Z" fill="#39524A"/>
<path d="M829.289 1298.19C828.945 1298.3 828.568 1298.33 828.187 1298.25L750.536 1282.31C749.374 1282.07 748.625 1280.94 748.862 1279.77C749.1 1278.61 750.232 1277.86 751.397 1278.1L829.048 1294.05C830.21 1294.29 830.959 1295.42 830.722 1296.58C830.561 1297.36 829.995 1297.96 829.289 1298.19Z" fill="#2B413A"/>
<path d="M765.705 1283.03C765.353 1283.14 764.97 1283.17 764.581 1283.09C763.423 1282.84 762.685 1281.69 762.934 1280.53C763.019 1280.14 771.437 1240.37 771.915 1176.11C772.396 1111.38 792.238 1014.97 792.438 1014C792.679 1012.84 793.814 1012.1 794.976 1012.33C796.137 1012.57 796.883 1013.71 796.64 1014.87C796.44 1015.83 776.683 1111.84 776.206 1176.14C775.725 1240.88 767.213 1281.04 767.127 1281.44C766.967 1282.21 766.406 1282.79 765.705 1283.03Z" fill="#2B413A"/>
<path d="M821.668 733.947C818.759 730.029 820.852 721.822 820.132 715.424C819.182 706.985 820.36 694.034 822.943 686.903C826.822 676.196 839.971 645.298 848.707 641.68C857.445 638.061 848.169 665.593 846.376 671.276C844.585 676.96 845.475 681.474 845.475 681.474C845.475 681.474 871.647 619.964 878.901 617.867C886.152 615.773 874.765 652.269 871.89 661.271C871.89 661.271 894.187 616.016 899.207 616.139C909.281 616.385 885.978 667.349 885.978 667.349C885.978 667.349 906.673 630.235 912.674 633.811C919.029 637.598 896.758 677.297 896.758 677.297C896.758 677.297 913.784 655.072 920.368 655.796C926.953 656.52 894.802 705.941 888.947 712.944C883.089 719.946 868.858 740.12 859.771 747.852C853.592 753.103 830.881 746.35 821.668 733.947Z" fill="#F8E9D3"/>
<path d="M893.512 693.364C894.198 692.735 894.327 691.68 893.775 690.902C880.869 672.632 858.847 670.338 857.917 670.25C856.887 670.15 855.972 670.905 855.875 671.937C855.777 672.967 856.533 673.879 857.562 673.98C857.774 674 878.821 676.231 890.714 693.064C891.312 693.908 892.482 694.111 893.326 693.513C893.391 693.467 893.452 693.416 893.512 693.364Z" fill="#FF7C66" fill-opacity="0.2"/>
<path d="M858.294 724.888C858.841 724.388 859.061 723.587 858.786 722.849C850.974 701.874 863.531 689.611 863.66 689.488C864.41 688.776 864.441 687.589 863.729 686.84C863.025 686.099 861.858 686.059 861.106 686.745C861.097 686.754 861.089 686.762 861.077 686.771C860.482 687.337 846.607 700.884 855.274 724.156C855.634 725.126 856.715 725.621 857.685 725.257C857.914 725.172 858.12 725.043 858.294 724.888Z" fill="#FF7C66" fill-opacity="0.2"/>
<path d="M646.511 690.914C646.555 690.901 646.58 690.855 646.568 690.811L646.551 690.748C646.55 690.746 646.551 690.743 646.553 690.742C646.554 690.742 646.555 690.74 646.556 690.739C646.558 690.738 646.563 690.739 646.572 690.758L646.638 690.893L646.81 691.285L647.213 692.214L648.111 694.288C648.741 695.721 649.416 697.203 650.114 698.693C651.509 701.685 652.974 704.729 654.53 707.749C657.662 713.787 660.94 719.84 664.521 725.707C666.315 728.639 668.117 731.568 669.982 734.451C671.85 737.331 673.772 740.175 675.74 742.978C677.699 745.787 679.747 748.527 681.798 751.253C683.846 753.982 685.951 756.659 688.105 759.282C705.276 780.352 725.282 798.343 747.684 812.131C749.08 813 750.487 813.85 751.912 814.668C753.322 815.514 754.764 816.304 756.197 817.105L757.272 817.708C756.817 817.445 756.32 817.236 755.782 816.982C754.727 816.536 753.534 816.084 752.315 815.78C751.085 815.46 749.835 815.225 748.62 815.122C747.427 814.994 746.277 814.988 745.267 815.042C743.259 815.14 741.76 815.531 740.897 815.795C740.01 816.081 739.627 816.301 739.615 816.332C739.584 816.427 740.739 815.832 742.201 814.705C743.68 813.584 745.51 812.005 747.447 810.148C749.383 808.283 751.42 806.147 753.477 803.83C757.63 799.213 761.817 793.901 765.988 788.341C774.303 777.145 782.418 764.825 790.281 752.185C794.234 745.867 798.119 739.437 801.926 732.952C803.851 729.723 805.75 726.473 807.612 723.221L811.242 716.945C812.273 715.163 814.487 714.454 816.361 715.306L876.25 742.54C878.01 743.34 878.842 745.372 878.149 747.177L876.968 750.157L874.594 756.024C872.969 759.897 871.316 763.738 869.631 767.568C866.219 775.206 862.649 782.78 858.896 790.326C851.328 805.394 843.078 820.297 833.299 835.162C828.407 842.614 823.09 850.025 817.012 857.528C813.948 861.266 810.673 865.028 807.052 868.821C803.428 872.616 799.434 876.438 794.726 880.282C790.004 884.112 784.589 888.037 777.469 891.704C773.92 893.526 769.855 895.256 765.173 896.689C760.522 898.114 755.087 899.215 749.12 899.513C746.128 899.658 742.996 899.584 739.83 899.272C736.646 898.935 733.437 898.368 730.293 897.525C727.167 896.678 724.083 895.608 721.231 894.324C719.775 893.697 718.417 892.994 717.07 892.296L715.542 891.461C713.505 890.345 711.466 889.235 709.461 888.062C707.441 886.915 705.445 885.731 703.465 884.524C699.49 882.13 695.594 879.61 691.738 877.03C687.919 874.404 684.129 871.735 680.439 868.944C676.729 866.178 673.111 863.303 669.55 860.365C666.017 857.399 662.522 854.39 659.135 851.278C645.528 838.878 633.24 825.248 622.271 810.803C616.787 803.575 611.636 796.138 606.847 788.495C602.062 780.855 597.517 773.086 593.412 765.08C591.353 761.081 589.37 757.042 587.465 752.96C585.555 748.882 583.735 744.748 582.033 740.541C580.32 736.336 578.67 732.085 577.131 727.709C576.367 725.512 575.623 723.293 574.891 720.998C574.525 719.843 574.162 718.69 573.801 717.466L573.649 716.933C573.05 714.83 574.25 712.635 576.345 712.006L646.511 690.914Z" fill="#273A34"/>
<path d="M758.181 848.68C757.183 849.009 756.07 848.566 755.59 847.596C748.273 832.894 744.886 814.562 744.743 813.786C744.532 812.619 745.307 811.501 746.471 811.289C747.638 811.078 748.754 811.85 748.968 813.017C749.002 813.2 752.395 831.535 759.434 845.683C759.963 846.744 759.531 848.034 758.467 848.563C758.373 848.609 758.279 848.649 758.181 848.68Z" fill="#1C2D27"/>
<path d="M741.641 836.61C741.269 836.733 740.857 836.755 740.448 836.652C739.298 836.364 738.6 835.196 738.889 834.047C739.046 833.417 742.793 818.563 745.079 813.881C745.597 812.814 746.881 812.371 747.948 812.891C749.015 813.412 749.458 814.696 748.937 815.763C746.849 820.048 743.091 834.945 743.054 835.096C742.865 835.834 742.316 836.386 741.641 836.61Z" fill="#1C2D27"/>
<path d="M863.811 779.276C863.207 779.473 862.524 779.405 861.955 779.03C840.696 764.98 797.041 746.064 796.603 745.872C795.516 745.4 795.013 744.139 795.485 743.049C795.954 741.962 797.218 741.459 798.308 741.931C798.749 742.122 842.747 761.187 864.323 775.446C865.313 776.101 865.584 777.431 864.929 778.421C864.652 778.841 864.254 779.13 863.811 779.276Z" fill="#1C2D27"/>
<path d="M647.216 692.212C652.859 709.328 643.495 750.893 652.576 824.056C653.24 829.425 654.009 834.982 654.879 840.735C655.708 846.121 656.629 851.684 657.665 857.431C658.623 862.774 659.696 868.286 660.849 873.932C661.87 878.889 662.971 883.961 664.161 889.158C665.379 894.496 666.675 899.942 668.091 905.531C668.486 907.113 668.918 908.809 669.381 910.597C669.49 911.046 669.604 911.495 669.727 911.956C669.836 912.359 669.939 912.768 670.048 913.188C670.125 913.497 670.205 913.806 670.288 914.112C670.348 914.338 670.405 914.567 670.465 914.793C670.565 915.196 670.671 915.608 670.783 916.017C670.803 916.097 670.82 916.18 670.846 916.258C670.971 916.758 671.103 917.256 671.237 917.759C671.255 917.834 671.272 917.908 671.295 917.979C671.406 918.411 671.521 918.852 671.644 919.298C672.181 921.366 672.751 923.517 673.343 925.751C673.494 926.306 673.64 926.87 673.795 927.433C673.992 928.18 674.198 928.941 674.401 929.707C674.802 931.215 675.222 932.748 675.642 934.312C675.854 935.093 676.066 935.883 676.286 936.672C676.738 938.354 677.204 940.056 677.679 941.784C677.768 942.098 677.856 942.419 677.939 942.742C679.064 946.852 680.242 951.097 681.458 955.431C682.01 957.39 682.565 959.364 683.128 961.36C683.809 963.763 684.498 966.186 685.196 968.623C686.214 972.187 687.256 975.776 688.302 979.363C688.749 980.879 689.192 982.398 689.635 983.914C690.039 985.284 690.451 986.655 690.857 988.025C691.352 989.669 691.835 991.308 692.33 992.945C692.659 994.037 692.985 995.124 693.32 996.208C693.52 996.889 693.726 997.561 693.932 998.233C694.347 999.586 694.758 1000.93 695.168 1002.27C695.577 1003.6 695.991 1004.93 696.403 1006.25C696.695 1007.18 696.984 1008.1 697.264 1009.03C697.527 1009.85 697.782 1010.67 698.039 1011.47C698.114 1011.7 698.177 1011.91 698.251 1012.14C698.397 1012.61 698.546 1013.08 698.697 1013.53C699.006 1014.49 699.301 1015.44 699.604 1016.38C699.959 1017.48 700.313 1018.57 700.662 1019.66C703.494 1028.36 706.257 1036.45 708.857 1043.46C689.527 1065.7 656.681 1085.1 618.063 1096.76L596.638 1082.82L578.698 1105.56C540.961 1111.08 500.567 1108.91 463.313 1095.35C451.013 1070.21 430.736 977.973 424.995 950.376C423.854 944.887 422.821 939.37 421.872 933.84C417.306 907.273 414.867 880.282 413.222 851.947C413.127 850.403 413.047 848.861 412.959 847.314C412.947 847.133 412.933 846.947 412.927 846.759C411.179 822.883 379.981 752.515 383.122 727.192C389.346 677.012 421.331 690.227 450.161 682.498C459.623 679.961 467.581 676.743 474.097 673.453C476.814 672.086 479.271 670.705 481.499 669.354C482.432 668.8 483.301 668.259 484.137 667.695C493.095 661.889 497.995 656.986 497.995 656.986L563.401 650.156C569.88 657.776 577.514 662.192 585.532 665.047C586.421 665.35 587.308 665.653 588.215 665.945C589.553 666.362 590.906 666.746 592.254 667.089C615.371 673.093 639.828 669.801 647.216 692.212Z" fill="#273A34"/>
<path d="M483.047 1044.39C482.321 1044.39 481.637 1043.94 481.368 1043.22C445.576 947.15 427.05 781.244 426.866 779.58C426.758 778.596 427.467 777.712 428.451 777.603C429.435 777.5 430.319 778.207 430.428 779.188C430.611 780.85 449.089 946.318 484.726 1041.97C485.073 1042.89 484.601 1043.93 483.674 1044.27C483.468 1044.35 483.256 1044.39 483.047 1044.39Z" fill="#1C2D27"/>
<path d="M540.675 696.544C544.44 695.302 546.936 692.608 546.25 690.528C545.563 688.447 541.954 687.767 538.189 689.009C534.424 690.252 531.928 692.946 532.614 695.026C533.301 697.107 536.909 697.787 540.675 696.544Z" fill="#1C2D27"/>
<path d="M569.948 689.015C573.713 687.772 576.209 685.078 575.522 682.997C574.835 680.917 571.226 680.237 567.461 681.48C563.695 682.723 561.2 685.417 561.886 687.498C562.573 689.578 566.182 690.258 569.948 689.015Z" fill="#1C2D27"/>
<path d="M583.804 698.676C583.006 698.676 582.276 698.138 582.07 697.329C581.824 696.37 582.402 695.395 583.36 695.149C608.583 688.69 610.162 673.505 610.217 672.861C610.3 671.88 611.166 671.156 612.144 671.222C613.126 671.299 613.861 672.152 613.789 673.136C613.735 673.882 612.113 691.482 584.25 698.619C584.101 698.659 583.95 698.676 583.804 698.676Z" fill="#1C2D27"/>
<path d="M622.579 856.861C588.932 856.861 559.791 848.229 540.274 840.391C515.955 830.629 500.873 819.928 500.721 819.819C499.917 819.244 499.731 818.126 500.306 817.322C500.881 816.518 502 816.333 502.803 816.907C502.949 817.013 517.76 827.508 541.71 837.11C563.772 845.958 598.332 855.84 637.702 852.68C638.692 852.605 639.55 853.335 639.63 854.321C639.71 855.308 638.975 856.172 637.988 856.249C632.765 856.667 627.622 856.861 622.579 856.861Z" fill="#1C2D27"/>
<path d="M521.663 923.998C521.152 921.871 522.422 919.737 524.547 919.218C540.659 915.285 604.425 900.343 647.996 899.136C649.876 899.084 651.5 900.379 651.923 902.211L665.546 961.219C666.064 963.464 664.627 965.674 662.355 966.057C645.886 968.831 583.89 979.291 540.594 986.82C538.514 987.181 536.525 985.863 536.032 983.81L521.663 923.998Z" fill="#1C2D27"/>
<path d="M475.667 714.22C460.187 714.22 448.353 709.889 440.276 705.435C427.418 698.345 421.18 689.615 420.919 689.249C420.35 688.439 420.545 687.323 421.351 686.754C422.161 686.182 423.276 686.38 423.845 687.186C423.906 687.272 429.964 695.707 442.161 702.386C453.388 708.539 472.298 714.426 498.63 707.544C499.583 707.298 500.564 707.867 500.816 708.825C501.065 709.78 500.492 710.759 499.534 711.01C490.804 713.29 482.844 714.22 475.667 714.22Z" fill="#1C2D27"/>
<path d="M681.451 955.434C680.236 951.097 679.057 946.855 677.933 942.745C679.069 946.858 680.239 951.097 681.451 955.434Z" fill="#26120C"/>
<path d="M675.64 934.315C675.219 932.751 674.802 931.217 674.398 929.71C674.807 931.215 675.219 932.751 675.64 934.315Z" fill="#26120C"/>
<path d="M657.945 848.612C657.819 848.655 657.685 848.684 657.547 848.701C656.372 848.856 655.293 848.026 655.142 846.85C651.235 816.919 646.907 781.368 646.489 771.345C646.441 770.161 647.359 769.159 648.546 769.111C649.73 769.062 650.731 769.98 650.78 771.167C651.192 781.053 655.502 816.459 659.398 846.298C659.533 847.334 658.903 848.295 657.945 848.612Z" fill="#1C2D27"/>
<path d="M579.735 514.587C579.735 514.587 600.484 530.88 586.869 555.74C586.869 555.74 579.415 526.71 579.735 514.587Z" fill="#022217"/>
<path d="M496.68 626.735C496.68 626.735 483.23 639.796 480.467 630.156C477.701 620.517 482.384 615.708 482.384 615.708C482.384 615.708 467.864 629.661 467.63 619.152C467.395 608.643 474.972 599.258 474.972 599.258C474.972 599.258 461.497 589.395 465.894 573.612C470.287 557.828 470.836 546.261 466.434 533.338C462.032 520.414 464.043 507.048 470.424 501.261C479.755 492.803 493.319 494.119 493.319 494.119C493.319 494.119 500.539 470.483 527.541 471.116C554.543 471.748 570.266 450.678 583.893 456.161C597.52 461.645 613.126 506.639 576.473 519.965C576.471 519.965 503.862 568.652 496.68 626.735Z" fill="#022217"/>
<path d="M565.24 639.584L567.022 656.646C565.194 658.468 563.324 660.082 561.424 661.509C533.656 682.398 499.388 663.714 499.388 663.714L493.204 604.55L556.648 635.405L565.24 639.584Z" fill="#F8E9D3"/>
<path d="M565.086 638.094L567.025 656.646C565.197 658.469 563.327 660.082 561.427 661.509C535.155 654.158 514.028 629.607 514.028 629.607L556.653 635.405L565.086 638.094Z" fill="#022217"/>
<path d="M593.195 600.806C593.195 600.806 596.933 636.077 560.229 639.833C523.753 643.577 495.91 617.533 494.477 616.343C494.451 616.323 494.434 616.312 494.434 616.312L493.262 608.941L487.166 570.671L483.905 550.22C483.905 550.22 475.376 513.67 509.869 503.238C535.069 495.612 559.631 497.365 573.204 509.508C573.641 509.9 574.07 510.303 574.477 510.721C578.801 515.034 581.839 520.532 583.204 527.245L588.204 564.073L589.431 573.097L593.195 600.806Z" fill="#F8E9D3"/>
<path d="M487.166 570.675C487.166 570.675 495.427 573.257 499.065 583.277C504.523 582.708 508.342 577.608 507.343 572.213C506.763 569.081 506.039 565.32 505.164 561.092C502.544 548.415 498.493 544.402 505.847 536.461C513.201 528.521 506.288 523.801 512.984 518.181C520.327 512.017 538.479 522.932 551.831 520.166C567.68 516.882 566.336 506.13 580.14 518.444C580.14 518.444 576.479 499.888 558.47 494.863C540.461 489.837 489.815 494.265 482.058 518.389C474.3 542.517 487.166 570.675 487.166 570.675Z" fill="#022217"/>
<path d="M516.201 544.041C518.635 548.215 523.961 549.673 528.178 547.314C530.64 545.935 533.567 544.528 536.699 543.495C541.141 542.031 543.469 537.168 541.77 532.812C541.77 532.812 523.458 533.043 516.201 544.041Z" fill="#022217"/>
<path d="M584.065 536.444C582.635 540.763 578.009 543.143 573.667 541.79C571.13 541.001 568.161 540.274 565.072 539.931C560.695 539.447 557.6 535.42 558.318 531.075C558.318 531.075 575.238 527.725 584.065 536.444Z" fill="#022217"/>
<path d="M529.493 579.536C536.018 578.855 541.09 576.22 540.822 573.651C540.554 571.082 535.046 569.552 528.521 570.234C521.996 570.915 516.924 573.55 517.192 576.119C517.46 578.688 522.968 580.218 529.493 579.536Z" fill="#FF7C66" fill-opacity="0.2"/>
<path d="M589.433 573.1C588.532 573.286 587.579 573.432 586.601 573.535C580.082 574.216 574.573 572.685 574.304 570.117C574.035 567.548 579.11 564.911 585.628 564.23C586.512 564.138 587.376 564.087 588.209 564.075L589.433 573.1Z" fill="#FF7C66" fill-opacity="0.2"/>
<path d="M538.607 566.001C540.58 565.795 541.881 562.768 541.513 559.241C541.144 555.714 539.246 553.021 537.272 553.227C535.299 553.433 533.998 556.46 534.366 559.988C534.735 563.515 536.633 566.207 538.607 566.001Z" fill="#022217"/>
<path d="M574.042 562.341C576.015 562.135 577.316 559.108 576.948 555.581C576.579 552.054 574.681 549.361 572.707 549.567C570.734 549.774 569.433 552.8 569.801 556.328C570.17 559.855 572.068 562.547 574.042 562.341Z" fill="#022217"/>
<path d="M565.406 592.013C552.514 593.36 540.798 583.406 540.644 583.272C540.034 582.745 539.969 581.824 540.495 581.215C541.021 580.606 541.945 580.54 542.552 581.066C543.318 581.727 561.47 597.102 576.224 584.061C576.828 583.529 577.749 583.584 578.284 584.187C578.818 584.791 578.761 585.715 578.158 586.247C574.03 589.896 569.654 591.567 565.406 592.013Z" fill="#022217"/>
<path d="M504.469 600.832C504.343 601.241 500.825 612.496 494.477 616.346C494.455 616.326 494.437 616.315 494.437 616.315L493.265 608.941C493.265 608.941 498.954 607.348 504.469 600.832Z" fill="#022217"/>
<path d="M495.447 577.004C495.447 577.004 479.363 559.533 470.585 575.5C463.351 588.658 482.793 618.949 498.502 606.232L495.447 577.004Z" fill="#F8E9D3"/>
<path d="M495.976 600.731C495.246 600.808 494.56 600.322 494.4 599.587C491.333 585.411 478.799 581.667 478.267 581.515C477.495 581.295 477.046 580.488 477.266 579.713C477.486 578.938 478.29 578.489 479.065 578.706C479.666 578.875 493.808 583.04 497.254 598.969C497.423 599.756 496.923 600.534 496.136 600.705C496.082 600.717 496.03 600.725 495.976 600.731Z" fill="#022217"/>
<path d="M481.514 593.347C481.091 593.389 480.653 593.252 480.33 592.929C479.761 592.36 479.758 591.436 480.327 590.867C480.857 590.335 485.633 585.692 490.107 586.35C490.905 586.467 491.454 587.208 491.337 588.006C491.22 588.804 490.476 589.353 489.681 589.236C487.106 588.856 483.548 591.771 482.392 592.926C482.149 593.175 481.835 593.312 481.514 593.347Z" fill="#022217"/>
<path d="M557.769 575.506C556.968 575.589 556.25 575.008 556.167 574.207C556.084 573.406 556.664 572.688 557.465 572.605C562.803 572.047 565.005 568.967 565.706 567.66C558.67 556.33 551.662 544.905 551.59 544.788C551.17 544.101 551.384 543.203 552.071 542.783C552.76 542.359 553.655 542.577 554.079 543.263C554.15 543.381 561.43 555.248 568.598 566.784C568.83 567.156 568.881 567.614 568.738 568.031C568.647 568.297 566.373 574.608 557.769 575.506Z" fill="#022217"/>
<g opacity="0.5">
<g opacity="0.5">
<g opacity="0.5">
<path opacity="0.5" d="M540.712 573.913C550.848 573.298 558.824 568.821 558.526 563.914C558.228 559.006 549.77 555.527 539.633 556.142C529.497 556.758 521.521 561.235 521.819 566.142C522.117 571.049 530.576 574.529 540.712 573.913Z" fill="white"/>
</g>
</g>
</g>
<path d="M453.635 1064.46C453.066 1065.15 452.82 1065.95 452.883 1066.84C453.908 1081.33 467.789 1209.88 636.049 1154.36C714.09 1128.61 756.514 1107.76 769.261 1101.09C771.463 1099.94 774.185 1100.94 775.035 1103.27C781.466 1120.94 805.678 1186.83 819.569 1216.12C833.973 1246.49 871.293 1316.09 879.091 1330.59C879.955 1332.2 881.769 1332.97 883.54 1332.53L953.372 1315.34C955.576 1314.79 956.908 1312.61 956.27 1310.43C945.717 1274.44 864.211 1001.86 812.578 989.561C757.36 976.405 691.128 997.288 574.399 1023.78C574.108 1023.85 573.847 1023.9 573.553 1023.95C566.673 1025.03 473.78 1040.05 453.635 1064.46Z" fill="#39524A"/>
<path d="M882.686 1305.31C881.765 1305.62 880.721 1305.27 880.189 1304.4C855.366 1264.23 830.715 1203.4 810.91 1154.53C802.572 1133.95 795.372 1116.18 789.363 1102.9C781.225 1084.92 777.915 1081.34 776.668 1080.8C771.148 1078.43 753.027 1086.63 730.087 1097C696.855 1112.03 646.635 1134.73 588.234 1146.85C558.275 1153.06 532.325 1149 511.113 1134.76C473.353 1109.42 464.031 1061.38 463.653 1059.35C463.436 1058.19 464.205 1057.07 465.372 1056.85C466.536 1056.63 467.658 1057.4 467.875 1058.57C467.964 1059.05 477.277 1106.9 513.532 1131.21C533.747 1144.77 558.586 1148.62 587.362 1142.65C645.299 1130.62 695.259 1108.04 728.319 1093.09C754.998 1081.03 771.102 1073.75 778.362 1076.86C784.963 1079.69 795.427 1104.89 814.892 1152.92C834.637 1201.64 859.21 1262.29 883.844 1302.14C884.468 1303.15 884.156 1304.48 883.146 1305.1C882.995 1305.19 882.843 1305.26 882.686 1305.31Z" fill="#2B413A"/>
<path d="M948.112 1290.48C948.072 1290.49 948.029 1290.5 947.986 1290.51L870.283 1311.06C869.136 1311.36 867.964 1310.68 867.66 1309.53C867.357 1308.39 868.032 1307.19 869.188 1306.91L946.89 1286.36C948.037 1286.06 949.213 1286.74 949.516 1287.89C949.802 1288.99 949.181 1290.12 948.112 1290.48Z" fill="#2B413A"/>
<path d="M627.663 1030.55L863.368 1008.33C863.82 1008.28 864.154 1007.88 864.111 1007.43L861.348 978.137C861.305 977.685 860.902 977.351 860.45 977.394L624.745 999.619C624.293 999.662 623.959 1000.06 624.002 1000.52L626.765 1029.81C626.808 1030.26 627.211 1030.59 627.663 1030.55Z" fill="#007048"/>
<path d="M888.96 1005.91C897.893 1005.07 905.144 998.329 906.635 989.481L935.347 819.071C937.101 808.656 928.505 799.409 917.99 800.401L811.724 810.421C804.553 811.096 798.709 816.459 797.422 823.547L762.096 1017.88L888.96 1005.91Z" fill="#007048"/>
<path d="M819.853 971.455L817.899 979.221L825.116 978.669L823.857 987.831L815.508 988.471L813.343 996.918L803.8 997.65L805.966 989.207L800.062 989.658L797.896 998.105L788.354 998.837L790.52 990.394L783.303 990.946L784.561 981.784L792.911 981.143L794.864 973.38L787.648 973.932L788.906 964.77L797.256 964.13L799.421 955.683L808.966 954.951L806.801 963.397L812.705 962.945L814.87 954.499L824.412 953.766L822.247 962.213L829.464 961.661L828.205 970.823L819.853 971.455ZM810.311 972.187L804.404 972.639L802.45 980.402L808.357 979.95L810.311 972.187Z" fill="#FFBC3F"/>
<path d="M922.251 847.143C919.768 858.27 909.665 867.998 899.688 868.87C889.711 869.743 883.633 861.428 886.116 850.298C888.599 839.168 898.701 829.443 908.678 828.57C918.658 827.701 924.734 836.016 922.251 847.143Z" fill="#FFBC3F"/>
<path d="M902.057 845.129C901.559 847.355 900.455 849.22 899.585 849.297C898.718 849.374 898.415 847.629 898.913 845.404C899.411 843.179 900.515 841.314 901.384 841.236C902.254 841.159 902.554 842.901 902.057 845.129Z" fill="#26120C"/>
<path d="M911.484 844.305C910.986 846.531 909.882 848.395 909.013 848.473C908.143 848.55 907.843 846.805 908.34 844.58C908.838 842.354 909.942 840.489 910.812 840.412C911.678 840.335 911.982 842.08 911.484 844.305Z" fill="#26120C"/>
<path d="M902.152 858.522C894.383 859.199 894.534 850.693 894.537 850.607C894.551 850.141 894.923 849.652 895.37 849.511C895.816 849.371 896.168 849.634 896.156 850.098C896.148 850.407 896.059 857.335 902.541 856.768C909.031 856.202 912.089 849.002 912.217 848.696C912.417 848.216 912.904 847.881 913.301 847.947C913.702 848.013 913.865 848.456 913.668 848.936C913.633 849.025 909.92 857.841 902.152 858.522Z" fill="#26120C"/>
<path d="M687.145 958.549C687.145 958.549 742.462 946.201 761.787 955.397L755.022 990.497C755.022 990.497 723.838 988.331 716.584 991.93C709.333 995.528 708.913 1009.53 680.947 1010.32L687.145 958.549Z" fill="#F8DDCA"/>
<path d="M797.416 823.55L762.385 1016.27L741.688 1018.25L785.273 824.694C786.575 817.603 792.407 812.234 799.581 811.559L811.723 810.415C804.55 811.09 798.714 816.459 797.416 823.55Z" fill="#007048"/>
<path d="M762.006 993.251C761.902 993.25 761.798 993.241 761.692 993.223C760.74 993.06 760.123 992.224 760.314 991.36L798.203 820.431C798.394 819.567 799.318 818.994 800.275 819.162C801.227 819.325 801.844 820.161 801.653 821.025L763.764 991.954C763.594 992.724 762.84 993.258 762.006 993.251Z" fill="#0A8A5C"/>
<path d="M836.066 912.228C834.635 922.895 841.935 930.744 852.376 929.76C862.816 928.776 872.438 919.331 873.869 908.661C875.302 897.995 867.999 890.146 857.559 891.13C847.118 892.12 837.496 901.565 836.066 912.228Z" fill="#0A8A5C"/>
<path d="M680.867 951.35L674.363 950.299L661.294 948.169C652.588 946.711 643.885 945.165 635.22 943.545C617.886 940.358 600.664 936.879 583.788 933.031C575.364 931.093 567.022 929.028 558.844 926.873C550.683 924.694 542.671 922.372 535.063 919.843C527.492 917.31 520.185 914.627 514.166 911.807C511.193 910.412 508.533 908.978 506.733 907.804C506.694 907.771 506.656 907.739 506.63 907.696L506.423 907.357C505.428 905.774 504.514 904.139 503.574 902.521C501.745 899.26 499.948 895.965 498.291 892.589C494.914 885.869 491.941 878.898 489.235 871.791C483.806 857.576 479.81 842.613 476.906 827.275C475.473 819.605 474.358 811.831 473.515 803.998C472.649 796.164 472.108 788.265 471.847 780.357C471.549 772.449 471.546 764.521 471.847 756.693C471.999 752.779 472.231 748.893 472.54 745.103C472.687 743.207 472.85 741.335 473.031 739.531L473.32 736.925C473.44 735.944 472.759 735.044 471.782 734.893L385.485 721.499C384.602 721.362 383.776 721.971 383.646 722.856L383.486 724.033L383.219 726.223L382.757 730.357C382.482 733.052 382.253 735.686 382.055 738.303C381.694 743.536 381.456 748.682 381.324 753.818C381.052 764.074 381.189 774.252 381.711 784.422C382.826 804.748 385.483 825.033 389.915 845.138C391.024 850.16 392.243 855.176 393.564 860.173C394.9 865.157 396.376 870.136 397.933 875.09C401.075 884.985 404.704 894.794 408.803 904.445C412.63 913.301 416.849 922.04 421.547 930.56C421.946 931.305 422.359 932.052 422.78 932.791C425.337 937.415 428.083 941.958 430.907 946.454C432.343 948.681 433.762 950.923 435.27 953.119L436.385 954.777L436.944 955.596L438.059 957.205C440.071 960.039 442.112 962.427 444.047 964.443C445.991 966.487 447.894 968.242 449.7 969.765C451.532 971.329 453.26 972.649 454.966 973.877C458.34 976.293 461.507 978.246 464.529 979.952C468.788 982.34 472.793 984.279 476.657 985.977C478.271 986.687 479.859 987.359 481.424 987.998C486.759 990.168 491.881 991.978 496.912 993.618C501.94 995.267 506.862 996.696 511.749 998.019C521.501 1000.66 531.041 1002.85 540.512 1004.82C549.975 1006.8 559.357 1008.48 568.705 1010.02C587.389 1013.11 605.93 1015.51 624.445 1017.54C633.703 1018.52 642.954 1019.41 652.216 1020.21C656.848 1020.61 661.48 1020.99 666.133 1021.33L673.127 1021.81L676.466 1022.01C678.615 1022.14 680.483 1020.55 680.694 1018.41L686.818 956.095C687.025 953.983 685.548 952.077 683.451 951.751L680.867 951.35ZM504.935 906.458C504.824 906.335 504.769 906.266 504.901 906.332C504.987 906.375 505.251 906.567 505.658 906.959C505.695 906.999 505.65 907.049 505.607 907.016C505.3 906.784 505.068 906.59 504.935 906.458Z" fill="#273A34"/>
<path d="M477.304 986.203C473.448 984.507 469.449 982.571 465.201 980.185C462.186 978.48 459.029 976.53 455.659 974.115C453.957 972.885 452.232 971.57 450.404 970.008C448.605 968.486 446.706 966.733 444.764 964.69C442.833 962.677 440.796 960.291 438.788 957.459L437.676 955.852L437.118 955.034L436.005 953.378C434.501 951.184 433.085 948.944 431.652 946.719C428.831 942.228 426.094 937.688 423.542 933.069C423.125 932.331 422.71 931.584 422.312 930.841C422.541 930.718 422.776 930.6 423.019 930.497C423.025 930.494 480.745 931.278 477.304 986.203Z" fill="#1C2D27"/>
<path d="M597.745 1016.83C597.474 1016.92 597.176 1016.96 596.87 1016.93C596.144 1016.86 523.607 1009.82 483.004 990.769C442.074 971.567 422.89 934.934 422.095 933.384C421.554 932.328 421.969 931.035 423.021 930.495C424.077 929.957 425.37 930.369 425.913 931.421C426.102 931.788 445.27 968.323 484.829 986.882C524.765 1005.62 596.555 1012.59 597.276 1012.65C598.458 1012.77 599.324 1013.81 599.213 1014.99C599.127 1015.87 598.529 1016.57 597.745 1016.83Z" fill="#1C2D27"/>
<path d="M481.011 933.271C480.287 933.509 479.461 933.357 478.869 932.799C478.005 931.99 477.959 930.631 478.772 929.764C488.8 919.072 503.239 908.346 503.849 907.897C504.798 907.19 506.145 907.39 506.852 908.346C507.558 909.298 507.358 910.643 506.403 911.349C506.257 911.458 491.66 922.302 481.904 932.705C481.649 932.974 481.34 933.162 481.011 933.271Z" fill="#1C2D27"/>
<path d="M504.796 912.422C504.721 912.448 504.644 912.468 504.564 912.485C496.023 914.287 484.764 917.937 484.653 917.974C483.526 918.34 482.313 917.725 481.947 916.595C481.581 915.471 482.193 914.264 483.317 913.892C483.32 913.892 483.323 913.889 483.326 913.889C483.795 913.735 494.916 910.128 503.68 908.283C504.839 908.037 505.98 908.781 506.223 909.939C506.449 911.023 505.82 912.085 504.796 912.422Z" fill="#1C2D27"/>
<path d="M485.493 860.003C485.473 860.012 485.45 860.017 485.43 860.023C484.295 860.361 483.099 859.711 482.761 858.573C481.943 855.81 462.724 790.518 462.713 757.655C462.713 756.471 463.674 755.51 464.858 755.507C466.042 755.507 467.006 756.468 467.006 757.653C467.018 789.898 486.677 856.682 486.878 857.351C487.206 858.47 486.589 859.643 485.493 860.003Z" fill="#1C2D27"/>
<path d="M466.869 777.953C466.282 778.147 465.619 778.087 465.055 777.733C464.051 777.103 463.748 775.779 464.377 774.772L471.417 763.545C472.046 762.541 473.373 762.238 474.374 762.867C475.378 763.496 475.682 764.821 475.052 765.828L468.013 777.055C467.736 777.498 467.326 777.801 466.869 777.953Z" fill="#1C2D27"/>
<path d="M647.008 1019.52C646.725 1019.61 646.419 1019.64 646.104 1019.61C644.926 1019.48 644.074 1018.42 644.202 1017.24L651.576 949.501C651.705 948.323 652.763 947.471 653.942 947.599C655.12 947.728 655.973 948.786 655.844 949.968L648.47 1017.71C648.376 1018.57 647.784 1019.26 647.008 1019.52Z" fill="#1C2D27"/>
<path d="M590.717 912.065C589.968 912.065 589.27 911.59 589.018 910.843C568.241 848.853 538.258 694.446 537.958 692.893C537.769 691.923 538.404 690.982 539.376 690.796C540.349 690.608 541.287 691.243 541.473 692.215C541.773 693.765 571.713 847.943 592.414 909.708C592.728 910.646 592.222 911.661 591.287 911.976C591.098 912.033 590.903 912.065 590.717 912.065Z" fill="white"/>
<path d="M635.103 906.172C634.222 906.172 633.455 905.52 633.332 904.624C620.686 812.348 567.904 688.147 567.372 686.903C566.983 685.993 567.406 684.941 568.315 684.552C569.225 684.166 570.278 684.586 570.667 685.496C571.202 686.743 624.173 811.39 636.882 904.138C637.016 905.119 636.33 906.02 635.352 906.155C635.266 906.166 635.183 906.172 635.103 906.172Z" fill="white"/>
</g>
<defs>
<linearGradient id="paint0_linear" x1="1841.78" y1="490.76" x2="40.4239" y2="680.345" gradientUnits="userSpaceOnUse">
<stop stop-color="#E1F1E9"/>
<stop offset="0.5868" stop-color="#DAF9D9"/>
<stop offset="1" stop-color="#F6FDEE"/>
</linearGradient>
</defs>
</svg>
