<svg width="87" height="110" viewBox="0 0 87 110" fill="none" xmlns="http://www.w3.org/2000/svg">
<path d="M0.431156 97.776C0.431156 96.944 0.611156 96.204 0.971156 95.556C1.33116 94.9 1.83116 94.392 2.47116 94.032C3.11916 93.664 3.85116 93.48 4.66716 93.48C5.66716 93.48 6.52316 93.744 7.23516 94.272C7.94716 94.8 8.42316 95.52 8.66316 96.432H6.40716C6.23916 96.08 5.99916 95.812 5.68716 95.628C5.38316 95.444 5.03516 95.352 4.64316 95.352C4.01116 95.352 3.49916 95.572 3.10716 96.012C2.71516 96.452 2.51916 97.04 2.51916 97.776C2.51916 98.512 2.71516 99.1 3.10716 99.54C3.49916 99.98 4.01116 100.2 4.64316 100.2C5.03516 100.2 5.38316 100.108 5.68716 99.924C5.99916 99.74 6.23916 99.472 6.40716 99.12H8.66316C8.42316 100.032 7.94716 100.752 7.23516 101.28C6.52316 101.8 5.66716 102.06 4.66716 102.06C3.85116 102.06 3.11916 101.88 2.47116 101.52C1.83116 101.152 1.33116 100.644 0.971156 99.996C0.611156 99.348 0.431156 98.608 0.431156 97.776ZM14.0358 95.232C14.8038 95.232 15.4198 95.488 15.8838 96C16.3478 96.504 16.5798 97.2 16.5798 98.088V102H14.5398V98.364C14.5398 97.916 14.4238 97.568 14.1918 97.32C13.9598 97.072 13.6478 96.948 13.2558 96.948C12.8638 96.948 12.5518 97.072 12.3198 97.32C12.0878 97.568 11.9718 97.916 11.9718 98.364V102H9.91978V93.12H11.9718V96.204C12.1798 95.908 12.4638 95.672 12.8238 95.496C13.1838 95.32 13.5878 95.232 14.0358 95.232ZM17.5977 98.64C17.5977 97.952 17.7257 97.348 17.9817 96.828C18.2457 96.308 18.6017 95.908 19.0497 95.628C19.4977 95.348 19.9977 95.208 20.5497 95.208C21.0217 95.208 21.4337 95.304 21.7857 95.496C22.1457 95.688 22.4217 95.94 22.6137 96.252V95.304H24.6657V102H22.6137V101.052C22.4137 101.364 22.1337 101.616 21.7737 101.808C21.4217 102 21.0097 102.096 20.5377 102.096C19.9937 102.096 19.4977 101.956 19.0497 101.676C18.6017 101.388 18.2457 100.984 17.9817 100.464C17.7257 99.936 17.5977 99.328 17.5977 98.64ZM22.6137 98.652C22.6137 98.14 22.4697 97.736 22.1817 97.44C21.9017 97.144 21.5577 96.996 21.1497 96.996C20.7417 96.996 20.3937 97.144 20.1057 97.44C19.8257 97.728 19.6857 98.128 19.6857 98.64C19.6857 99.152 19.8257 99.56 20.1057 99.864C20.3937 100.16 20.7417 100.308 21.1497 100.308C21.5577 100.308 21.9017 100.16 22.1817 99.864C22.4697 99.568 22.6137 99.164 22.6137 98.652ZM29.8823 100.26V102H28.8383C28.0943 102 27.5143 101.82 27.0983 101.46C26.6823 101.092 26.4743 100.496 26.4743 99.672V97.008H25.6583V95.304H26.4743V93.672H28.5263V95.304H29.8703V97.008H28.5263V99.696C28.5263 99.896 28.5743 100.04 28.6703 100.128C28.7663 100.216 28.9263 100.26 29.1503 100.26H29.8823ZM40.1802 95.304V102H38.1282V101.088C37.9202 101.384 37.6362 101.624 37.2762 101.808C36.9242 101.984 36.5322 102.072 36.1002 102.072C35.5882 102.072 35.1362 101.96 34.7442 101.736C34.3522 101.504 34.0482 101.172 33.8322 100.74C33.6162 100.308 33.5082 99.8 33.5082 99.216V95.304H35.5482V98.94C35.5482 99.388 35.6642 99.736 35.8962 99.984C36.1282 100.232 36.4402 100.356 36.8322 100.356C37.2322 100.356 37.5482 100.232 37.7802 99.984C38.0122 99.736 38.1282 99.388 38.1282 98.94V95.304H40.1802ZM44.3782 102.096C43.7942 102.096 43.2742 101.996 42.8182 101.796C42.3622 101.596 42.0022 101.324 41.7382 100.98C41.4742 100.628 41.3262 100.236 41.2942 99.804H43.3222C43.3462 100.036 43.4542 100.224 43.6462 100.368C43.8382 100.512 44.0742 100.584 44.3542 100.584C44.6102 100.584 44.8062 100.536 44.9422 100.44C45.0862 100.336 45.1582 100.204 45.1582 100.044C45.1582 99.852 45.0582 99.712 44.8582 99.624C44.6582 99.528 44.3342 99.424 43.8862 99.312C43.4062 99.2 43.0062 99.084 42.6862 98.964C42.3662 98.836 42.0902 98.64 41.8582 98.376C41.6262 98.104 41.5102 97.74 41.5102 97.284C41.5102 96.9 41.6142 96.552 41.8222 96.24C42.0382 95.92 42.3502 95.668 42.7582 95.484C43.1742 95.3 43.6662 95.208 44.2342 95.208C45.0742 95.208 45.7342 95.416 46.2142 95.832C46.7022 96.248 46.9822 96.8 47.0542 97.488H45.1582C45.1262 97.256 45.0222 97.072 44.8462 96.936C44.6782 96.8 44.4542 96.732 44.1742 96.732C43.9342 96.732 43.7502 96.78 43.6222 96.876C43.4942 96.964 43.4302 97.088 43.4302 97.248C43.4302 97.44 43.5302 97.584 43.7302 97.68C43.9382 97.776 44.2582 97.872 44.6902 97.968C45.1862 98.096 45.5902 98.224 45.9022 98.352C46.2142 98.472 46.4862 98.672 46.7182 98.952C46.9582 99.224 47.0822 99.592 47.0902 100.056C47.0902 100.448 46.9782 100.8 46.7542 101.112C46.5382 101.416 46.2222 101.656 45.8062 101.832C45.3982 102.008 44.9222 102.096 44.3782 102.096ZM54.9685 95.232C55.7525 95.232 56.3765 95.488 56.8405 96C57.3125 96.504 57.5485 97.2 57.5485 98.088V102H55.5085V98.364C55.5085 97.916 55.3925 97.568 55.1605 97.32C54.9285 97.072 54.6165 96.948 54.2245 96.948C53.8325 96.948 53.5205 97.072 53.2885 97.32C53.0565 97.568 52.9405 97.916 52.9405 98.364V102H50.8885V95.304H52.9405V96.192C53.1485 95.896 53.4285 95.664 53.7805 95.496C54.1325 95.32 54.5285 95.232 54.9685 95.232ZM62.0225 102.096C61.3665 102.096 60.7745 101.956 60.2465 101.676C59.7265 101.396 59.3145 100.996 59.0105 100.476C58.7145 99.956 58.5665 99.348 58.5665 98.652C58.5665 97.964 58.7185 97.36 59.0225 96.84C59.3265 96.312 59.7425 95.908 60.2705 95.628C60.7985 95.348 61.3905 95.208 62.0465 95.208C62.7025 95.208 63.2945 95.348 63.8225 95.628C64.3505 95.908 64.7665 96.312 65.0705 96.84C65.3745 97.36 65.5265 97.964 65.5265 98.652C65.5265 99.34 65.3705 99.948 65.0585 100.476C64.7545 100.996 64.3345 101.396 63.7985 101.676C63.2705 101.956 62.6785 102.096 62.0225 102.096ZM62.0225 100.32C62.4145 100.32 62.7465 100.176 63.0185 99.888C63.2985 99.6 63.4385 99.188 63.4385 98.652C63.4385 98.116 63.3025 97.704 63.0305 97.416C62.7665 97.128 62.4385 96.984 62.0465 96.984C61.6465 96.984 61.3145 97.128 61.0505 97.416C60.7865 97.696 60.6545 98.108 60.6545 98.652C60.6545 99.188 60.7825 99.6 61.0385 99.888C61.3025 100.176 61.6305 100.32 62.0225 100.32ZM76.2271 95.304L74.4151 102H72.1471L71.0911 97.656L69.9991 102H67.7431L65.9191 95.304H67.9711L68.9191 100.092L70.0471 95.304H72.2191L73.3591 100.068L74.2951 95.304H76.2271ZM79.7096 93.276L79.4696 99.024H77.7296L77.4896 93.276H79.7096ZM78.6296 102.096C78.2696 102.096 77.9736 101.992 77.7416 101.784C77.5176 101.568 77.4056 101.304 77.4056 100.992C77.4056 100.672 77.5176 100.404 77.7416 100.188C77.9736 99.972 78.2696 99.864 78.6296 99.864C78.9816 99.864 79.2696 99.972 79.4936 100.188C79.7256 100.404 79.8416 100.672 79.8416 100.992C79.8416 101.304 79.7256 101.568 79.4936 101.784C79.2696 101.992 78.9816 102.096 78.6296 102.096Z" fill="#31443E"/>
<g filter="url(#filter0_d)">
<path d="M11 74L15.8275 56.5C12.6897 51.069 11 45.0345 11 38.7586C11 19.6897 26.6897 4 45.8793 4C65.0688 4 81 19.6897 81 38.7586C81 57.8274 65.069 74 45.8793 74C39.8448 74 34.0517 72.069 28.862 69.1725L11 74Z" fill="white"/>
</g>
<path d="M29.8275 62.8965L30.9138 63.4999C35.3793 66.2757 40.569 67.9654 46 67.9654C61.8103 67.9654 74.9655 54.8102 74.9655 38.7585C74.9655 22.7067 61.8103 10.0344 45.8793 10.0344C29.9483 10.0344 17.0345 22.8275 17.0345 38.7585C17.0345 44.3102 18.6035 49.7412 21.5 54.3275L22.2242 55.4137L19.4484 65.5517L29.8275 62.8965Z" fill="#05DB6B"/>
<path d="M36.5862 22.5863L34.2932 22.4656C33.569 22.4656 32.8449 22.707 32.3622 23.1898C31.2759 24.1553 29.4656 25.9656 28.9829 28.3795C28.1381 32.0002 29.4656 36.345 32.6036 40.6898C35.7416 45.0346 41.7761 52.0346 52.3967 55.0518C55.7759 56.0173 58.4311 55.4138 60.6036 54.0863C62.2933 53.0001 63.3794 51.3105 63.7416 49.5001L64.1036 47.8104C64.2243 47.3276 63.9829 46.7241 63.5001 46.4828L55.8967 42.9828C55.4139 42.7414 54.8104 42.8621 54.4484 43.3449L51.4311 47.2069C51.1897 47.4483 50.8277 47.5689 50.4656 47.4483C48.4139 46.7241 41.5346 43.8276 37.7932 36.5863C37.6725 36.2243 37.6725 35.8621 37.9139 35.6208L40.8104 32.3622C41.0519 32.0002 41.1725 31.5175 41.0519 31.1553L37.5519 23.3105C37.431 22.9483 37.069 22.5863 36.5862 22.5863Z" fill="#FEFEFE"/>
<defs>
<filter id="filter0_d" x="5" y="0" width="82" height="82" filterUnits="userSpaceOnUse" color-interpolation-filters="sRGB">
<feFlood flood-opacity="0" result="BackgroundImageFix"/>
<feColorMatrix in="SourceAlpha" type="matrix" values="0 0 0 0 0 0 0 0 0 0 0 0 0 0 0 0 0 0 127 0"/>
<feOffset dy="2"/>
<feGaussianBlur stdDeviation="3"/>
<feColorMatrix type="matrix" values="0 0 0 0 0 0 0 0 0 0 0 0 0 0 0 0 0 0 0.2 0"/>
<feBlend mode="normal" in2="BackgroundImageFix" result="effect1_dropShadow"/>
<feBlend mode="normal" in="SourceGraphic" in2="effect1_dropShadow" result="shape"/>
</filter>
</defs>
</svg>
