<svg width="20" height="20" viewBox="0 0 20 20" fill="none" xmlns="http://www.w3.org/2000/svg">
<path d="M10 1C5.03719 1 1 5.03719 1 10C1 11.693 1.47042 13.3366 2.36281 14.7638C2.00731 16.0092 1.36519 18.3652 1.35827 18.3897C1.32504 18.5116 1.36069 18.6417 1.45173 18.7293C1.54277 18.8169 1.67431 18.848 1.79408 18.8113L5.36154 17.714C6.75896 18.5559 8.35923 19 10 19C14.9628 19 19 14.9628 19 10C19 5.03719 14.9628 1 10 1ZM10 18.3077C8.43573 18.3077 6.91196 17.8705 5.59312 17.0439C5.53738 17.0089 5.47335 16.9913 5.40931 16.9913C5.37504 16.9913 5.34077 16.9965 5.30754 17.0065L2.1925 17.9653C2.42131 17.1301 2.83254 15.6361 3.07104 14.805C3.09873 14.7087 3.08315 14.6049 3.02881 14.5208C2.15442 13.1753 1.69231 11.612 1.69231 10C1.69231 5.41935 5.41935 1.69231 10 1.69231C14.5807 1.69231 18.3077 5.41935 18.3077 10C18.3077 14.5807 14.5807 18.3077 10 18.3077Z" fill="#31443E"/>
<path d="M15.8794 12.1205C15.2404 11.7657 14.6963 11.4099 14.2992 11.1503C13.996 10.9523 13.7769 10.8093 13.6163 10.7287C13.1673 10.5047 12.827 10.6629 12.6976 10.7937C12.6813 10.81 12.6668 10.8277 12.6543 10.8463C12.188 11.5459 11.5792 12.215 11.4009 12.251C11.1949 12.2188 10.2309 11.6709 9.27273 10.873C8.2945 10.0578 7.67904 9.27723 7.58869 8.74554C8.21627 8.09962 8.44231 7.69323 8.44231 7.23077C8.44231 6.75412 7.33046 4.76408 7.12935 4.56296C6.92754 4.3615 6.47304 4.33 5.77831 4.46846C5.7115 4.48196 5.64988 4.51485 5.60142 4.56296C5.51731 4.64708 3.54908 6.65373 4.48438 9.08581C5.51108 11.755 8.14635 14.8576 11.5061 15.3616C11.8879 15.4187 12.2458 15.4471 12.5809 15.4471C14.5575 15.4471 15.724 14.4526 16.0525 12.4798C16.0771 12.3355 16.0075 12.1915 15.8794 12.1205ZM11.6089 14.6769C8.056 14.1442 5.81812 10.6241 5.13065 8.83727C4.44873 7.06496 5.70631 5.48477 6.022 5.12754C6.27885 5.08392 6.54919 5.06558 6.66204 5.08323C6.89777 5.41104 7.714 6.95315 7.75 7.23077C7.75 7.4125 7.69081 7.66554 6.98604 8.37065C6.92096 8.43538 6.88462 8.52331 6.88462 8.61539C6.88462 10.4278 10.7075 12.9423 11.3846 12.9423C11.9734 12.9423 12.7412 11.9527 13.1784 11.3078C13.2037 11.3088 13.2462 11.3175 13.3068 11.3479C13.4314 11.4106 13.6474 11.5515 13.9205 11.7301C14.2812 11.9658 14.7603 12.2787 15.3259 12.6031C15.0691 13.8388 14.3512 15.0888 11.6089 14.6769Z" fill="#31443E"/>
<path d="M10 1C5.03719 1 1 5.03719 1 10C1 11.693 1.47042 13.3366 2.36281 14.7638C2.00731 16.0092 1.36519 18.3652 1.35827 18.3897C1.32504 18.5116 1.36069 18.6417 1.45173 18.7293C1.54277 18.8169 1.67431 18.848 1.79408 18.8113L5.36154 17.714C6.75896 18.5559 8.35923 19 10 19C14.9628 19 19 14.9628 19 10C19 5.03719 14.9628 1 10 1ZM10 18.3077C8.43573 18.3077 6.91196 17.8705 5.59312 17.0439C5.53738 17.0089 5.47335 16.9913 5.40931 16.9913C5.37504 16.9913 5.34077 16.9965 5.30754 17.0065L2.1925 17.9653C2.42131 17.1301 2.83254 15.6361 3.07104 14.805C3.09873 14.7087 3.08315 14.6049 3.02881 14.5208C2.15442 13.1753 1.69231 11.612 1.69231 10C1.69231 5.41935 5.41935 1.69231 10 1.69231C14.5807 1.69231 18.3077 5.41935 18.3077 10C18.3077 14.5807 14.5807 18.3077 10 18.3077Z" stroke="#31443E" stroke-width="0.3"/>
<path d="M15.8794 12.1205C15.2404 11.7657 14.6963 11.4099 14.2992 11.1503C13.996 10.9523 13.7769 10.8093 13.6163 10.7287C13.1673 10.5047 12.827 10.6629 12.6976 10.7937C12.6813 10.81 12.6668 10.8277 12.6543 10.8463C12.188 11.5459 11.5792 12.215 11.4009 12.251C11.1949 12.2188 10.2309 11.6709 9.27273 10.873C8.2945 10.0578 7.67904 9.27723 7.58869 8.74554C8.21627 8.09962 8.44231 7.69323 8.44231 7.23077C8.44231 6.75412 7.33046 4.76408 7.12935 4.56296C6.92754 4.3615 6.47304 4.33 5.77831 4.46846C5.7115 4.48196 5.64988 4.51485 5.60142 4.56296C5.51731 4.64708 3.54908 6.65373 4.48438 9.08581C5.51108 11.755 8.14635 14.8576 11.5061 15.3616C11.8879 15.4187 12.2458 15.4471 12.5809 15.4471C14.5575 15.4471 15.724 14.4526 16.0525 12.4798C16.0771 12.3355 16.0075 12.1915 15.8794 12.1205ZM11.6089 14.6769C8.056 14.1442 5.81812 10.6241 5.13065 8.83727C4.44873 7.06496 5.70631 5.48477 6.022 5.12754C6.27885 5.08392 6.54919 5.06558 6.66204 5.08323C6.89777 5.41104 7.714 6.95315 7.75 7.23077C7.75 7.4125 7.69081 7.66554 6.98604 8.37065C6.92096 8.43538 6.88462 8.52331 6.88462 8.61539C6.88462 10.4278 10.7075 12.9423 11.3846 12.9423C11.9734 12.9423 12.7412 11.9527 13.1784 11.3078C13.2037 11.3088 13.2462 11.3175 13.3068 11.3479C13.4314 11.4106 13.6474 11.5515 13.9205 11.7301C14.2812 11.9658 14.7603 12.2787 15.3259 12.6031C15.0691 13.8388 14.3512 15.0888 11.6089 14.6769Z" stroke="#31443E" stroke-width="0.3"/>
</svg>
