<svg width="40" height="40" viewBox="0 0 40 40" fill="none" xmlns="http://www.w3.org/2000/svg">
<path fill-rule="evenodd" clip-rule="evenodd" d="M20 40C31.0457 40 40 31.0457 40 20C40 8.9543 31.0457 0 20 0C8.9543 0 0 8.9543 0 20C0 31.0457 8.9543 40 20 40Z" fill="url(#paint0_linear)"/>
<path d="M16.9215 28.7646H18.4596C18.8838 28.7646 19.2287 28.4196 19.2287 27.9955V27.2265C19.2287 26.8023 18.8838 26.4574 18.4596 26.4574H16.9215C16.4974 26.4574 16.1525 26.8023 16.1525 27.2265V27.9955C16.1525 28.4196 16.4974 28.7646 16.9215 28.7646ZM16.9215 27.2265H18.4596L18.46 27.9955H16.9215V27.2265Z" fill="white"/>
<path d="M13.8452 28.7646H14.6143C15.0384 28.7646 15.3833 28.4196 15.3833 27.9955V27.2265C15.3833 26.8023 15.0384 26.4574 14.6143 26.4574H13.8452C13.4211 26.4574 13.0762 26.8023 13.0762 27.2265V27.9955C13.0762 28.4196 13.4211 28.7646 13.8452 28.7646ZM13.8452 27.2265H14.6143L14.6147 27.9955H13.8452V27.2265Z" fill="white"/>
<path d="M20.7669 28.7646H21.5359C21.9601 28.7646 22.305 28.4196 22.305 27.9955V27.2265C22.305 26.8023 21.9601 26.4574 21.5359 26.4574H20.7669C20.3427 26.4574 19.9978 26.8023 19.9978 27.2265V27.9955C19.9978 28.4196 20.3427 28.7646 20.7669 28.7646ZM20.7669 27.2265H21.5359L21.5363 27.9955H20.7669V27.2265Z" fill="white"/>
<path d="M14.6144 11.0762H18.4597V11.8452H14.6144V11.0762Z" fill="white"/>
<path d="M19.2288 11.0762H20.7669V11.8452H19.2288V11.0762Z" fill="white"/>
<path d="M34 19.1513L27.6883 12.8397V16.4596H25.3812V10.3072C25.3812 9.03477 24.3464 8 23.074 8H12.3072C11.0348 8 10 9.03477 10 10.3072V29.5336C10 30.806 11.0348 31.8408 12.3072 31.8408H23.074C24.3464 31.8408 25.3812 30.806 25.3812 29.5336V21.843H27.6883V25.463L34 19.1513ZM24.6121 29.5336C24.6121 30.3819 23.9223 31.0717 23.074 31.0717H12.3072C11.4589 31.0717 10.7691 30.3819 10.7691 29.5336V10.3072C10.7691 9.4589 11.4589 8.76906 12.3072 8.76906H23.074C23.9223 8.76906 24.6121 9.4589 24.6121 10.3072V16.4596H23.843V10.6917C23.843 10.0557 23.3255 9.53812 22.6895 9.53812H12.6917C12.0557 9.53812 11.5381 10.0557 11.5381 10.6917V29.1491C11.5381 29.7851 12.0557 30.3027 12.6917 30.3027H22.6895C23.3255 30.3027 23.843 29.7851 23.843 29.1491V21.843H24.6121V29.5336ZM19.116 19.9669L19.6598 20.511C19.8747 20.7256 19.9978 21.0228 19.9978 21.3266V21.843H15.3834V21.3266C15.3834 21.0228 15.5065 20.7256 15.7214 20.511L16.2651 19.9673C16.4828 19.7493 16.6031 19.4597 16.6031 19.1513C16.6031 18.843 16.4828 18.5534 16.2651 18.3358L15.7214 17.7916C15.5065 17.5771 15.3834 17.2798 15.3834 16.9761V16.4596H19.9978V16.9761C19.9978 17.2798 19.8747 17.5771 19.6598 17.7916L19.116 18.3354C18.8984 18.5534 18.778 18.843 18.778 19.1513C18.778 19.4597 18.8984 19.7493 19.116 19.9669ZM15.3834 22.6121H19.9978V23.3812H15.3834V22.6121ZM19.9978 15.6906H15.3834V14.9215H19.9978V15.6906ZM19.9978 14.1525H15.3834C14.9593 14.1525 14.6143 14.4974 14.6143 14.9215V16.9761C14.6143 17.4894 14.8147 17.9724 15.1777 18.3354L15.7214 18.8795C15.7941 18.9518 15.8341 19.0483 15.8341 19.1513C15.8341 19.2544 15.7941 19.3505 15.7214 19.4232L15.1777 19.9673C14.8147 20.3303 14.6143 20.8133 14.6143 21.3266V23.3812C14.6143 23.8053 14.9593 24.1502 15.3834 24.1502H19.9978C20.4219 24.1502 20.7668 23.8053 20.7668 23.3812V21.843H23.074V24.9193H12.3072V13.3834H23.074V16.4596H20.7668V14.9215C20.7668 14.4974 20.4219 14.1525 19.9978 14.1525ZM23.074 12.6143H12.3072V10.6917C12.3072 10.4798 12.4794 10.3072 12.6917 10.3072H22.6895C22.9017 10.3072 23.074 10.4798 23.074 10.6917V12.6143ZM12.3072 25.6883H23.074V29.1491C23.074 29.361 22.9017 29.5336 22.6895 29.5336H12.6917C12.4794 29.5336 12.3072 29.361 12.3072 29.1491V25.6883ZM20.7422 21.074C20.6872 20.6572 20.5061 20.2696 20.2035 19.9673L19.6598 19.4232C19.5871 19.3509 19.5471 19.2544 19.5471 19.1513C19.5471 19.0483 19.5871 18.9522 19.6598 18.8795L20.2035 18.3354C20.5061 18.0327 20.6872 17.6455 20.7422 17.2287H28.4574V14.6962L32.9126 19.1513L28.4574 23.6065V21.074H20.7422Z" fill="white"/>
<defs>
<linearGradient id="paint0_linear" x1="20" y1="0" x2="20" y2="40" gradientUnits="userSpaceOnUse">
<stop stop-color="#05DB6B"/>
<stop offset="1" stop-color="#09A854"/>
</linearGradient>
</defs>
</svg>
