<svg width="40" height="40" viewBox="0 0 40 40" fill="none" xmlns="http://www.w3.org/2000/svg">
<path fill-rule="evenodd" clip-rule="evenodd" d="M20 40C31.0457 40 40 31.0457 40 20C40 8.9543 31.0457 0 20 0C8.9543 0 0 8.9543 0 20C0 31.0457 8.9543 40 20 40Z" fill="url(#paint0_linear)"/>
<path d="M29.6774 20.9794V13.3884C30.9885 13.1995 32 12.0719 32 10.7097C32 9.21587 30.7845 8 29.2903 8C27.7961 8 26.5806 9.21587 26.5806 10.7097H8V26.1935H19.6326C19.8339 29.4281 22.5223 32 25.8065 32C29.2214 32 32 29.2214 32 25.8065C32 23.8559 31.0915 22.1155 29.6774 20.9794ZM29.2903 8.77419C30.3575 8.77419 31.2258 9.64245 31.2258 10.7097C31.2258 11.7769 30.3575 12.6452 29.2903 12.6452C28.2231 12.6452 27.3548 11.7769 27.3548 10.7097C27.3548 9.64245 28.2231 8.77419 29.2903 8.77419ZM8.77419 11.4839H26.6948C26.7874 11.7928 26.9345 12.0773 27.1234 12.3297L24.7559 14.6972C24.6041 14.6244 24.4369 14.5806 24.2581 14.5806C24.0792 14.5806 23.912 14.6244 23.7606 14.6972L22.9806 13.9172C23.053 13.7654 23.0968 13.5982 23.0968 13.4194C23.0968 12.7791 22.5757 12.2581 21.9355 12.2581C21.2952 12.2581 20.7742 12.7791 20.7742 13.4194C20.7742 13.5982 20.8179 13.7654 20.8907 13.9168L18.9494 15.8581C18.7977 15.7857 18.6305 15.7419 18.4516 15.7419C17.8114 15.7419 17.2903 16.263 17.2903 16.9032C17.2903 17.5435 17.8114 18.0645 18.4516 18.0645C19.0919 18.0645 19.6129 17.5435 19.6129 16.9032C19.6129 16.7244 19.5692 16.5572 19.4964 16.4058L21.4377 14.4645C21.5894 14.5369 21.7566 14.5806 21.9355 14.5806C22.1143 14.5806 22.2815 14.5369 22.4329 14.4641L23.2129 15.2441C23.1405 15.3959 23.0968 15.5631 23.0968 15.7419C23.0968 16.3822 23.6178 16.9032 24.2581 16.9032C24.8983 16.9032 25.4194 16.3822 25.4194 15.7419C25.4194 15.5631 25.3756 15.3959 25.3028 15.2445L27.6707 12.877C28.0249 13.1426 28.4453 13.3226 28.9032 13.3888V20.4514C27.9908 19.9214 26.9352 19.6129 25.8065 19.6129C23.9561 19.6129 22.297 20.4328 21.1613 21.7237V20H18.8387V24.6452H19.7259C19.6779 24.8979 19.6489 25.1569 19.6326 25.4194H8.77419V11.4839ZM24.2581 15.3548C24.4714 15.3548 24.6452 15.5283 24.6452 15.7419C24.6452 15.9556 24.4714 16.129 24.2581 16.129C24.0448 16.129 23.871 15.9556 23.871 15.7419C23.871 15.5283 24.0448 15.3548 24.2581 15.3548ZM21.5484 13.4194C21.5484 13.2057 21.7222 13.0323 21.9355 13.0323C22.1488 13.0323 22.3226 13.2057 22.3226 13.4194C22.3226 13.633 22.1488 13.8065 21.9355 13.8065C21.7222 13.8065 21.5484 13.633 21.5484 13.4194ZM18.8387 16.9032C18.8387 17.1169 18.6649 17.2903 18.4516 17.2903C18.2383 17.2903 18.0645 17.1169 18.0645 16.9032C18.0645 16.6895 18.2383 16.5161 18.4516 16.5161C18.6649 16.5161 18.8387 16.6895 18.8387 16.9032ZM25.8065 28.9032C24.099 28.9032 22.7097 27.5139 22.7097 25.8065C22.7097 24.099 24.099 22.7097 25.8065 22.7097C27.5139 22.7097 28.9032 24.099 28.9032 25.8065C28.9032 27.5139 27.5139 28.9032 25.8065 28.9032ZM20.3871 22.8146C20.2017 23.149 20.0484 23.5025 19.9268 23.871H19.6129V20.7742H20.3871V22.8146ZM25.4194 20.4068V21.9552C23.4661 22.1503 21.9355 23.8028 21.9355 25.8065C21.9355 26.3728 22.0609 26.9097 22.2804 27.3951L20.9375 28.1705C20.5884 27.4551 20.3871 26.6546 20.3871 25.8065C20.3871 22.9489 22.6117 20.6066 25.4194 20.4068ZM25.8065 31.2258C23.943 31.2258 22.2963 30.2801 21.3208 28.8432L22.669 28.0648C23.3728 29.0395 24.5151 29.6774 25.8065 29.6774C27.0978 29.6774 28.2401 29.0395 28.9439 28.0648L30.2921 28.8432C29.3166 30.2801 27.6699 31.2258 25.8065 31.2258ZM30.6754 28.1705L29.3325 27.3951C29.552 26.9097 29.6774 26.3728 29.6774 25.8065C29.6774 23.8028 28.1468 22.1499 26.1935 21.9552V20.4068C29.0012 20.6066 31.2258 22.9489 31.2258 25.8065C31.2258 26.6546 31.0245 27.4551 30.6754 28.1705Z" fill="white"/>
<path d="M25.8065 23.4839C24.5256 23.4839 23.4839 24.5256 23.4839 25.8065C23.4839 27.0874 24.5256 28.129 25.8065 28.129C27.0874 28.129 28.129 27.0874 28.129 25.8065C28.129 24.5256 27.0874 23.4839 25.8065 23.4839ZM25.8065 27.3549C24.9525 27.3549 24.2581 26.6604 24.2581 25.8065C24.2581 24.9525 24.9525 24.2581 25.8065 24.2581C26.6604 24.2581 27.3549 24.9525 27.3549 25.8065C27.3549 26.6604 26.6604 27.3549 25.8065 27.3549Z" fill="white"/>
<path d="M9.54834 12.2581H10.3225V13.0323H9.54834V12.2581Z" fill="white"/>
<path d="M11.0968 12.2581H16.5162V13.0323H11.0968V12.2581Z" fill="white"/>
<path d="M9.54834 13.8065H10.3225V14.5807H9.54834V13.8065Z" fill="white"/>
<path d="M11.0968 13.8065H16.5162V14.5807H11.0968V13.8065Z" fill="white"/>
<path d="M9.54834 15.3549H10.3225V16.1291H9.54834V15.3549Z" fill="white"/>
<path d="M11.0968 15.3549H16.5162V16.1291H11.0968V15.3549Z" fill="white"/>
<path d="M9.54834 16.9032H10.3225V17.6774H9.54834V16.9032Z" fill="white"/>
<path d="M11.0968 16.9032H16.5162V17.6774H11.0968V16.9032Z" fill="white"/>
<path d="M9.54834 24.6451H11.8709V20.7742H9.54834V24.6451ZM10.3225 21.5484H11.0967V23.8709H10.3225V21.5484Z" fill="white"/>
<path d="M12.6451 24.6451H14.9677V21.5483H12.6451V24.6451ZM13.4193 22.3225H14.1935V23.8709H13.4193V22.3225Z" fill="white"/>
<path d="M15.7419 24.6452H18.0645V18.4517H15.7419V24.6452ZM16.5161 19.2259H17.2903V23.871H16.5161V19.2259Z" fill="white"/>
<defs>
<linearGradient id="paint0_linear" x1="20" y1="0" x2="20" y2="40" gradientUnits="userSpaceOnUse">
<stop stop-color="#05DB6B"/>
<stop offset="1" stop-color="#09A854"/>
</linearGradient>
</defs>
</svg>
