<svg width="64" height="64" viewBox="0 0 64 64" fill="none" xmlns="http://www.w3.org/2000/svg">
<path d="M0 18.2857C0 8.18679 8.18679 0 18.2857 0H45.7143C55.8132 0 64 8.18679 64 18.2857V45.7143C64 55.8132 55.8132 64 45.7143 64H18.2857C8.18679 64 0 55.8132 0 45.7143V18.2857Z" fill="#04D868" fill-opacity="0.5"/>
<g clip-path="url(#clip0)">
<path d="M35.8281 31.0585C35.8281 33.1727 34.1142 34.8866 32 34.8866C29.8859 34.8866 28.172 33.1727 28.172 31.0585C28.172 28.9443 29.8859 27.2305 32 27.2305C34.1142 27.2305 35.8281 28.9443 35.8281 31.0585Z" fill="black"/>
<path d="M45.9153 18.0842C45.2156 17.385 44.2857 17 43.2969 17H20.7031C19.7143 17 18.7844 17.385 18.0842 18.0847C17.385 18.7846 17 19.7143 17 20.7031V24.4689C17 25.4576 17.385 26.3874 18.0847 27.0877C18.7846 27.787 19.7143 28.1717 20.7031 28.1717H20.8908V21.707C20.8908 21.2217 21.2842 20.828 21.7697 20.828H42.2306C42.7158 20.828 43.1095 21.2217 43.1095 21.707V28.1717H43.2969C44.2857 28.1717 45.2154 27.7867 45.9158 27.0871C46.615 26.3874 47 25.4574 47 24.4689V20.7031C47 19.7143 46.615 18.7846 45.9153 18.0842Z" fill="black"/>
<path d="M22.6484 44.2384C22.6484 44.9765 22.9359 45.67 23.4571 46.1905C23.9785 46.7126 24.672 47.0001 25.4101 47.0001H38.5901C39.3282 47.0001 40.0217 46.7126 40.5422 46.1914C41.064 45.67 41.3515 44.9765 41.3515 44.2384V22.5859H22.6484V44.2384ZM32.0001 25.4728C35.0802 25.4728 37.586 27.9786 37.586 31.0587C37.586 34.1387 35.0802 36.6445 32.0001 36.6445C28.92 36.6445 26.4142 34.1387 26.4142 31.0587C26.4142 27.9786 28.92 25.4728 32.0001 25.4728ZM27.2931 40.5353H36.707C37.1925 40.5353 37.586 40.9288 37.586 41.4142C37.586 41.8994 37.1925 42.2931 36.707 42.2931H27.2931C26.8077 42.2931 26.4142 41.8994 26.4142 41.4142C26.4142 40.9288 26.8077 40.5353 27.2931 40.5353Z" fill="black"/>
</g>
<defs>
<clipPath id="clip0">
<rect width="30" height="30" fill="white" transform="translate(17 17)"/>
</clipPath>
</defs>
</svg>
