<svg width="64" height="64" viewBox="0 0 64 64" fill="none" xmlns="http://www.w3.org/2000/svg">
<path d="M0 18.2857C0 8.18679 8.18679 0 18.2857 0H45.7143C55.8132 0 64 8.18679 64 18.2857V45.7143C64 55.8132 55.8132 64 45.7143 64H18.2857C8.18679 64 0 55.8132 0 45.7143V18.2857Z" fill="#FF7070" fill-opacity="0.5"/>
<path d="M41.6329 17H22.3671C20.5105 17 19 18.2947 19 19.886V44.114C19 45.7053 20.5105 47 22.3671 47H41.6329C43.4895 47 45 45.7053 45 44.114V19.886C45 18.2947 43.4895 17 41.6329 17ZM23.615 21.9861C23.615 21.5007 24.0741 21.1072 24.6404 21.1072H39.3595C39.9258 21.1072 40.3849 21.5007 40.3849 21.9861V23.7215C40.3849 24.2069 39.9258 24.6004 39.3595 24.6004H24.6404C24.0741 24.6004 23.615 24.2069 23.615 23.7215V21.9861ZM27.0673 41.7216C27.0673 42.207 26.6082 42.6005 26.0419 42.6005H24.6405C24.0742 42.6005 23.6151 42.207 23.6151 41.7216V40.8889C23.6151 40.4035 24.0742 40.01 24.6405 40.01H26.0419C26.6082 40.01 27.0673 40.4035 27.0673 40.8889V41.7216ZM27.0673 36.5203C27.0673 37.0057 26.6082 37.3992 26.0419 37.3992H24.6405C24.0742 37.3992 23.6151 37.0057 23.6151 36.5203V35.6875C23.6151 35.2021 24.0742 34.8086 24.6405 34.8086H26.0419C26.6082 34.8086 27.0673 35.2021 27.0673 35.6875V36.5203ZM33.8101 41.7216C33.8101 42.207 33.351 42.6005 32.7847 42.6005H31.3833C30.8169 42.6005 30.3579 42.207 30.3579 41.7216V40.8889C30.3579 40.4035 30.8169 40.01 31.3833 40.01H32.7847C33.351 40.01 33.8101 40.4035 33.8101 40.8889V41.7216ZM33.8101 36.5203C33.8101 37.0057 33.351 37.3992 32.7847 37.3992H31.3833C30.8169 37.3992 30.3579 37.0057 30.3579 36.5203V35.6875C30.3579 35.2021 30.8169 34.8086 31.3833 34.8086H32.7847C33.351 34.8086 33.8101 35.2021 33.8101 35.6875V36.5203ZM33.8101 31.3188C33.8101 31.8043 33.351 32.1978 32.7847 32.1978H24.6404C24.0741 32.1978 23.615 31.8042 23.615 31.3188V30.4861C23.615 30.0007 24.0741 29.6072 24.6404 29.6072H32.7847C33.351 29.6072 33.8101 30.0007 33.8101 30.4861V31.3188ZM40.553 41.7216C40.553 42.207 40.0938 42.6005 39.5275 42.6005H38.1261C37.5598 42.6005 37.1007 42.207 37.1007 41.7216V40.8889C37.1007 40.4035 37.5598 40.01 38.1261 40.01H39.5275C40.0938 40.01 40.553 40.4035 40.553 40.8889V41.7216ZM40.553 36.5203C40.553 37.0057 40.0938 37.3992 39.5275 37.3992H38.1261C37.5598 37.3992 37.1007 37.0057 37.1007 36.5203V35.6875C37.1007 35.2021 37.5598 34.8086 38.1261 34.8086H39.5275C40.0938 34.8086 40.553 35.2021 40.553 35.6875V36.5203ZM40.553 31.3188C40.553 31.8043 40.0938 32.1978 39.5275 32.1978H38.1261C37.5598 32.1978 37.1007 31.8042 37.1007 31.3188V30.4861C37.1007 30.0007 37.5598 29.6072 38.1261 29.6072H39.5275C40.0938 29.6072 40.553 30.0007 40.553 30.4861V31.3188Z" fill="black"/>
</svg>
