<svg width="64" height="64" viewBox="0 0 64 64" fill="none" xmlns="http://www.w3.org/2000/svg">
<path d="M0 18.2857C0 8.18679 8.18679 0 18.2857 0H45.7143C55.8132 0 64 8.18679 64 18.2857V45.7143C64 55.8132 55.8132 64 45.7143 64H18.2857C8.18679 64 0 55.8132 0 45.7143V18.2857Z" fill="#0085FF" fill-opacity="0.5"/>
<path d="M44.1516 17.7707C43.6323 17.5606 43.0204 17.6424 42.5957 17.9785L40.3546 19.7212C40.2937 19.7689 40.2017 19.7686 40.1411 19.7206L37.0918 17.3255C36.5403 16.8915 35.7054 16.8915 35.1539 17.3255L32.1074 19.7184C32.0461 19.7665 31.9535 19.7665 31.8922 19.7184L28.8454 17.3255C28.2939 16.8916 27.459 16.8916 26.9075 17.3255L23.8579 19.7206C23.7969 19.7686 23.7046 19.7688 23.6433 19.7211L21.4002 17.9785C20.8051 17.5138 19.8936 17.5606 19.3644 18.0833C19.1271 18.3176 18.9973 18.621 19 18.9346V45.0654C18.9947 45.7659 19.637 46.3375 20.4346 46.3422C20.7919 46.3443 21.1373 46.23 21.4042 46.0215L23.6453 44.2788C23.7063 44.2311 23.7982 44.2314 23.8589 44.2794L26.9081 46.6745C27.4596 47.1085 28.2945 47.1085 28.846 46.6745L31.8928 44.2816C31.9541 44.2335 32.0467 44.2335 32.108 44.2816L35.1548 46.6744C35.7064 47.1082 36.5412 47.1082 37.0927 46.6744L40.1425 44.2793C40.2036 44.2314 40.2958 44.2311 40.3571 44.2788L42.6002 46.0214C43.1956 46.486 44.1069 46.4387 44.6359 45.9159C44.8728 45.6817 45.0025 45.3787 44.9999 45.0654V18.9346C45.0075 18.4326 44.6738 17.9748 44.1516 17.7707ZM24.3459 27.1779H32.387C32.7437 27.1779 33.0329 27.432 33.0329 27.7452C33.0329 28.0585 32.7437 28.3125 32.387 28.3125H24.3459C23.9892 28.3125 23.7 28.0585 23.7 27.7452C23.7 27.432 23.9892 27.1779 24.3459 27.1779ZM39.654 36.8221H24.3459C23.9892 36.8221 23.7 36.568 23.7 36.2548C23.7 35.9415 23.9892 35.6875 24.3459 35.6875H39.654C40.0107 35.6875 40.3 35.9415 40.3 36.2548C40.3 36.568 40.0107 36.8221 39.654 36.8221ZM39.654 32.5673H24.3459C23.9892 32.5673 23.7 32.3133 23.7 32C23.7 31.6867 23.9892 31.4327 24.3459 31.4327H39.654C40.0107 31.4327 40.3 31.6867 40.3 32C40.3 32.3133 40.0107 32.5673 39.654 32.5673Z" fill="black"/>
</svg>
