<svg width="64" height="64" viewBox="0 0 64 64" fill="none" xmlns="http://www.w3.org/2000/svg">
<path d="M0 18.2857C0 8.18679 8.18679 0 18.2857 0H45.7143C55.8132 0 64 8.18679 64 18.2857V45.7143C64 55.8132 55.8132 64 45.7143 64H18.2857C8.18679 64 0 55.8132 0 45.7143V18.2857Z" fill="#A45CFF" fill-opacity="0.5"/>
<path d="M41.425 17H22.575C20.6029 17 19 18.5412 19 20.4375V43.5625C19 45.4587 20.6029 47 22.575 47H41.425C43.3971 47 45 45.4587 45 43.5625V20.4375C45 18.5412 43.3971 17 41.425 17ZM30.375 33.25V27.095C33.495 27.5513 35.9 30.125 35.9 33.25C35.9 36.6963 32.9841 39.5 29.4 39.5C27.9596 39.5 26.6401 39.0325 25.5611 38.2663L30.089 33.9125C30.2723 33.7375 30.375 33.4988 30.375 33.25ZM28.425 27.095V32.8625L24.1831 36.9412C23.3862 35.9037 22.9 34.635 22.9 33.25C22.9 30.125 25.305 27.5513 28.425 27.095ZM40.125 43.5625H23.875C23.3368 43.5625 22.9 43.1425 22.9 42.625C22.9 42.1075 23.3368 41.6875 23.875 41.6875H40.125C40.6632 41.6875 41.1 42.1075 41.1 42.625C41.1 43.1425 40.6632 43.5625 40.125 43.5625ZM40.125 39.5H38.175C37.6368 39.5 37.2 39.08 37.2 38.5625C37.2 38.045 37.6368 37.625 38.175 37.625H40.125C40.6632 37.625 41.1 38.045 41.1 38.5625C41.1 39.08 40.6632 39.5 40.125 39.5ZM40.125 36.0625H38.175C37.6368 36.0625 37.2 35.6425 37.2 35.125C37.2 34.6075 37.6368 34.1875 38.175 34.1875H40.125C40.6632 34.1875 41.1 34.6075 41.1 35.125C41.1 35.6425 40.6632 36.0625 40.125 36.0625ZM40.125 32.3125H38.175C37.6368 32.3125 37.2 31.8925 37.2 31.375C37.2 30.8575 37.6368 30.4375 38.175 30.4375H40.125C40.6632 30.4375 41.1 30.8575 41.1 31.375C41.1 31.8925 40.6632 32.3125 40.125 32.3125ZM40.125 28.875H38.175C37.6368 28.875 37.2 28.455 37.2 27.9375C37.2 27.42 37.6368 27 38.175 27H40.125C40.6632 27 41.1 27.42 41.1 27.9375C41.1 28.455 40.6632 28.875 40.125 28.875Z" fill="black"/>
</svg>
