<svg width="64" height="64" viewBox="0 0 64 64" fill="none" xmlns="http://www.w3.org/2000/svg">
<path d="M0 18.2857C0 8.18679 8.18679 0 18.2857 0H45.7143C55.8132 0 64 8.18679 64 18.2857V45.7143C64 55.8132 55.8132 64 45.7143 64H18.2857C8.18679 64 0 55.8132 0 45.7143V18.2857Z" fill="#FFD976"/>
<path d="M46.121 17C43.8613 17 19.134 17 17.8789 17C17.3935 17 17 17.4361 17 17.974C17 18.5119 17.3935 18.9481 17.8789 18.9481H19.9883V46.0259C19.9883 46.3522 20.1358 46.6569 20.381 46.8374C20.6267 47.0182 20.9374 47.0501 21.2082 46.9237L26.4338 44.4854L31.6593 46.9237C31.8773 47.0254 32.1233 47.0254 32.3415 46.9237L37.5667 44.4854L42.7917 46.9237C43.0631 47.0503 43.3738 47.0179 43.619 46.8374C43.8643 46.6569 44.0117 46.3523 44.0117 46.026V18.9481H46.1211C46.6065 18.9481 47 18.5119 47 17.974C47 17.4361 46.6064 17 46.121 17ZM25.6719 37.4545C25.0246 37.4545 24.5 36.8731 24.5 36.1558C24.5 35.4386 25.0246 34.8571 25.6719 34.8571C26.3191 34.8571 26.8437 35.4386 26.8437 36.1558C26.8437 36.8731 26.3191 37.4545 25.6719 37.4545ZM25.6719 32.2597C25.0246 32.2597 24.5 31.6783 24.5 30.961C24.5 30.2438 25.0246 29.6623 25.6719 29.6623C26.3191 29.6623 26.8437 30.2438 26.8437 30.961C26.8437 31.6783 26.3191 32.2597 25.6719 32.2597ZM26.7265 23.1688C26.7265 22.6309 27.1201 22.1948 27.6054 22.1948H36.3945C36.8799 22.1948 37.2734 22.6309 37.2734 23.1688C37.2734 23.7067 36.8799 24.1429 36.3945 24.1429H27.6054C27.1201 24.1429 26.7265 23.7067 26.7265 23.1688ZM38.4453 37.1299H30.2422C29.7568 37.1299 29.3633 36.6937 29.3633 36.1558C29.3633 35.6179 29.7568 35.1818 30.2422 35.1818H38.4453C38.9307 35.1818 39.3242 35.6179 39.3242 36.1558C39.3242 36.6937 38.9307 37.1299 38.4453 37.1299ZM38.4453 31.9351H30.2422C29.7568 31.9351 29.3633 31.4989 29.3633 30.961C29.3633 30.4231 29.7568 29.987 30.2422 29.987H38.4453C38.9307 29.987 39.3242 30.4231 39.3242 30.961C39.3242 31.4989 38.9307 31.9351 38.4453 31.9351Z" fill="black"/>
</svg>
