<svg width="64" height="64" viewBox="0 0 64 64" fill="none" xmlns="http://www.w3.org/2000/svg">
<path d="M0 18.2857C0 8.18679 8.18679 0 18.2857 0H45.7143C55.8132 0 64 8.18679 64 18.2857V45.7143C64 55.8132 55.8132 64 45.7143 64H18.2857C8.18679 64 0 55.8132 0 45.7143V18.2857Z" fill="#84D220" fill-opacity="0.5"/>
<path d="M30.0013 38.9433C30.0013 43.3012 33.3589 46.834 37.5007 46.834C41.6425 46.834 45 43.3013 45 38.9433C45 34.5853 41.6425 31.0527 37.5007 31.0527C33.3588 31.0527 30.0013 34.5854 30.0013 38.9433ZM34.5714 35.8617C34.7571 35.6663 35.0147 35.5539 35.2772 35.5539C35.5398 35.5539 35.7974 35.6663 35.9841 35.8617C36.1698 36.0571 36.2756 36.3281 36.2756 36.6044C36.2756 36.8807 36.1698 37.1517 35.9841 37.3471C35.7974 37.5425 35.5408 37.6549 35.2772 37.6549C35.0147 37.6549 34.7571 37.5425 34.5714 37.3471C34.3857 37.1517 34.2788 36.8807 34.2788 36.6044C34.2788 36.3281 34.3857 36.0571 34.5714 35.8617ZM40.4297 42.0246C40.2439 42.2201 39.9864 42.3325 39.7238 42.3325C39.4612 42.3325 39.2037 42.2201 39.018 42.0246C38.8313 41.8293 38.7254 41.5593 38.7254 41.282C38.7254 41.0056 38.8313 40.7347 39.018 40.5393C39.2037 40.3438 39.4612 40.2315 39.7238 40.2315C39.9864 40.2315 40.2439 40.3438 40.4297 40.5393C40.6154 40.7347 40.7222 41.0056 40.7222 41.282C40.7222 41.5594 40.6154 41.8294 40.4297 42.0246ZM40.4163 35.8755C40.8061 36.2857 40.8061 36.9509 40.4163 37.3611L35.997 42.0109C35.8021 42.2159 35.5466 42.3186 35.2911 42.3186C35.0355 42.3186 34.78 42.216 34.5851 42.0109C34.1952 41.6007 34.1952 40.9355 34.5851 40.5253L39.0043 35.8755C39.3943 35.4654 40.0263 35.4654 40.4163 35.8755Z" fill="black"/>
<path d="M28.0046 38.9433C28.0046 33.434 32.2645 28.9518 37.5006 28.9518C37.6742 28.9518 37.8466 28.957 38.0179 28.9667V18.0504C38.0179 17.4703 37.5709 17 37.0195 17H19.9983C19.447 17 19 17.4703 19 18.0504V45.9496C19 46.5297 19.447 47 19.9983 47H31.8913C29.5363 45.18 28.0046 42.2465 28.0046 38.9433ZM24.6456 22.5799H31.7165C32.2678 22.5799 32.7148 23.0502 32.7148 23.6303C32.7148 24.2104 32.2678 24.6807 31.7165 24.6807H24.6456C24.0943 24.6807 23.6473 24.2104 23.6473 23.6303C23.6473 23.0502 24.0943 22.5799 24.6456 22.5799ZM24.6456 28.1597H31.7165C32.2678 28.1597 32.7148 28.63 32.7148 29.2101C32.7148 29.7902 32.2678 30.2606 31.7165 30.2606H24.6456C24.0943 30.2606 23.6473 29.7902 23.6473 29.2101C23.6472 28.63 24.0943 28.1597 24.6456 28.1597ZM26.4133 35.8404H24.6456C24.0943 35.8404 23.6473 35.3701 23.6473 34.79C23.6473 34.2099 24.0943 33.7396 24.6456 33.7396H26.4133C26.9646 33.7396 27.4116 34.2099 27.4116 34.79C27.4116 35.3701 26.9646 35.8404 26.4133 35.8404Z" fill="black"/>
</svg>
