<svg width="64" height="64" viewBox="0 0 64 64" fill="none" xmlns="http://www.w3.org/2000/svg">
<path d="M0 18.2857C0 8.18679 8.18679 0 18.2857 0H45.7143C55.8132 0 64 8.18679 64 18.2857V45.7143C64 55.8132 55.8132 64 45.7143 64H18.2857C8.18679 64 0 55.8132 0 45.7143V18.2857Z" fill="#B7EDFF"/>
<path d="M28.1037 17C25.4927 17 23.3133 18.7979 22.8005 21.1913H26.4111C26.9099 21.1913 27.3141 21.5847 27.3141 22.0702C27.3141 22.5554 26.9099 22.9491 26.4111 22.9491H22.6862V25.4222H22.0764C21.3759 25.4222 20.8059 24.8676 20.8059 24.1857C20.8059 23.5037 21.3759 22.9491 22.0764 22.9491H22.6859V21.1913H22.0764C20.3801 21.1913 19 22.5346 19 24.1857C19 25.8369 20.3801 27.18 22.0764 27.18H22.6859V29.0055H26.4111C26.9099 29.0055 27.3141 29.399 27.3141 29.8844C27.3141 30.3699 26.9099 30.7634 26.4111 30.7634H22.6859V33.2366H22.0764C21.3759 33.2366 20.8059 32.6818 20.8059 32C20.8059 31.3182 21.3759 30.7634 22.0764 30.7634H22.6859V29.0055H22.0764C20.3801 29.0055 19 30.3488 19 32C19 33.6512 20.3801 34.9945 22.0764 34.9945H22.6859V36.8198H26.4111C26.9099 36.8198 27.3141 37.2135 27.3141 37.6987C27.3141 38.1842 26.9099 38.5776 26.4111 38.5776H22.6859V41.0509H22.0764C21.3759 41.0509 20.8059 40.4961 20.8059 39.8143C20.8059 39.1324 21.3759 38.5776 22.0764 38.5776H22.6859V36.8198H22.0764C20.3801 36.8198 19 38.1631 19 39.8143C19 41.4654 20.3801 42.8087 22.0764 42.8087H22.6859V46.1211C22.6859 46.6066 23.0904 47 23.5889 47H38.6889V17L28.1037 17Z" fill="black"/>
<path d="M44.0971 17H40.4949V46.9252C43.0526 46.5029 45.0001 44.3363 45.0001 41.7266V17.8789C45.0001 17.3934 44.5958 17 44.0971 17Z" fill="black"/>
</svg>
