<svg width="1368" height="442" viewBox="0 0 1368 442" fill="none" xmlns="http://www.w3.org/2000/svg">
<path d="M1704.29 203.327C1708.89 200.279 1710.17 194.064 1706.97 189.56C1676.15 146.121 1634.53 111.382 1586.16 88.82C1534.76 64.8472 1477.73 55.5549 1421.38 61.9705C1365.03 68.3862 1311.55 90.2599 1266.86 125.173C1222.16 160.086 1187.99 206.679 1168.13 259.801C1148.26 312.922 1143.47 370.503 1154.29 426.176C1165.11 481.85 1191.11 533.447 1229.42 575.265C1267.73 617.082 1316.86 647.491 1371.38 663.128C1422.69 677.845 1476.89 678.938 1528.65 666.385C1534.02 665.083 1537.13 659.556 1535.66 654.233L1508.14 554.967C1506.66 549.645 1501.15 546.555 1495.76 547.74C1465.89 554.303 1434.8 553.347 1405.3 544.886C1372.59 535.503 1343.11 517.258 1320.12 492.168C1297.13 467.077 1281.53 436.119 1275.04 402.715C1268.55 369.31 1271.42 334.762 1283.34 302.889C1295.26 271.017 1315.77 243.061 1342.58 222.113C1369.4 201.165 1401.49 188.041 1435.3 184.191C1469.11 180.342 1503.32 185.917 1534.16 200.301C1561.98 213.273 1586.06 232.954 1604.3 257.508C1607.59 261.942 1613.78 263.223 1618.38 260.175L1704.29 203.327Z" fill="url(#paint0_linear)"/>
<path d="M-172.618 -126.45C-174.586 -131.61 -172.001 -137.403 -166.788 -139.226C-107.592 -159.934 -43.9389 -164.781 17.8144 -153.198C82.8474 -141 143.24 -111.055 192.317 -66.6752C241.393 -22.2951 277.241 34.792 295.896 98.2746C314.552 161.757 315.289 229.162 298.027 293.038C280.764 356.913 246.173 414.771 198.079 460.213C149.986 505.656 90.262 536.915 25.5114 550.532C-39.2392 564.15 -106.494 559.596 -168.819 537.375C-228 516.274 -280.545 480.023 -321.253 432.317C-324.837 428.115 -324.152 421.809 -319.852 418.343L-223.698 340.821C-219.399 337.355 -213.12 338.048 -209.458 342.182C-185.418 369.318 -154.872 389.986 -120.622 402.198C-83.2276 415.531 -42.8745 418.263 -4.02417 410.092C34.8262 401.922 70.6604 383.167 99.5167 355.901C128.373 328.635 149.127 293.921 159.485 255.596C169.843 217.27 169.4 176.827 158.207 138.738C147.013 100.648 125.505 66.396 96.059 39.7679C66.6133 13.1398 30.3774 -4.82682 -8.64233 -12.1456C-44.3807 -18.849 -81.1793 -16.3809 -115.616 -5.04841C-120.862 -3.32204 -126.635 -5.88613 -128.603 -11.0464L-172.618 -126.45Z" fill="url(#paint1_linear)"/>
<defs>
<linearGradient id="paint0_linear" x1="1402" y1="125.853" x2="1207.5" y2="467.853" gradientUnits="userSpaceOnUse">
<stop stop-color="#05DB6B" stop-opacity="0"/>
<stop offset="0.485501" stop-color="#05DB6B" stop-opacity="0.1"/>
<stop offset="1" stop-color="#05DB6B" stop-opacity="0"/>
</linearGradient>
<linearGradient id="paint1_linear" x1="167.281" y1="7.07533" x2="119.296" y2="463.572" gradientUnits="userSpaceOnUse">
<stop stop-color="#05DB6B" stop-opacity="0"/>
<stop offset="0.485501" stop-color="#05DB6B" stop-opacity="0.1"/>
<stop offset="1" stop-color="#05DB6B" stop-opacity="0"/>
</linearGradient>
</defs>
</svg>
