<svg width="40" height="40" viewBox="0 0 40 40" fill="none" xmlns="http://www.w3.org/2000/svg">
<path fill-rule="evenodd" clip-rule="evenodd" d="M20 40C31.0457 40 40 31.0457 40 20C40 8.95431 31.0457 0 20 0C8.95431 0 0 8.95431 0 20C0 31.0457 8.95431 40 20 40Z" fill="url(#paint0_linear)"/>
<path d="M30.5 18C29.2927 18 28.2826 18.8603 28.0503 20H26.479C26.373 18.7208 25.8638 17.5543 25.0793 16.6279L26.1922 15.515C27.153 16.153 28.4756 16.06 29.3389 15.1967C30.3135 14.222 30.3135 12.636 29.3389 11.6612C28.3618 10.6842 26.7805 10.6841 25.8033 11.6612C24.9496 12.5149 24.8436 13.8375 25.4853 14.8076L24.3722 15.9207C23.4458 15.1362 22.2793 14.6271 21 14.521V12.9497C22.1398 12.7174 23 11.7074 23 10.5C23 9.1215 21.8785 8 20.5 8C19.1215 8 18 9.1215 18 10.5C18 11.7073 18.8602 12.7174 20 12.9497V14.521C18.7207 14.6271 17.5542 15.1362 16.6278 15.9207L15.5147 14.8076C16.1564 13.8375 16.0504 12.5149 15.1967 11.6612C14.2197 10.6842 12.6383 10.6841 11.6612 11.6612C10.6864 12.636 10.6864 14.222 11.6612 15.1968C12.5236 16.0592 13.8463 16.1535 14.8079 15.515L15.9207 16.6279C15.1362 17.5543 14.6271 18.7208 14.521 20H12.9497C12.7174 18.8603 11.7074 18 10.5 18C9.1215 18 8 19.1215 8 20.5C8 21.8785 9.1215 23 10.5 23C11.7073 23 12.7174 22.1398 12.9497 21H14.521C14.6271 22.2793 15.1362 23.4458 15.9207 24.3722L14.8078 25.485C13.847 24.8471 12.5244 24.9401 11.6611 25.8033C10.6864 26.7781 10.6864 28.3641 11.6611 29.3389C12.6383 30.3159 14.2194 30.3159 15.1967 29.3389C16.0504 28.4852 16.1563 27.1626 15.5147 26.1924L16.6278 25.0793C17.5542 25.8638 18.7207 26.3729 19.9999 26.479V28.0503C18.8602 28.2826 17.9999 29.2927 17.9999 30.5C17.9999 31.8785 19.1214 33 20.4999 33C21.8785 33 23 31.8785 23 30.5C23 29.2926 22.1397 28.2825 21 28.0503V26.479C22.2793 26.373 23.4457 25.8638 24.3721 25.0793L25.4853 26.1925C24.8436 27.1626 24.9495 28.4852 25.8033 29.339C26.7803 30.3159 28.3616 30.316 29.3388 29.339C30.3135 28.3642 30.3135 26.7781 29.3388 25.8033C28.4764 24.941 27.1539 24.8465 26.1921 25.4851L25.0793 24.3722C25.8638 23.4458 26.3729 22.2794 26.479 21.0001H28.0503C28.2826 22.1398 29.2927 23.0001 30.5 23.0001C31.8785 23.0001 33 21.8786 33 20.5001C33 19.1216 31.8785 18 30.5 18V18ZM26.5104 12.3683C27.0966 11.7821 28.0455 11.782 28.6318 12.3683C29.2166 12.9531 29.2166 13.9047 28.6318 14.4896C28.0456 15.0758 27.0967 15.0759 26.5104 14.4896C25.9256 13.9048 25.9256 12.9532 26.5104 12.3683ZM19 10.5C19 9.6729 19.6729 9 20.5 9C21.3271 9 22 9.6729 22 10.5C22 11.3271 21.3271 12 20.5 12C19.6729 12 19 11.3271 19 10.5V10.5ZM12.3683 14.4896C11.7834 13.9048 11.7834 12.9532 12.3683 12.3683C12.9544 11.7821 13.9033 11.782 14.4896 12.3683C15.0744 12.9532 15.0744 13.9048 14.4896 14.4896C13.9034 15.0758 12.9545 15.0759 12.3683 14.4896V14.4896ZM10.5 22C9.67286 22 8.99995 21.3271 8.99995 20.5C8.99995 19.6729 9.67286 19 10.5 19C11.3271 19 12 19.6729 12 20.5C12 21.3271 11.3271 22 10.5 22ZM14.4896 28.6318C13.9033 29.218 12.9545 29.218 12.3683 28.6318C11.7834 28.047 11.7834 27.0953 12.3683 26.5104C12.9543 25.9242 13.9033 25.924 14.4896 26.5104C15.0745 27.0953 15.0745 28.047 14.4896 28.6318ZM22 30.5C22 31.3271 21.3271 32 20.5 32C19.6729 32 19 31.3271 19 30.5C19 29.6729 19.6729 29 20.5 29C21.3271 29 22 29.6729 22 30.5ZM28.6318 26.5104C29.2166 27.0953 29.2166 28.0469 28.6318 28.6318C28.0454 29.218 27.0967 29.218 26.5104 28.6318C25.9256 28.047 25.9256 27.0953 26.5104 26.5104C26.7937 26.2271 27.1704 26.0711 27.5711 26.0711C27.9718 26.0711 28.3485 26.2271 28.6318 26.5104ZM20.5 25.5C17.743 25.5 15.5 23.2571 15.5 20.5C15.5 17.743 17.743 15.5 20.5 15.5C23.2571 15.5 25.5 17.743 25.5 20.5C25.5 23.2571 23.2571 25.5 20.5 25.5ZM30.5 22C29.6729 22 29 21.3271 29 20.5C29 19.6729 29.6729 19 30.5 19C31.3271 19 32 19.6729 32 20.5C32 21.3271 31.3271 22 30.5 22Z" fill="white"/>
<defs>
<linearGradient id="paint0_linear" x1="20" y1="0" x2="20" y2="40" gradientUnits="userSpaceOnUse">
<stop stop-color="#05DB6B"/>
<stop offset="1" stop-color="#09A854"/>
</linearGradient>
</defs>
</svg>
