<svg width="64" height="64" viewBox="0 0 64 64" fill="none" xmlns="http://www.w3.org/2000/svg">
<path d="M0 18.2857C0 8.18679 8.18679 0 18.2857 0H45.7143C55.8132 0 64 8.18679 64 18.2857V45.7143C64 55.8132 55.8132 64 45.7143 64H18.2857C8.18679 64 0 55.8132 0 45.7143V18.2857Z" fill="#FFCB7F"/>
<path d="M44.0714 24.5H39.4286V18.0714C39.4286 17.4797 39.0128 17 38.5 17H19.9286C19.4157 17 19 17.4797 19 18.0714V42.7143C19 45.0812 20.6629 47 22.7143 47H41.2857C43.3371 47 45 45.0812 45 42.7143V25.5714C45 24.9797 44.5843 24.5 44.0714 24.5ZM26.4285 22.3571H32C32.5128 22.3571 32.9286 22.8368 32.9286 23.4286C32.9286 24.0203 32.5128 24.5 32 24.5H26.4285C25.9157 24.5 25.5 24.0203 25.5 23.4286C25.5 22.8368 25.9157 22.3571 26.4285 22.3571ZM34.7857 42.7143H23.6428C23.13 42.7143 22.7142 42.2346 22.7142 41.6428C22.7142 41.0511 23.13 40.5714 23.6428 40.5714H34.7857C35.2985 40.5714 35.7143 41.0511 35.7143 41.6428C35.7143 42.2346 35.2985 42.7143 34.7857 42.7143ZM34.7857 38.4285H23.6428C23.13 38.4285 22.7142 37.9488 22.7142 37.3571C22.7142 36.7653 23.13 36.2856 23.6428 36.2856H34.7857C35.2985 36.2856 35.7143 36.7653 35.7143 37.3571C35.7143 37.9488 35.2985 38.4285 34.7857 38.4285ZM34.7857 34.1429H23.6428C23.13 34.1429 22.7142 33.6632 22.7142 33.0714C22.7142 32.4797 23.13 32 23.6428 32H34.7857C35.2985 32 35.7143 32.4797 35.7143 33.0714C35.7143 33.6632 35.2985 34.1429 34.7857 34.1429ZM34.7857 29.8571H23.6428C23.13 29.8571 22.7142 29.3774 22.7142 28.7857C22.7142 28.1939 23.13 27.7142 23.6428 27.7142H34.7857C35.2985 27.7142 35.7143 28.1939 35.7143 28.7857C35.7143 29.3774 35.2985 29.8571 34.7857 29.8571ZM43.1428 42.7143C43.1428 43.8977 42.3114 44.8571 41.2857 44.8571C40.26 44.8571 39.4286 43.8977 39.4286 42.7143V26.6429H43.1429V42.7143H43.1428Z" fill="black"/>
</svg>
