<svg width="30" height="30" viewBox="0 0 30 30" fill="none" xmlns="http://www.w3.org/2000/svg">
<path fill-rule="evenodd" clip-rule="evenodd" d="M15 0C6.71573 0 0 6.71573 0 15C0 23.2843 6.71573 30 15 30C23.2843 30 30 23.2843 30 15C30 6.71573 23.2843 0 15 0ZM11.7021 7.04827C12.5554 7.00944 12.8281 6.99994 15.0008 6.99994H14.9983C17.1716 6.99994 17.4433 7.00944 18.2966 7.04827C19.1483 7.08727 19.73 7.22211 20.24 7.41994C20.7666 7.62411 21.2117 7.89745 21.6567 8.34245C22.1017 8.78712 22.375 9.23346 22.58 9.75963C22.7767 10.2683 22.9117 10.8496 22.9517 11.7013C22.99 12.5547 23 12.8273 23 15C23 17.1727 22.99 17.4447 22.9517 18.2981C22.9117 19.1494 22.7767 19.7309 22.58 20.2397C22.375 20.7657 22.1017 21.2121 21.6567 21.6568C21.2122 22.1018 20.7665 22.3758 20.2405 22.5801C19.7315 22.7779 19.1495 22.9128 18.2978 22.9518C17.4444 22.9906 17.1726 23.0001 14.9998 23.0001C12.8272 23.0001 12.5547 22.9906 11.7014 22.9518C10.8499 22.9128 10.2684 22.7779 9.75936 22.5801C9.23353 22.3758 8.78719 22.1018 8.34268 21.6568C7.89784 21.2121 7.62451 20.7658 7.42001 20.2396C7.22234 19.7309 7.0875 19.1496 7.04834 18.2979C7.00967 17.4445 7 17.1727 7 15C7 12.8273 7.01 12.5545 7.04817 11.7012C7.0865 10.8498 7.2215 10.2683 7.41984 9.75947C7.62484 9.23346 7.89818 8.78712 8.34318 8.34245C8.78785 7.89762 9.23419 7.62428 9.76036 7.41994C10.269 7.22211 10.8504 7.08727 11.7021 7.04827Z" fill="#31443E"/>
<path fill-rule="evenodd" clip-rule="evenodd" d="M14.2831 8.4417C14.4225 8.44148 14.5724 8.44155 14.7341 8.44162L15.0008 8.4417C17.1368 8.4417 17.39 8.44936 18.2335 8.4877C19.0135 8.52337 19.4368 8.6537 19.7188 8.7632C20.0922 8.9082 20.3583 9.08154 20.6382 9.36154C20.9182 9.64154 21.0915 9.90821 21.2368 10.2815C21.3463 10.5632 21.4768 10.9866 21.5123 11.7666C21.5507 12.6099 21.559 12.8632 21.559 14.9983C21.559 17.1333 21.5507 17.3866 21.5123 18.23C21.4767 19.01 21.3463 19.4333 21.2368 19.715C21.0918 20.0883 20.9182 20.3542 20.6382 20.634C20.3582 20.914 20.0923 21.0873 19.7188 21.2323C19.4372 21.3423 19.0135 21.4723 18.2335 21.508C17.3901 21.5463 17.1368 21.5547 15.0008 21.5547C12.8646 21.5547 12.6114 21.5463 11.7681 21.508C10.9881 21.472 10.5647 21.3417 10.2826 21.2322C9.90922 21.0872 9.64255 20.9138 9.36255 20.6338C9.08254 20.3538 8.90921 20.0878 8.76387 19.7143C8.65437 19.4326 8.52387 19.0093 8.48837 18.2293C8.45004 17.386 8.44237 17.1326 8.44237 14.9963C8.44237 12.8599 8.45004 12.6079 8.48837 11.7646C8.52404 10.9846 8.65437 10.5612 8.76387 10.2792C8.90888 9.90588 9.08254 9.63921 9.36255 9.35921C9.64255 9.0792 9.90922 8.90587 10.2826 8.76053C10.5646 8.65053 10.9881 8.52053 11.7681 8.4847C12.5061 8.45136 12.7921 8.44136 14.2831 8.4397V8.4417ZM19.2709 9.77011C18.7409 9.77011 18.3109 10.1996 18.3109 10.7298C18.3109 11.2598 18.7409 11.6898 19.2709 11.6898C19.8009 11.6898 20.2309 11.2598 20.2309 10.7298C20.2309 10.1998 19.8009 9.77011 19.2709 9.77011ZM10.8922 14.9999C10.8922 12.7311 12.7316 10.8916 15.0004 10.8915C17.2692 10.8915 19.1083 12.731 19.1083 14.9999C19.1083 17.2687 17.2694 19.1074 15.0005 19.1074C12.7317 19.1074 10.8922 17.2687 10.8922 14.9999Z" fill="#31443E"/>
<path fill-rule="evenodd" clip-rule="evenodd" d="M15.0007 12.3337C16.4734 12.3337 17.6674 13.5275 17.6674 15.0004C17.6674 16.4731 16.4734 17.6671 15.0007 17.6671C13.5278 17.6671 12.334 16.4731 12.334 15.0004C12.334 13.5275 13.5278 12.3337 15.0007 12.3337Z" fill="#31443E"/>
</svg>
